<svg width="24" height="24" viewBox="0 0 24 24" fill="none" xmlns="http://www.w3.org/2000/svg">
<path d="M2.04983 13.0001H7.52683C7.69794 16.167 8.70738 19.2315 10.4518 21.8801C8.26658 21.5371 6.25661 20.4796 4.73624 18.8729C3.21586 17.2662 2.2718 15.201 2.04983 13.0001ZM2.04883 11.0001C2.27054 8.79926 3.21536 6.73391 4.73556 5.12705C6.25576 3.52018 8.26561 2.46241 10.4508 2.11914C8.70638 4.76775 7.69694 7.83228 7.52583 10.9991L2.04883 11.0001ZM21.9488 11.0001H16.4718C16.3009 7.83294 15.2914 4.76804 13.5468 2.11914C15.7321 2.46216 17.742 3.5197 19.2624 5.12638C20.7828 6.73306 21.7279 8.7983 21.9498 10.9991M21.9498 12.9991C21.7279 15.1998 20.783 17.265 19.2628 18.8716C17.7426 20.4783 15.7329 21.5359 13.5478 21.8791C15.2921 19.2308 16.3015 16.1666 16.4728 13.0001L21.9498 12.9991ZM9.52983 13.0001H14.4698C14.3056 15.6997 13.4555 18.3127 11.9998 20.5921C10.5442 18.3127 9.69407 15.6997 9.52983 13.0001ZM9.52983 11.0001C9.69407 8.30059 10.5442 5.68755 11.9998 3.40814C13.4555 5.68755 14.3056 8.30059 14.4698 11.0001H9.52983Z" fill="#153276"/>
</svg>
