<svg width="16" height="16" viewBox="0 0 16 16" fill="none" xmlns="http://www.w3.org/2000/svg">
<g clip-path="url(#clip0_390_84421)">
<path d="M7.03679 4.15937L4.78147 1.55604C4.52147 1.25604 4.04481 1.25737 3.74281 1.56004L1.88814 3.41804C1.33614 3.9707 1.17814 4.79137 1.49747 5.44937C3.40522 9.39934 6.59084 12.5894 10.5381 14.5027C11.1955 14.8221 12.0155 14.6641 12.5675 14.1114L14.4395 12.2361C14.7428 11.9327 14.7435 11.4534 14.4408 11.1934L11.8275 8.95007C11.5541 8.7154 11.1295 8.74607 10.8555 9.02074L9.94612 9.9314C9.89959 9.98014 9.83832 10.0123 9.77172 10.0229C9.70512 10.0335 9.63685 10.0219 9.57745 9.99007C8.09112 9.13414 6.85812 7.89954 6.00414 6.41204C5.97216 6.35254 5.96058 6.28419 5.97117 6.21748C5.98177 6.15076 6.01396 6.08936 6.06281 6.0427L6.96945 5.13537C7.24412 4.85937 7.27412 4.43337 7.03679 4.15937Z" fill="#153276" stroke="#153276" stroke-width="0.666667" stroke-linecap="round" stroke-linejoin="round"/>
</g>
<defs>
<clipPath id="clip0_390_84421">
<rect width="16" height="16" fill="white"/>
</clipPath>
</defs>
</svg>
