<svg width="30" height="30" viewBox="0 0 30 30" fill="none" xmlns="http://www.w3.org/2000/svg">
<path fill-rule="evenodd" clip-rule="evenodd" d="M14.5 3C20.8514 3 26 8.14855 26 14.5C26 20.8514 20.8514 26 14.5 26C8.14855 26 3 20.8514 3 14.5C3 8.14855 8.14855 3 14.5 3ZM15.264 7.89062C15.0535 7.70345 14.7817 7.60004 14.5 7.6C14.195 7.6 13.9025 7.72116 13.6868 7.93683C13.4712 8.15249 13.35 8.445 13.35 8.75V14.5L13.3603 14.6507C13.3934 14.9014 13.5082 15.1342 13.687 15.3131L17.137 18.7631L17.2451 18.8585C17.4762 19.0372 17.7667 19.1213 18.0576 19.0936C18.3484 19.0659 18.6178 18.9285 18.8111 18.7093C19.0043 18.4902 19.1069 18.2057 19.098 17.9136C19.089 17.6216 18.9693 17.3439 18.7631 17.137L15.65 14.0239V8.75L15.642 8.61545C15.609 8.33571 15.4745 8.0778 15.264 7.89062Z" fill="#153276"/>
</svg>
