<svg width="21" height="21" viewBox="0 0 21 21" fill="none" xmlns="http://www.w3.org/2000/svg">
<path fill-rule="evenodd" clip-rule="evenodd" d="M10.5 4.68424C9.40741 4.68448 8.33699 4.99249 7.41136 5.57299C6.48574 6.15348 5.74236 6.98297 5.26638 7.96643C4.79041 8.94989 4.60109 10.0475 4.72012 11.1336C4.83916 12.2197 5.26172 13.2503 5.93941 14.1073C6.61711 14.9643 7.52251 15.6131 8.55189 15.9794C9.58127 16.3456 10.693 16.4144 11.7597 16.178C12.8264 15.9416 13.8049 15.4095 14.5832 14.6426C15.3615 13.8758 15.908 12.9052 16.1601 11.8421H11.3947C11.0388 11.8421 10.6974 11.7007 10.4457 11.449C10.194 11.1973 10.0526 10.856 10.0526 10.5C10.0526 10.1441 10.194 9.8027 10.4457 9.55101C10.6974 9.29932 11.0388 9.15792 11.3947 9.15792H17.6579C18.0138 9.15792 18.3552 9.29932 18.6069 9.55101C18.8586 9.8027 19 10.1441 19 10.5C19 12.4655 18.3188 14.3703 17.0724 15.8901C15.826 17.4099 14.0915 18.4507 12.164 18.8355C10.2365 19.2203 8.23524 18.9252 6.50086 18.0004C4.76647 17.0757 3.40617 15.5785 2.65151 13.7636C1.89684 11.9487 1.79446 9.92843 2.36178 8.04657C2.9291 6.16472 4.13107 4.53763 5.76308 3.44228C7.39509 2.34693 9.35627 1.85102 11.3128 2.03896C13.2693 2.2269 15.1002 3.08709 16.4938 4.47308C16.6188 4.59739 16.7181 4.7451 16.7859 4.90777C16.8538 5.07044 16.889 5.24489 16.8894 5.42115C16.8899 5.59742 16.8556 5.77204 16.7886 5.93506C16.7216 6.09808 16.6231 6.2463 16.4988 6.37126C16.3745 6.49622 16.2267 6.59547 16.0641 6.66335C15.9014 6.73122 15.727 6.76639 15.5507 6.76685C15.1947 6.76777 14.8529 6.62725 14.6006 6.37618C13.512 5.29094 12.0371 4.68236 10.5 4.68424Z" fill="#153276"/>
</svg>
