<svg width="16" height="16" viewBox="0 0 16 16" fill="none" xmlns="http://www.w3.org/2000/svg">
<g clip-path="url(#clip0_390_84394)">
<g clip-path="url(#clip1_390_84394)">
<mask id="mask0_390_84394" style="mask-type:luminance" maskUnits="userSpaceOnUse" x="0" y="0" width="16" height="16">
<path d="M16 0H0V16H16V0Z" fill="white"/>
</mask>
<g mask="url(#mask0_390_84394)">
<path fill-rule="evenodd" clip-rule="evenodd" d="M11.61 9.588C11.4113 9.48867 10.4373 9.01 10.256 8.94333C10.0747 8.87733 9.94267 8.84467 9.81 9.04333C9.678 9.24067 9.29867 9.68733 9.18333 9.81933C9.06733 9.952 8.952 9.968 8.754 9.86933C8.556 9.76933 7.91733 9.56067 7.16067 8.886C6.572 8.36067 6.174 7.712 6.05867 7.51333C5.94333 7.31533 6.046 7.208 6.14533 7.10933C6.23467 7.02067 6.34333 6.878 6.44267 6.76267C6.542 6.64669 6.57467 6.56403 6.64067 6.43136C6.70733 6.29936 6.674 6.18403 6.624 6.08469C6.57467 5.98536 6.17867 5.01003 6.01333 4.61336C5.85267 4.22736 5.68933 4.28003 5.568 4.27336C5.452 4.26803 5.32 4.26669 5.188 4.26669C5.056 4.26669 4.84133 4.31603 4.66 4.51469C4.478 4.71269 3.96667 5.19203 3.96667 6.16736C3.96667 7.142 4.676 8.084 4.77533 8.21667C4.87467 8.34867 6.172 10.35 8.15933 11.208C8.63267 11.412 9.00133 11.534 9.28867 11.6247C9.76333 11.776 10.1953 11.7547 10.5367 11.7033C10.9167 11.6467 11.7087 11.224 11.874 10.7613C12.0387 10.2987 12.0387 9.902 11.9893 9.81933C11.94 9.73667 11.808 9.68733 11.6093 9.588H11.61ZM7.99533 14.5233H7.99267C6.81227 14.5236 5.65358 14.2063 4.638 13.6047L4.398 13.462L1.90333 14.1167L2.56933 11.6847L2.41267 11.4353C1.75276 10.3849 1.40353 9.1692 1.40533 7.92867C1.40667 4.29536 4.36267 1.33936 7.998 1.33936C9.758 1.33936 11.4127 2.02603 12.6567 3.27136C13.2703 3.88241 13.7566 4.60907 14.0875 5.40929C14.4185 6.20951 14.5874 7.0674 14.5847 7.93333C14.5833 11.5667 11.6273 14.5233 7.99533 14.5233ZM13.6033 2.32536C12.8688 1.58597 11.9948 0.99972 11.0321 0.600561C10.0693 0.201403 9.03687 -0.0027175 7.99467 2.73184e-05C3.62533 2.73184e-05 0.068 3.55669 0.0666667 7.928C0.066 9.32533 0.430667 10.6893 1.12467 11.8913L0 16L4.20267 14.8973C5.36525 15.5308 6.66807 15.8627 7.992 15.8627H7.99533C12.3647 15.8627 15.922 12.306 15.9233 7.934C15.9265 6.8922 15.7232 5.86009 15.3249 4.89738C14.9267 3.93467 14.3416 3.06047 13.6033 2.32536Z" fill="#153276"/>
</g>
</g>
</g>
<defs>
<clipPath id="clip0_390_84394">
<rect width="16" height="16" fill="white"/>
</clipPath>
<clipPath id="clip1_390_84394">
<rect width="16" height="16" fill="white"/>
</clipPath>
</defs>
</svg>
