<svg width="30" height="30" viewBox="0 0 30 30" fill="none" xmlns="http://www.w3.org/2000/svg">
<path d="M15.002 2.5C21.9057 2.5 27.502 8.09625 27.502 15C27.502 21.9037 21.9057 27.5 15.002 27.5C12.7929 27.5038 10.6227 26.9192 8.71447 25.8063L2.50697 27.5L4.19697 21.29C3.08317 19.3812 2.4981 17.21 2.50197 15C2.50197 8.09625 8.09822 2.5 15.002 2.5ZM10.742 9.125L10.492 9.135C10.3303 9.14614 10.1724 9.18859 10.027 9.26C9.89144 9.33689 9.76767 9.43287 9.65947 9.545C9.50947 9.68625 9.42447 9.80875 9.33322 9.9275C8.87087 10.5286 8.62194 11.2666 8.62572 12.025C8.62822 12.6375 8.78822 13.2338 9.03822 13.7913C9.54947 14.9187 10.3907 16.1125 11.5007 17.2188C11.7682 17.485 12.0307 17.7525 12.3132 18.0013C13.6925 19.2155 15.3361 20.0912 17.1132 20.5588L17.8232 20.6675C18.0545 20.68 18.2857 20.6625 18.5182 20.6512C18.8822 20.6321 19.2376 20.5335 19.5595 20.3625C19.723 20.2779 19.8828 20.1862 20.0382 20.0875C20.0382 20.0875 20.0911 20.0517 20.1945 19.975C20.3632 19.85 20.467 19.7612 20.607 19.615C20.712 19.5067 20.7995 19.3808 20.8695 19.2375C20.967 19.0338 21.0645 18.645 21.1045 18.3212C21.1345 18.0737 21.1257 17.9388 21.122 17.855C21.117 17.7213 21.0057 17.5825 20.8845 17.5238L20.157 17.1975C20.157 17.1975 19.0695 16.7238 18.4045 16.4213C18.3349 16.3909 18.2603 16.3736 18.1845 16.37C18.0989 16.3611 18.0125 16.3706 17.931 16.398C17.8494 16.4254 17.7748 16.47 17.712 16.5287C17.7057 16.5262 17.622 16.5975 16.7182 17.6925C16.6664 17.7622 16.5949 17.8149 16.513 17.8438C16.4311 17.8728 16.3424 17.8767 16.2582 17.855C16.1768 17.8333 16.097 17.8057 16.0195 17.7725C15.8645 17.7075 15.8107 17.6825 15.7045 17.6375C14.9868 17.3249 14.3225 16.9018 13.7357 16.3838C13.5782 16.2463 13.432 16.0962 13.282 15.9513C12.7902 15.4803 12.3617 14.9475 12.007 14.3663L11.9332 14.2475C11.8811 14.1672 11.8383 14.0813 11.8057 13.9913C11.7582 13.8075 11.882 13.66 11.882 13.66C11.882 13.66 12.1857 13.3275 12.327 13.1475C12.4645 12.9725 12.5807 12.8025 12.6557 12.6813C12.8032 12.4438 12.8495 12.2 12.772 12.0113C12.422 11.1562 12.0603 10.3058 11.687 9.46C11.6132 9.2925 11.3945 9.1725 11.1957 9.14875C11.1282 9.14042 11.0607 9.13375 10.9932 9.12875C10.8254 9.11912 10.6571 9.12079 10.4895 9.13375L10.742 9.125Z" fill="#153276"/>
</svg>
