<svg width="120" height="30" viewBox="0 0 120 30" fill="none" xmlns="http://www.w3.org/2000/svg">
<g clip-path="url(#clip0_390_84497)">
<g clip-path="url(#clip1_390_84497)">
<g clip-path="url(#clip2_390_84497)">
<path fill-rule="evenodd" clip-rule="evenodd" d="M14.0125 -0.00244141C21.7514 -0.00244141 28.025 6.27111 28.025 14.0101C28.025 21.749 21.7514 28.0226 14.0125 28.0226C6.27355 28.0226 0 21.749 0 14.0101C0 6.27111 6.27355 -0.00244141 14.0125 -0.00244141Z" fill="#153276"/>
<mask id="mask0_390_84497" style="mask-type:luminance" maskUnits="userSpaceOnUse" x="0" y="-1" width="29" height="30">
<path d="M14.0125 -0.00244141C21.7514 -0.00244141 28.025 6.27111 28.025 14.0101C28.025 21.749 21.7514 28.0226 14.0125 28.0226C6.27355 28.0226 0 21.749 0 14.0101C0 6.27111 6.27355 -0.00244141 14.0125 -0.00244141Z" fill="white"/>
</mask>
<g mask="url(#mask0_390_84497)">
<path fill-rule="evenodd" clip-rule="evenodd" d="M2.7286 23.1237C-2.41871 16.868 -1.52015 7.62395 4.73557 2.47665C10.9913 -2.67066 20.2353 -1.77211 25.3826 4.48361C25.4006 4.50544 25.4177 4.52775 25.4355 4.54965L2.78316 23.1883C2.76509 23.1667 2.74653 23.1455 2.7286 23.1237Z" fill="#B28954"/>
</g>
<path fill-rule="evenodd" clip-rule="evenodd" d="M3.71637 22.3223C-0.906693 16.7038 -0.0996783 8.40133 5.51891 3.77832C11.1374 -0.844664 19.4398 -0.0376496 24.0629 5.58089C24.0789 5.6005 24.0944 5.6205 24.1103 5.64016L3.76537 22.3803C3.74911 22.3608 3.73242 22.3419 3.71637 22.3223Z" fill="#C8A06E"/>
<path fill-rule="evenodd" clip-rule="evenodd" d="M14.0131 4.6709C19.171 4.6709 23.3524 8.85223 23.3524 14.0102C23.3524 19.1681 19.171 23.3494 14.0131 23.3494C8.85515 23.3494 4.67383 19.1681 4.67383 14.0102C4.67383 8.85223 8.85515 4.6709 14.0131 4.6709Z" fill="#B28954"/>
<path fill-rule="evenodd" clip-rule="evenodd" d="M18.6679 18.7112C19.0008 18.3701 18.9025 17.8957 18.9025 17.8957L21.0315 17.0802C21.0315 17.0802 21.2155 16.1675 20.7267 16.0759C20.2378 15.9842 17.7211 16.2422 17.7211 16.2422L15.3982 13.718C15.3333 13.0604 19.6633 10.8457 19.6633 10.8457C19.6264 10.4885 19.0101 9.93522 19.0101 9.93522C18.7329 9.88328 17.9762 10.0479 17.0986 10.2879C17.0056 10.0094 16.7593 9.81511 16.4781 9.82611C16.1292 9.84011 15.8588 10.165 15.8742 10.5519C15.8753 10.5824 15.8782 10.6124 15.8828 10.6417L15.7776 10.6739C15.7128 10.3466 15.444 10.1067 15.1323 10.1189C14.7834 10.1328 14.513 10.4577 14.5283 10.8446C14.5313 10.9193 14.5448 10.9907 14.567 11.0574C13.7974 11.3081 13.2416 11.5008 13.2416 11.5008C9.58929 7.936 8.46134 8.76255 8.46568 8.75828C8.47001 8.75378 7.67101 9.9015 11.3233 13.4662C11.3233 13.4662 11.1643 13.9636 10.9519 14.6698C10.9061 14.6604 10.8585 14.6552 10.8098 14.6546C10.4226 14.6486 10.1044 14.9267 10.099 15.2759C10.0945 15.5637 10.3043 15.8099 10.5951 15.8908L10.5622 16.0073L10.5498 16.007C10.1626 16.0011 9.8444 16.2793 9.83901 16.6284C9.83501 16.8837 9.99968 17.1062 10.24 17.2097C10.002 18.1525 9.8364 18.9804 9.89812 19.271C9.89812 19.271 10.4662 19.8737 10.8243 19.9019C10.8243 19.9019 12.9332 15.5194 13.5923 15.5683L16.1721 17.8293C16.1721 17.8293 15.9752 20.3515 16.0787 20.8381C16.1822 21.3246 17.09 21.1184 17.09 21.1184L17.8537 18.9702C17.8537 18.9702 18.335 19.0522 18.6679 18.7112Z" fill="#FEFEFE"/>
<path d="M33.7441 20.8776V4.07692H42.082V7.33878H37.3117V10.4219H41.715V13.7953H37.3117V17.4593H42.082V20.8776H33.7441ZM47.6304 14.622H49.6927L48.6666 7.29406L47.6304 14.622ZM43.2033 20.8776L46.5465 4.07692H50.8072L54.1098 20.8776H50.5286L50.0801 17.6604H47.2634L46.8149 20.8776H43.2033ZM55.044 15.1806H58.3262V15.6721C58.3262 16.5992 58.4245 17.2508 58.6251 17.6269C58.8223 18.0067 59.1584 18.1966 59.6306 18.1966C60.0079 18.1966 60.3068 18.0514 60.5245 17.7647C60.7451 17.4779 60.854 17.087 60.854 16.5918C60.854 15.7763 60.3206 14.9907 59.2573 14.2422C59.084 14.1119 58.9512 14.0113 58.8595 13.9481L58.6895 13.8289C57.249 12.7639 56.3556 11.9671 56.0023 11.4272C55.7506 11.0213 55.5606 10.5633 55.428 10.0532C55.2954 9.54684 55.2275 8.98834 55.2275 8.38512C55.2275 6.918 55.6151 5.76373 56.3929 4.92968C57.1673 4.09187 58.2379 3.6748 59.5968 3.6748C61.0784 3.6748 62.2062 4.08443 62.9879 4.90729C63.7656 5.72645 64.1568 6.91428 64.1568 8.47073C64.1568 8.53406 64.1534 8.62712 64.1462 8.74251C64.1395 8.85801 64.1362 8.94739 64.1362 9.01439H60.9151V8.80584C60.9151 8.07606 60.8101 7.52123 60.6029 7.14517C60.3918 6.76906 60.0895 6.57917 59.6923 6.57917C59.3556 6.57917 59.084 6.71323 58.8801 6.97756C58.6729 7.24195 58.5706 7.592 58.5706 8.02762C58.5706 8.73884 59.1518 9.49467 60.3173 10.2916C60.5312 10.4442 60.6912 10.5597 60.8029 10.6416C60.8984 10.6974 61.0273 10.7905 61.194 10.9134C62.4473 11.7847 63.2495 12.5219 63.6029 13.1177C63.8201 13.5012 63.9901 13.9406 64.1056 14.4322C64.2212 14.9237 64.279 15.4561 64.279 16.0295C64.279 17.7126 63.8812 19.0046 63.0829 19.9168C62.2879 20.8255 61.1495 21.2797 59.6717 21.2797C58.119 21.2797 56.9534 20.8441 56.1723 19.9765C55.394 19.1052 55.0033 17.8131 55.0033 16.0965C55.0033 15.9886 55.0066 15.8731 55.01 15.754C55.0134 15.6348 55.0236 15.4412 55.044 15.1806ZM68.3529 20.8776V13.7544L64.8256 4.07692H68.6823L70.1634 9.39045L71.6551 4.07692H75.549L72.0223 13.7544V20.8776H68.3529ZM74.8012 16.2529V12.8794H81.019V16.2529H74.8012ZM84.3523 20.8776L80.9273 4.07692H84.719L86.0445 12.9017C86.1023 13.2964 86.1701 13.814 86.2484 14.4582C86.3229 15.1024 86.3979 15.7987 86.4723 16.5471L86.5029 16.3386C86.6795 14.5848 86.8056 13.4491 86.8801 12.9241L88.2323 4.07692H92.0173L88.5312 20.8776H84.3523ZM93.424 20.8776V4.07692H97.0117V20.8776H93.424ZM99.0267 15.1806H102.309V15.6721C102.309 16.5992 102.407 17.2508 102.608 17.6269C102.805 18.0067 103.141 18.1966 103.613 18.1966C103.991 18.1966 104.29 18.0514 104.507 17.7647C104.728 17.4779 104.837 17.087 104.837 16.5918C104.837 15.7763 104.303 14.9907 103.24 14.2422C103.067 14.1119 102.934 14.0113 102.842 13.9481L102.672 13.8289C101.232 12.7639 100.338 11.9671 99.9851 11.4272C99.7334 11.0213 99.5434 10.5633 99.4106 10.0532C99.2784 9.54684 99.2101 8.98834 99.2101 8.38512C99.2101 6.918 99.5973 5.76373 100.376 4.92968C101.15 4.09187 102.221 3.6748 103.58 3.6748C105.061 3.6748 106.189 4.08443 106.971 4.90729C107.748 5.72645 108.14 6.91428 108.14 8.47073C108.14 8.53406 108.136 8.62712 108.129 8.74251C108.122 8.85801 108.119 8.94739 108.119 9.01439H104.898V8.80584C104.898 8.07606 104.792 7.52123 104.585 7.14517C104.375 6.76906 104.072 6.57917 103.675 6.57917C103.338 6.57917 103.067 6.71323 102.863 6.97756C102.656 7.24195 102.553 7.592 102.553 8.02762C102.553 8.73884 103.135 9.49467 104.3 10.2916C104.514 10.4442 104.673 10.5597 104.786 10.6416C104.881 10.6974 105.01 10.7905 105.177 10.9134C106.43 11.7847 107.232 12.5219 107.586 13.1177C107.803 13.5012 107.973 13.9406 108.088 14.4322C108.204 14.9237 108.262 15.4561 108.262 16.0295C108.262 17.7126 107.864 19.0046 107.066 19.9168C106.271 20.8255 105.132 21.2797 103.655 21.2797C102.102 21.2797 100.936 20.8441 100.155 19.9765C99.3767 19.1052 98.9862 17.8131 98.9862 16.0965C98.9862 15.9886 98.9895 15.8731 98.9929 15.754C98.9962 15.6348 99.0062 15.4412 99.0267 15.1806ZM113.521 14.622H115.583L114.557 7.29406L113.521 14.622ZM109.094 20.8776L112.437 4.07692H116.698L120.001 20.8776H116.42L115.971 17.6604H113.154L112.706 20.8776H109.094Z" fill="#2B2C2C"/>
<path d="M72.9824 27.8065C73.1652 27.8418 73.4591 27.8653 73.8008 27.8653C74.3363 27.8653 74.7719 27.7771 75.0896 27.5417C75.3485 27.3475 75.5602 27.0238 75.5602 26.6177C75.5602 26.141 75.2657 25.8408 74.913 25.7349V25.7232C75.3541 25.6054 75.7602 25.2346 75.7602 24.7286C75.7602 24.4696 75.6602 24.2636 75.4719 24.1106C75.2658 23.9222 74.9657 23.8398 74.5596 23.8398C74.2363 23.8398 73.9535 23.8752 73.7063 23.9222L72.9824 27.8065ZM74.1302 24.2636C74.2069 24.24 74.3535 24.2283 74.5363 24.2283C74.9658 24.2283 75.2541 24.3931 75.2541 24.7756C75.2541 25.2582 74.8185 25.5525 74.248 25.5525H73.883L74.1302 24.2636ZM73.8063 25.9232H74.2069C74.6541 25.9232 75.048 26.1292 75.048 26.5941C75.048 27.2297 74.5069 27.4711 73.9302 27.4711C73.7946 27.4711 73.6535 27.4652 73.5296 27.4475L73.8063 25.9232ZM76.5135 24.9875L76.2019 26.5941C76.1663 26.7825 76.1485 26.9414 76.1485 27.0767C76.1485 27.7241 76.5374 27.9006 76.9019 27.9006C77.2785 27.9006 77.6496 27.6711 77.9024 27.3003H77.9141L77.8435 27.836H78.2791C78.3085 27.6005 78.3496 27.3239 78.4085 27.0061L78.7913 24.9875H78.303L78.0263 26.4471C77.9085 27.0708 77.4552 27.4887 77.1024 27.4887C76.7669 27.4887 76.6491 27.2886 76.6491 26.9943C76.6491 26.8708 76.6669 26.7354 76.6963 26.5765L76.9963 24.9875H76.5135ZM79.4974 26.5177H79.7269C80.0741 26.5177 80.4746 26.6295 80.4746 27.0002C80.4746 27.371 80.0624 27.5181 79.733 27.5181C79.4563 27.5181 79.1858 27.4298 78.9796 27.3003L78.8385 27.6535C79.068 27.8065 79.3913 27.8948 79.7624 27.8948C80.3274 27.8948 80.9863 27.6711 80.9863 27.0002C80.9863 26.6177 80.6391 26.3764 80.3274 26.3352L80.333 26.3293C80.7096 26.2528 81.0808 26.0174 81.0808 25.6113C81.0808 25.1052 80.6158 24.9287 80.1802 24.9287C79.8741 24.9287 79.5446 25.0346 79.3152 25.1876L79.4269 25.4936C79.633 25.3641 79.8858 25.2935 80.1035 25.2935C80.3569 25.2935 80.5685 25.4171 80.5685 25.6643C80.5685 26.0233 80.0858 26.1704 79.7508 26.1704H79.5563L79.4974 26.5177ZM82.0107 24.9875L81.628 26.7354C81.5985 26.8766 81.5574 27.0885 81.5574 27.2533C81.5574 27.7417 81.9341 27.8772 82.3635 27.8772C83.1874 27.8772 83.7524 27.3298 83.7524 26.6824C83.7524 26.1998 83.4346 25.9232 82.9874 25.9232C82.693 25.9232 82.3696 26.0763 82.1813 26.2999H82.1752L82.493 24.9875H82.0107ZM82.4458 27.5122C82.1813 27.5122 82.0341 27.3946 82.0341 27.1886C82.0341 27.0767 82.0574 26.9885 82.0813 26.8885C82.1574 26.5883 82.4874 26.2881 82.8108 26.2881C83.123 26.2881 83.2696 26.4882 83.2696 26.753C83.2696 27.2121 82.858 27.5122 82.4458 27.5122ZM84.4708 24.9875L83.923 27.836H84.4352L84.9769 24.9875H84.4708ZM86.4713 26.0586L86.4008 26.4352H87.8074L87.878 26.0586H86.4713ZM89.6257 26.5647H90.9208C90.8146 27.1533 90.4085 27.5064 89.8258 27.5064C89.5496 27.5064 89.2785 27.4122 89.1374 27.3357L89.0019 27.6947C89.2141 27.836 89.5258 27.8948 89.8258 27.9006C90.8502 27.9006 91.4502 27.1709 91.4502 26.241C91.4502 25.4465 91.0146 24.9227 90.2146 24.9227C89.8907 24.9227 89.5963 25.017 89.4202 25.0993L89.5141 25.4524C89.6669 25.3818 89.8969 25.3171 90.1613 25.3171C90.6852 25.3171 90.968 25.682 90.968 26.1116C90.968 26.1469 90.968 26.1822 90.9619 26.2175H89.6846L89.6257 26.5647ZM92.3035 27.836L92.5624 26.4058C92.6746 25.7996 93.1219 25.3288 93.4746 25.3288C93.8341 25.3288 93.8985 25.576 93.8985 25.8173C93.8985 25.9291 93.8869 26.0351 93.863 26.1646L93.5452 27.836H94.0163L94.2869 26.3764C94.4046 25.7408 94.8285 25.3288 95.1813 25.3288C95.4996 25.3288 95.6113 25.5231 95.6113 25.8232C95.6113 25.9409 95.5935 26.0821 95.5702 26.194L95.2641 27.836H95.7408L96.0585 26.1527C96.088 25.9938 96.1058 25.7996 96.1058 25.6702C96.1058 25.1346 95.7408 24.9227 95.4113 24.9227C94.9874 24.9287 94.6224 25.1463 94.3691 25.5583C94.3458 25.1993 94.1396 24.9227 93.7041 24.9227C93.3274 24.9227 92.9685 25.1229 92.7041 25.5231H92.6919L92.7624 24.9875H92.333C92.3035 25.2229 92.2624 25.4995 92.2035 25.8173L91.8269 27.836H92.3035ZM97.7241 27.9006C98.683 27.9006 99.3069 26.9885 99.3069 26.1057C99.3069 25.5054 98.9596 24.9227 98.1891 24.9227C97.2652 24.9227 96.6119 25.7879 96.6119 26.7295C96.6119 27.371 97.0119 27.9006 97.7241 27.9006ZM97.7885 27.5122C97.3769 27.5122 97.118 27.1768 97.118 26.7119C97.118 26.0586 97.5241 25.3112 98.1358 25.3112C98.648 25.3112 98.8007 25.7761 98.8007 26.1057C98.8007 26.7707 98.3652 27.5122 97.7885 27.5122ZM101.202 27.836L101.461 26.4529C101.591 25.7467 102.085 25.3288 102.432 25.3288C102.767 25.3288 102.88 25.5407 102.88 25.8232C102.88 25.9468 102.862 26.0763 102.844 26.1881L102.532 27.836H103.015L103.332 26.1704C103.362 26.0174 103.386 25.8408 103.386 25.7113C103.386 25.117 103.003 24.9227 102.662 24.9227C102.25 24.9227 101.861 25.1463 101.608 25.5466H101.596L101.667 24.9875H101.231C101.202 25.2229 101.155 25.4995 101.096 25.8173L100.72 27.836H101.202ZM104.092 29.0012L104.321 27.7712H104.333C104.445 27.836 104.645 27.9006 104.945 27.9006C105.892 27.9006 106.611 26.9591 106.611 25.9527C106.611 25.4288 106.352 24.9227 105.74 24.9227C105.345 24.9227 104.969 25.1463 104.716 25.5231H104.704L104.78 24.9875H104.333C104.298 25.2758 104.239 25.6574 104.174 26.0036L103.604 29.0012H104.092ZM104.551 26.5676C104.692 25.7643 105.175 25.3288 105.557 25.3288C105.975 25.3288 106.105 25.6878 106.105 25.988C106.105 26.7354 105.581 27.5181 104.951 27.5181C104.716 27.5181 104.533 27.4592 104.404 27.3592L104.551 26.5676ZM108.106 27.9006C109.065 27.9006 109.689 26.9885 109.689 26.1057C109.689 25.5054 109.341 24.9227 108.57 24.9227C107.646 24.9227 106.994 25.7879 106.994 26.7295C106.994 27.371 107.394 27.9006 108.106 27.9006ZM108.17 27.5122C107.759 27.5122 107.499 27.1768 107.499 26.7119C107.499 26.0586 107.905 25.3112 108.517 25.3112C109.03 25.3112 109.182 25.7761 109.182 26.1057C109.182 26.7707 108.747 27.5122 108.17 27.5122ZM111.931 27.3357C111.784 27.4063 111.566 27.4946 111.272 27.4946C110.807 27.4946 110.566 27.1944 110.566 26.7354C110.566 26.0645 111.031 25.3347 111.772 25.3347C111.984 25.3347 112.143 25.3877 112.255 25.4407L112.396 25.0522C112.307 25.0051 112.066 24.9287 111.801 24.9287C110.777 24.9287 110.06 25.8232 110.06 26.7942C110.06 27.4005 110.419 27.8948 111.154 27.8948C111.537 27.8948 111.831 27.7947 111.978 27.7182L111.931 27.3357ZM112.996 27.836L113.255 26.4058C113.367 25.7996 113.814 25.3288 114.167 25.3288C114.526 25.3288 114.591 25.576 114.591 25.8173C114.591 25.9291 114.579 26.0351 114.556 26.1646L114.238 27.836H114.709L114.98 26.3764C115.097 25.7408 115.521 25.3288 115.874 25.3288C116.192 25.3288 116.304 25.5231 116.304 25.8232C116.304 25.9409 116.286 26.0821 116.262 26.194L115.956 27.836H116.433L116.751 26.1527C116.78 25.9938 116.798 25.7996 116.798 25.6702C116.798 25.1346 116.433 24.9227 116.104 24.9227C115.68 24.9287 115.315 25.1463 115.062 25.5583C115.039 25.1993 114.832 24.9227 114.397 24.9227C114.02 24.9227 113.661 25.1229 113.396 25.5231H113.385L113.455 24.9875H113.026C112.996 25.2229 112.955 25.4995 112.896 25.8173L112.52 27.836H112.996ZM118.416 27.9006C119.376 27.9006 120 26.9885 120 26.1057C120 25.5054 119.652 24.9227 118.881 24.9227C117.957 24.9227 117.304 25.7879 117.304 26.7295C117.304 27.371 117.705 27.9006 118.416 27.9006ZM118.481 27.5122C118.069 27.5122 117.81 27.1768 117.81 26.7119C117.81 26.0586 118.216 25.3112 118.829 25.3112C119.34 25.3112 119.494 25.7761 119.494 26.1057C119.494 26.7707 119.058 27.5122 118.481 27.5122Z" fill="#2B2C2C"/>
</g>
</g>
</g>
<defs>
<clipPath id="clip0_390_84497">
<rect width="120" height="29.44" fill="white"/>
</clipPath>
<clipPath id="clip1_390_84497">
<rect width="120" height="29.44" fill="white"/>
</clipPath>
<clipPath id="clip2_390_84497">
<rect width="120" height="29.4444" fill="white" transform="translate(0 -0.00244141)"/>
</clipPath>
</defs>
</svg>
