<svg width="140" height="140" viewBox="0 0 140 140" fill="none" xmlns="http://www.w3.org/2000/svg">
<path d="M81.6667 5.82812V41.849C81.6667 44.5068 83.8213 46.6615 86.4792 46.6615H122.5M105 23.3281L88.9096 7.23767C88.007 6.33515 86.783 5.82812 85.5066 5.82812H22.3125C19.6546 5.82812 17.5 7.98276 17.5 10.6406V129.349C17.5 132.007 19.6546 134.161 22.3125 134.161H117.688C120.345 134.161 122.5 132.007 122.5 129.349V42.8215C122.5 41.5452 121.993 40.3211 121.09 39.4186L105 23.3281Z" stroke="#153276" stroke-width="3"/>
<path d="M15.3125 56.875H78.3125C80.9704 56.875 83.125 59.0296 83.125 61.6875V91.4375C83.125 94.0954 80.9704 96.25 78.3125 96.25H15.3125V56.875Z" fill="white"/>
<path d="M24.7673 68.0707H31.1893C32.3506 68.0707 33.3993 68.2614 34.3353 68.6427C35.2886 69.0241 36.0946 69.5961 36.7533 70.3587C37.4293 71.1041 37.9493 72.0487 38.3133 73.1927C38.6773 74.3194 38.8593 75.6367 38.8593 77.1447C38.8593 78.6527 38.6773 79.9787 38.3133 81.1227C37.9493 82.2494 37.4293 83.1941 36.7533 83.9567C36.0946 84.7021 35.2886 85.2654 34.3353 85.6467C33.3993 86.0281 32.3506 86.2188 31.1893 86.2188H24.7673V68.0707ZM31.1893 83.6187C32.5413 83.6187 33.6333 83.1941 34.4653 82.3447C35.2973 81.4954 35.7133 80.2474 35.7133 78.6007V75.6887C35.7133 74.0421 35.2973 72.7941 34.4653 71.9447C33.6333 71.0954 32.5413 70.6707 31.1893 70.6707H27.7053V83.6187H31.1893ZM49.0153 86.5308C47.8366 86.5308 46.762 86.3314 45.7913 85.9327C44.838 85.5167 44.0146 84.9187 43.3213 84.1387C42.6453 83.3414 42.1166 82.3621 41.7353 81.2007C41.3713 80.0221 41.1893 78.6701 41.1893 77.1447C41.1893 75.6194 41.3713 74.2761 41.7353 73.1147C42.1166 71.9361 42.6453 70.9567 43.3213 70.1767C44.0146 69.3794 44.838 68.7814 45.7913 68.3827C46.762 67.9667 47.8366 67.7587 49.0153 67.7587C50.194 67.7587 51.26 67.9667 52.2133 68.3827C53.184 68.7814 54.0073 69.3794 54.6833 70.1767C55.3766 70.9567 55.9053 71.9361 56.2693 73.1147C56.6506 74.2761 56.8413 75.6194 56.8413 77.1447C56.8413 78.6701 56.6506 80.0221 56.2693 81.2007C55.9053 82.3621 55.3766 83.3414 54.6833 84.1387C54.0073 84.9187 53.184 85.5167 52.2133 85.9327C51.26 86.3314 50.194 86.5308 49.0153 86.5308ZM49.0153 83.9047C49.7086 83.9047 50.3413 83.7834 50.9133 83.5407C51.5026 83.2981 51.9966 82.9514 52.3953 82.5007C52.8113 82.0327 53.132 81.4694 53.3573 80.8107C53.5826 80.1521 53.6953 79.4067 53.6953 78.5748V75.7147C53.6953 74.8827 53.5826 74.1374 53.3573 73.4787C53.132 72.8201 52.8113 72.2654 52.3953 71.8147C51.9966 71.3467 51.5026 70.9914 50.9133 70.7487C50.3413 70.5061 49.7086 70.3847 49.0153 70.3847C48.3046 70.3847 47.6633 70.5061 47.0913 70.7487C46.5193 70.9914 46.0253 71.3467 45.6093 71.8147C45.2106 72.2654 44.8986 72.8201 44.6733 73.4787C44.448 74.1374 44.3353 74.8827 44.3353 75.7147V78.5748C44.3353 79.4067 44.448 80.1521 44.6733 80.8107C44.8986 81.4694 45.2106 82.0327 45.6093 82.5007C46.0253 82.9514 46.5193 83.2981 47.0913 83.5407C47.6633 83.7834 48.3046 83.9047 49.0153 83.9047ZM66.7971 86.5308C64.4224 86.5308 62.5591 85.7334 61.2071 84.1387C59.8551 82.5267 59.1791 80.1954 59.1791 77.1447C59.1791 75.6194 59.3524 74.2761 59.6991 73.1147C60.0457 71.9534 60.5484 70.9741 61.2071 70.1767C61.8657 69.3794 62.6631 68.7814 63.5991 68.3827C64.5524 67.9667 65.6184 67.7587 66.7971 67.7587C68.3744 67.7587 69.6917 68.1054 70.7491 68.7987C71.8237 69.4921 72.6644 70.5147 73.2711 71.8667L70.8011 73.2188C70.4891 72.3521 70.0037 71.6674 69.3451 71.1647C68.7037 70.6447 67.8544 70.3847 66.7971 70.3847C65.3931 70.3847 64.2924 70.8614 63.4951 71.8147C62.6977 72.7681 62.2991 74.0854 62.2991 75.7667V78.5227C62.2991 80.2041 62.6977 81.5214 63.4951 82.4747C64.2924 83.4281 65.3931 83.9047 66.7971 83.9047C67.8891 83.9047 68.7731 83.6274 69.4491 83.0727C70.1424 82.5007 70.6537 81.7727 70.9831 80.8887L73.3491 82.3187C72.7424 83.6361 71.8931 84.6674 70.8011 85.4127C69.7091 86.1581 68.3744 86.5308 66.7971 86.5308Z" fill="#153276"/>
</svg>
