<svg width="146" height="57" viewBox="0 0 146 57" fill="none" xmlns="http://www.w3.org/2000/svg">
<path d="M33.8599 14.8995C27.6504 6.58981 21.3024 9.32533 18.9046 11.7318C19.322 3.9529 11.461 0.81978 7.47831 0.225586C10.6163 1.58332 13.1902 4.25144 14.0849 5.41579C13.5653 5.23529 12.2285 5.01955 11.6251 4.93424C13.6477 6.72387 15.6959 10.2056 16.4673 11.7228C7.6465 5.76928 1.81377 8.97863 0 11.3275C1.91044 10.8687 3.43494 11.0959 3.95838 11.2669C5.74768 10.4274 8.16541 10.3021 9.15061 10.3443C7.83331 10.7511 7.03213 11.5592 6.7962 11.9124C8.59177 12.0507 12.6322 12.954 14.428 13.3885C8.35039 12.3593 4.98913 17.2405 4.06821 19.8098C4.65597 19.0501 5.81167 18.7607 6.31605 18.7109C6.96663 17.6747 8.70337 16.1982 9.49041 15.5895C8.67293 16.6293 8.27861 17.5732 8.18364 17.9152C9.49287 16.9041 11.5281 16.5204 12.3821 16.4549C13.1457 15.1951 14.1121 14.97 14.4998 15.0149C14.0754 15.6039 13.7965 16.2832 13.7101 16.5492C16.4973 16.4352 18.2574 17.8951 18.789 18.6393C18.9021 17.9586 19.0194 17.1681 19.0639 16.858C19.5466 17.8403 19.7114 19.1866 19.7335 19.737C20.5195 20.6637 21.4661 22.4683 21.8411 23.2547C22.1632 22.4762 22.2116 21.3567 22.1955 20.8943C22.9484 21.8757 22.8898 24.3503 22.7664 25.4648L23.74 28.4909C25.6209 22.7692 22.8039 17.6826 21.1603 15.8545C21.9796 16.2694 23.1475 17.3885 23.6291 17.8963C25.7252 18.5392 27.845 19.8247 28.6429 20.387C28.3908 19.3948 27.7422 17.9921 27.4495 17.4148C28.8942 18.3666 30.3628 20.4319 30.9165 21.3456L33.9753 23.989C32.3727 15.2313 23.8041 13.6598 19.7201 13.9688C19.9731 13.8602 21.8386 13.5157 22.7396 13.3571C22.649 13.0249 21.8995 12.2571 21.5361 11.9148C22.8633 12.1959 23.8778 12.9927 24.2191 13.356C25.1488 13.1935 27.7434 13.569 28.9245 13.777C28.4247 13.144 27.1938 11.9897 26.6408 11.4917C29.0107 12.3008 30.505 13.7123 30.9559 14.3169L33.8599 14.8995Z" fill="#153276"/>
<path d="M17.5172 19.5566C16.4791 18.4198 14.9139 18.1193 14.261 18.1111C9.12025 27.5433 10.0991 43.2962 21.1406 51.3074C37.7155 63.3334 58.3782 53.4143 63.2996 38.1514L39.6007 24.9954L18.1786 36.1179C18.4724 37.0734 19.3048 38.8373 19.9903 39.7438L39.6007 29.6257L57.2031 39.7193C54.5126 44.5413 50.8788 47.5306 47.1902 49.3356C41.9021 51.9233 35.8078 51.775 29.8563 49.9354C19.0492 46.5949 12.0335 32.7126 17.5172 19.5566Z" fill="#153276"/>
<path d="M25.4499 46.0646V34.354L30.077 32.1491V48.294C28.5346 47.8285 26.4047 46.7505 25.4499 46.0646Z" fill="#153276"/>
<path d="M63.6913 36.5833L59.4069 34.2314C60.68 25.6569 57.84 16.988 50.2015 11.0309C41.8579 4.52398 32.207 7.06208 28.8774 8.48302C28.8774 8.48302 27.0167 8.04203 25.3274 8.04203C23.6382 8.04203 22.0958 8.48302 22.0958 8.48302C30.4198 1.50084 45.9661 0.545243 56.8363 11.3003C65.5324 19.9044 65.0297 31.6917 63.6913 36.5833Z" fill="#153276"/>
<path d="M35.1449 36.5589H39.062V40.4788H35.1449V36.5589Z" fill="#153276"/>
<path d="M40.2372 36.5589H44.1544V40.4788H40.2372V36.5589Z" fill="#153276"/>
<path d="M35.1449 41.6547H39.062V45.5746H35.1449V41.6547Z" fill="#153276"/>
<path d="M40.2372 41.6547H44.1544V45.5746H40.2372V41.6547Z" fill="#153276"/>
<path d="M52.8535 30.0374L62.0397 0L77.2041 25.9546L65.8307 40.8275L56.9362 35.4324L52.8535 30.0374Z" fill="white"/>
<mask id="path-3-outside-1_402_3490" maskUnits="userSpaceOnUse" x="39.8125" y="3.58789" width="78" height="27" fill="black">
<rect fill="white" x="39.8125" y="3.58789" width="78" height="27"/>
<path d="M48.6314 27.872C47.2539 27.872 46.1604 27.5793 45.3511 26.9938C44.5418 26.4084 43.9563 25.5818 43.5947 24.5142C43.2503 23.4294 43.0781 22.1551 43.0781 20.6915V13.6659C43.0781 12.1678 43.2503 10.8763 43.5947 9.79151C43.9391 8.70668 44.5418 7.88014 45.4028 7.3119C46.281 6.72643 47.4863 6.4337 49.0189 6.4337C50.4481 6.4337 51.5846 6.67478 52.4283 7.15692C53.2721 7.63907 53.8748 8.33646 54.2364 9.24909C54.6152 10.1445 54.8046 11.238 54.8046 12.5294V13.6142H51.1627V12.4261C51.1627 11.7545 51.111 11.1777 51.0077 10.6955C50.9216 10.2134 50.7322 9.85178 50.4395 9.6107C50.164 9.35241 49.7077 9.22327 49.0705 9.22327C48.399 9.22327 47.9082 9.38685 47.5983 9.71402C47.3055 10.0412 47.1161 10.4717 47.03 11.0055C46.9611 11.5393 46.9267 12.1248 46.9267 12.7619V21.518C46.9267 22.2412 46.987 22.8697 47.1075 23.4035C47.228 23.9374 47.4519 24.3506 47.7791 24.6434C48.1062 24.9189 48.5712 25.0566 49.1738 25.0566C49.7938 25.0566 50.2673 24.9016 50.5945 24.5917C50.9216 24.2817 51.1455 23.8513 51.266 23.3002C51.4038 22.7492 51.4727 22.0949 51.4727 21.3372V19.3742H49.2255V16.9721H54.908V27.5879H52.4542L52.17 25.5215C51.8945 26.2103 51.4727 26.7786 50.9044 27.2263C50.3534 27.6568 49.5957 27.872 48.6314 27.872ZM56.783 27.5879V6.66617H60.6057V24.9533H65.6683V27.5879H56.783ZM72.0515 27.872C70.5707 27.872 69.3911 27.5965 68.5129 27.0455C67.6347 26.4945 67.0062 25.7024 66.6274 24.6692C66.2486 23.636 66.0591 22.4134 66.0591 21.0014V13.1751C66.0591 11.7631 66.2486 10.5578 66.6274 9.55905C67.0062 8.54309 67.6347 7.76822 68.5129 7.23441C69.3911 6.7006 70.5707 6.4337 72.0515 6.4337C73.5669 6.4337 74.755 6.7006 75.616 7.23441C76.4942 7.76822 77.1227 8.54309 77.5015 9.55905C77.8976 10.5578 78.0956 11.7631 78.0956 13.1751V21.0273C78.0956 22.422 77.8976 23.636 77.5015 24.6692C77.1227 25.6851 76.4942 26.4772 75.616 27.0455C74.755 27.5965 73.5669 27.872 72.0515 27.872ZM72.0515 25.0566C72.6887 25.0566 73.1536 24.9189 73.4463 24.6434C73.7563 24.3678 73.9629 23.989 74.0662 23.5069C74.1695 23.0247 74.2212 22.4995 74.2212 21.9313V12.297C74.2212 11.7115 74.1695 11.1863 74.0662 10.7214C73.9629 10.2564 73.7563 9.89483 73.4463 9.63653C73.1536 9.36102 72.6887 9.22327 72.0515 9.22327C71.4489 9.22327 70.9925 9.36102 70.6826 9.63653C70.3726 9.89483 70.166 10.2564 70.0627 10.7214C69.9594 11.1863 69.9077 11.7115 69.9077 12.297V21.9313C69.9077 22.4995 69.9508 23.0247 70.0369 23.5069C70.1402 23.989 70.3468 24.3678 70.6568 24.6434C70.9667 24.9189 71.4316 25.0566 72.0515 25.0566ZM79.8901 27.5879V6.66617H85.0301C85.96 6.66617 86.7951 6.75226 87.5356 6.92446C88.2932 7.09665 88.939 7.38939 89.4728 7.80265C90.0238 8.1987 90.4457 8.74112 90.7384 9.4299C91.0311 10.1187 91.1775 10.9883 91.1775 12.0387C91.1775 12.8824 91.057 13.6056 90.8159 14.2083C90.5921 14.811 90.2563 15.2931 89.8086 15.6548C89.3609 15.9991 88.8012 16.2316 88.1297 16.3521C88.9562 16.4899 89.6364 16.7826 90.1702 17.2303C90.7212 17.6608 91.1259 18.2291 91.3842 18.9351C91.6597 19.6411 91.7974 20.4934 91.7974 21.4922C91.7974 22.4909 91.6683 23.3777 91.41 24.1526C91.1689 24.9103 90.7987 25.5474 90.2993 26.064C89.8172 26.5633 89.2059 26.9422 88.4654 27.2005C87.7422 27.4587 86.8899 27.5879 85.9083 27.5879H79.8901ZM83.7129 24.9016H85.1593C86.313 24.9016 87.0965 24.6261 87.5098 24.0751C87.923 23.5069 88.1297 22.6373 88.1297 21.4663C88.1297 20.6226 88.0263 19.9424 87.8197 19.4258C87.6303 18.892 87.3031 18.496 86.8382 18.2377C86.3905 17.9794 85.7878 17.8502 85.0301 17.8502H83.7129V24.9016ZM83.7129 15.2157H85.0043C85.762 15.2157 86.3474 15.1037 86.7607 14.8799C87.174 14.656 87.4581 14.3116 87.6131 13.8467C87.7853 13.3818 87.8714 12.7963 87.8714 12.0903C87.8714 11.3499 87.7422 10.7816 87.4839 10.3856C87.2429 9.97231 86.8726 9.6968 86.3733 9.55905C85.8739 9.40407 85.2368 9.32658 84.4619 9.32658H83.7129V15.2157ZM92.1251 27.5879L96.3095 6.66617H100.391L104.575 27.5879H101.036L100.21 22.7578H96.5678L95.7154 27.5879H92.1251ZM96.9552 20.3299H99.7964L98.3758 11.5479L96.9552 20.3299ZM105.646 27.5879V6.66617H109.468V24.9533H114.531V27.5879H105.646Z"/>
</mask>
<path d="M48.6314 27.872C47.2539 27.872 46.1604 27.5793 45.3511 26.9938C44.5418 26.4084 43.9563 25.5818 43.5947 24.5142C43.2503 23.4294 43.0781 22.1551 43.0781 20.6915V13.6659C43.0781 12.1678 43.2503 10.8763 43.5947 9.79151C43.9391 8.70668 44.5418 7.88014 45.4028 7.3119C46.281 6.72643 47.4863 6.4337 49.0189 6.4337C50.4481 6.4337 51.5846 6.67478 52.4283 7.15692C53.2721 7.63907 53.8748 8.33646 54.2364 9.24909C54.6152 10.1445 54.8046 11.238 54.8046 12.5294V13.6142H51.1627V12.4261C51.1627 11.7545 51.111 11.1777 51.0077 10.6955C50.9216 10.2134 50.7322 9.85178 50.4395 9.6107C50.164 9.35241 49.7077 9.22327 49.0705 9.22327C48.399 9.22327 47.9082 9.38685 47.5983 9.71402C47.3055 10.0412 47.1161 10.4717 47.03 11.0055C46.9611 11.5393 46.9267 12.1248 46.9267 12.7619V21.518C46.9267 22.2412 46.987 22.8697 47.1075 23.4035C47.228 23.9374 47.4519 24.3506 47.7791 24.6434C48.1062 24.9189 48.5712 25.0566 49.1738 25.0566C49.7938 25.0566 50.2673 24.9016 50.5945 24.5917C50.9216 24.2817 51.1455 23.8513 51.266 23.3002C51.4038 22.7492 51.4727 22.0949 51.4727 21.3372V19.3742H49.2255V16.9721H54.908V27.5879H52.4542L52.17 25.5215C51.8945 26.2103 51.4727 26.7786 50.9044 27.2263C50.3534 27.6568 49.5957 27.872 48.6314 27.872ZM56.783 27.5879V6.66617H60.6057V24.9533H65.6683V27.5879H56.783ZM72.0515 27.872C70.5707 27.872 69.3911 27.5965 68.5129 27.0455C67.6347 26.4945 67.0062 25.7024 66.6274 24.6692C66.2486 23.636 66.0591 22.4134 66.0591 21.0014V13.1751C66.0591 11.7631 66.2486 10.5578 66.6274 9.55905C67.0062 8.54309 67.6347 7.76822 68.5129 7.23441C69.3911 6.7006 70.5707 6.4337 72.0515 6.4337C73.5669 6.4337 74.755 6.7006 75.616 7.23441C76.4942 7.76822 77.1227 8.54309 77.5015 9.55905C77.8976 10.5578 78.0956 11.7631 78.0956 13.1751V21.0273C78.0956 22.422 77.8976 23.636 77.5015 24.6692C77.1227 25.6851 76.4942 26.4772 75.616 27.0455C74.755 27.5965 73.5669 27.872 72.0515 27.872ZM72.0515 25.0566C72.6887 25.0566 73.1536 24.9189 73.4463 24.6434C73.7563 24.3678 73.9629 23.989 74.0662 23.5069C74.1695 23.0247 74.2212 22.4995 74.2212 21.9313V12.297C74.2212 11.7115 74.1695 11.1863 74.0662 10.7214C73.9629 10.2564 73.7563 9.89483 73.4463 9.63653C73.1536 9.36102 72.6887 9.22327 72.0515 9.22327C71.4489 9.22327 70.9925 9.36102 70.6826 9.63653C70.3726 9.89483 70.166 10.2564 70.0627 10.7214C69.9594 11.1863 69.9077 11.7115 69.9077 12.297V21.9313C69.9077 22.4995 69.9508 23.0247 70.0369 23.5069C70.1402 23.989 70.3468 24.3678 70.6568 24.6434C70.9667 24.9189 71.4316 25.0566 72.0515 25.0566ZM79.8901 27.5879V6.66617H85.0301C85.96 6.66617 86.7951 6.75226 87.5356 6.92446C88.2932 7.09665 88.939 7.38939 89.4728 7.80265C90.0238 8.1987 90.4457 8.74112 90.7384 9.4299C91.0311 10.1187 91.1775 10.9883 91.1775 12.0387C91.1775 12.8824 91.057 13.6056 90.8159 14.2083C90.5921 14.811 90.2563 15.2931 89.8086 15.6548C89.3609 15.9991 88.8012 16.2316 88.1297 16.3521C88.9562 16.4899 89.6364 16.7826 90.1702 17.2303C90.7212 17.6608 91.1259 18.2291 91.3842 18.9351C91.6597 19.6411 91.7974 20.4934 91.7974 21.4922C91.7974 22.4909 91.6683 23.3777 91.41 24.1526C91.1689 24.9103 90.7987 25.5474 90.2993 26.064C89.8172 26.5633 89.2059 26.9422 88.4654 27.2005C87.7422 27.4587 86.8899 27.5879 85.9083 27.5879H79.8901ZM83.7129 24.9016H85.1593C86.313 24.9016 87.0965 24.6261 87.5098 24.0751C87.923 23.5069 88.1297 22.6373 88.1297 21.4663C88.1297 20.6226 88.0263 19.9424 87.8197 19.4258C87.6303 18.892 87.3031 18.496 86.8382 18.2377C86.3905 17.9794 85.7878 17.8502 85.0301 17.8502H83.7129V24.9016ZM83.7129 15.2157H85.0043C85.762 15.2157 86.3474 15.1037 86.7607 14.8799C87.174 14.656 87.4581 14.3116 87.6131 13.8467C87.7853 13.3818 87.8714 12.7963 87.8714 12.0903C87.8714 11.3499 87.7422 10.7816 87.4839 10.3856C87.2429 9.97231 86.8726 9.6968 86.3733 9.55905C85.8739 9.40407 85.2368 9.32658 84.4619 9.32658H83.7129V15.2157ZM92.1251 27.5879L96.3095 6.66617H100.391L104.575 27.5879H101.036L100.21 22.7578H96.5678L95.7154 27.5879H92.1251ZM96.9552 20.3299H99.7964L98.3758 11.5479L96.9552 20.3299ZM105.646 27.5879V6.66617H109.468V24.9533H114.531V27.5879H105.646Z" fill="#153276"/>
<path d="M45.3511 26.9938L46.7274 25.0913L45.3511 26.9938ZM43.5947 24.5142L41.3567 25.2247L41.3635 25.2462L41.3707 25.2675L43.5947 24.5142ZM43.5947 9.79151L45.8328 10.502V10.502L43.5947 9.79151ZM45.4028 7.3119L46.6962 9.27168L46.7053 9.26565L45.4028 7.3119ZM52.4283 7.15692L51.2633 9.19566H51.2633L52.4283 7.15692ZM54.2364 9.24909L52.0534 10.1141L52.0633 10.1392L52.0738 10.164L54.2364 9.24909ZM54.8046 13.6142V15.9624H57.1528V13.6142H54.8046ZM51.1627 13.6142H48.8146V15.9624H51.1627V13.6142ZM51.0077 10.6955L48.6962 11.1083L48.7033 11.1481L48.7117 11.1875L51.0077 10.6955ZM50.4395 9.6107L48.8335 11.3237L48.8885 11.3753L48.9468 11.4233L50.4395 9.6107ZM47.5983 9.71402L45.8936 8.09912L45.8706 8.12339L45.8483 8.14831L47.5983 9.71402ZM47.03 11.0055L44.7119 10.6316L44.706 10.6682L44.7012 10.705L47.03 11.0055ZM47.1075 23.4035L44.8171 23.9207V23.9207L47.1075 23.4035ZM47.7791 24.6434L46.2134 26.3933L46.2396 26.4168L46.2666 26.4395L47.7791 24.6434ZM50.5945 24.5917L48.9796 22.8871L48.9796 22.8871L50.5945 24.5917ZM51.266 23.3002L48.988 22.7307L48.9796 22.7645L48.9721 22.7984L51.266 23.3002ZM51.4727 19.3742H53.8208V17.0261H51.4727V19.3742ZM49.2255 19.3742H46.8774V21.7223H49.2255V19.3742ZM49.2255 16.9721V14.6239H46.8774V16.9721H49.2255ZM54.908 16.9721H57.2561V14.6239H54.908V16.9721ZM54.908 27.5879V29.936H57.2561V27.5879H54.908ZM52.4542 27.5879L50.1279 27.9077L50.4068 29.936H52.4542V27.5879ZM52.17 25.5215L54.4963 25.2017L53.287 16.4067L49.9899 24.6495L52.17 25.5215ZM50.9044 27.2263L52.35 29.0767L52.3576 29.0707L50.9044 27.2263ZM48.6314 27.872V25.5239C47.565 25.5239 47.0098 25.2956 46.7274 25.0913L45.3511 26.9938L43.9748 28.8963C45.311 29.8629 46.9427 30.2201 48.6314 30.2201V27.872ZM45.3511 26.9938L46.7274 25.0913C46.3628 24.8276 46.0448 24.4285 45.8187 23.7609L43.5947 24.5142L41.3707 25.2675C41.8678 26.7351 42.7207 27.9891 43.9748 28.8963L45.3511 26.9938ZM43.5947 24.5142L45.8328 23.8037C45.5787 23.0035 45.4263 21.9793 45.4263 20.6915H43.0781H40.73C40.73 22.331 40.9219 23.8552 41.3567 25.2247L43.5947 24.5142ZM43.0781 20.6915H45.4263V13.6659H43.0781H40.73V20.6915H43.0781ZM43.0781 13.6659H45.4263C45.4263 12.3373 45.5802 11.2976 45.8328 10.502L43.5947 9.79151L41.3567 9.08102C40.9205 10.4551 40.73 11.9983 40.73 13.6659H43.0781ZM43.5947 9.79151L45.8328 10.502C46.0324 9.87308 46.3308 9.51285 46.6962 9.27166L45.4028 7.3119L44.1093 5.35214C42.7528 6.24744 41.8458 7.54028 41.3567 9.08102L43.5947 9.79151ZM45.4028 7.3119L46.7053 9.26565C47.06 9.02914 47.7508 8.78182 49.0189 8.78182V6.4337V4.08558C47.2218 4.08558 45.5019 4.42373 44.1003 5.35815L45.4028 7.3119ZM49.0189 6.4337V8.78182C50.2187 8.78182 50.903 8.98973 51.2633 9.19566L52.4283 7.15692L53.5933 5.11819C52.2662 4.35982 50.6775 4.08558 49.0189 4.08558V6.4337ZM52.4283 7.15692L51.2633 9.19566C51.6393 9.4105 51.8859 9.69139 52.0534 10.1141L54.2364 9.24909L56.4194 8.38413C55.8636 6.98153 54.9049 5.86764 53.5933 5.11819L52.4283 7.15692ZM54.2364 9.24909L52.0738 10.164C52.2971 10.6918 52.4565 11.4545 52.4565 12.5294H54.8046H57.1528C57.1528 11.0214 56.9333 9.59726 56.3989 8.33418L54.2364 9.24909ZM54.8046 12.5294H52.4565V13.6142H54.8046H57.1528V12.5294H54.8046ZM54.8046 13.6142V11.2661H51.1627V13.6142V15.9624H54.8046V13.6142ZM51.1627 13.6142H53.5108V12.4261H51.1627H48.8146V13.6142H51.1627ZM51.1627 12.4261H53.5108C53.5108 11.6442 53.4516 10.8935 53.3037 10.2035L51.0077 10.6955L48.7117 11.1875C48.7705 11.4618 48.8146 11.8649 48.8146 12.4261H51.1627ZM51.0077 10.6955L53.3193 10.2828C53.1643 9.4149 52.7682 8.48661 51.9322 7.79812L50.4395 9.6107L48.9468 11.4233C48.833 11.3296 48.7606 11.2278 48.7211 11.1523C48.6848 11.0831 48.6871 11.0577 48.6962 11.1083L51.0077 10.6955ZM50.4395 9.6107L52.0455 7.89767C51.1192 7.02925 49.9223 6.87515 49.0705 6.87515V9.22327V11.5714C49.2419 11.5714 49.2884 11.59 49.2512 11.5795C49.2084 11.5674 49.0308 11.5087 48.8335 11.3237L50.4395 9.6107ZM49.0705 9.22327V6.87515C48.0699 6.87515 46.8253 7.11566 45.8936 8.09912L47.5983 9.71402L49.3029 11.3289C49.1555 11.4845 49.0076 11.5515 48.9413 11.5736C48.888 11.5913 48.916 11.5714 49.0705 11.5714V9.22327ZM47.5983 9.71402L45.8483 8.14831C45.1934 8.88029 44.8529 9.75731 44.7119 10.6316L47.03 11.0055L49.3482 11.3794C49.3641 11.2807 49.3825 11.2357 49.3859 11.2279C49.3881 11.223 49.3781 11.2463 49.3482 11.2797L47.5983 9.71402ZM47.03 11.0055L44.7012 10.705C44.6174 11.3546 44.5786 12.042 44.5786 12.7619H46.9267H49.2748C49.2748 12.2076 49.3049 11.724 49.3588 11.306L47.03 11.0055ZM46.9267 12.7619H44.5786V21.518H46.9267H49.2748V12.7619H46.9267ZM46.9267 21.518H44.5786C44.5786 22.3632 44.6482 23.173 44.8171 23.9207L47.1075 23.4035L49.398 22.8863C49.3257 22.5664 49.2748 22.1192 49.2748 21.518H46.9267ZM47.1075 23.4035L44.8171 23.9207C45.0184 24.8122 45.4411 25.7023 46.2134 26.3933L47.7791 24.6434L49.3448 22.8934C49.369 22.9151 49.3889 22.9369 49.4041 22.9565C49.4192 22.9758 49.4275 22.9899 49.4305 22.9955C49.4362 23.006 49.4184 22.977 49.398 22.8863L47.1075 23.4035ZM47.7791 24.6434L46.2666 26.4395C47.1614 27.193 48.2413 27.4047 49.1738 27.4047V25.0566V22.7085C49.046 22.7085 49.0111 22.6933 49.0402 22.7019C49.0765 22.7127 49.1767 22.7505 49.2916 22.8473L47.7791 24.6434ZM49.1738 25.0566V27.4047C50.166 27.4047 51.3044 27.1537 52.2094 26.2963L50.5945 24.5917L48.9796 22.8871C49.0938 22.7789 49.2053 22.7278 49.2636 22.7087C49.312 22.6929 49.2937 22.7085 49.1738 22.7085V25.0566ZM50.5945 24.5917L52.2094 26.2963C52.9555 25.5895 53.3641 24.6969 53.5599 23.802L51.266 23.3002L48.9721 22.7984C48.9491 22.9036 48.9268 22.9484 48.9244 22.9531C48.9234 22.955 48.927 22.9479 48.9367 22.9348C48.9466 22.9215 48.9609 22.9048 48.9796 22.8871L50.5945 24.5917ZM51.266 23.3002L53.544 23.8697C53.7409 23.0824 53.8208 22.2273 53.8208 21.3372H51.4727H49.1245C49.1245 21.9624 49.0667 22.416 48.988 22.7307L51.266 23.3002ZM51.4727 21.3372H53.8208V19.3742H51.4727H49.1245V21.3372H51.4727ZM51.4727 19.3742V17.0261H49.2255V19.3742V21.7223H51.4727V19.3742ZM49.2255 19.3742H51.5736V16.9721H49.2255H46.8774V19.3742H49.2255ZM49.2255 16.9721V19.3202H54.908V16.9721V14.6239H49.2255V16.9721ZM54.908 16.9721H52.5598V27.5879H54.908H57.2561V16.9721H54.908ZM54.908 27.5879V25.2398H52.4542V27.5879V29.936H54.908V27.5879ZM52.4542 27.5879L54.7804 27.268L54.4963 25.2017L52.17 25.5215L49.8438 25.8414L50.1279 27.9077L52.4542 27.5879ZM52.17 25.5215L49.9899 24.6495C49.8632 24.9662 49.6876 25.1956 49.4512 25.3819L50.9044 27.2263L52.3576 29.0707C53.2577 28.3615 53.9259 27.4545 54.3502 26.3936L52.17 25.5215ZM50.9044 27.2263L49.4588 25.3759C49.4522 25.3811 49.2676 25.5239 48.6314 25.5239V27.872V30.2201C49.9238 30.2201 51.2546 29.9325 52.35 29.0767L50.9044 27.2263ZM56.783 27.5879H54.4349V29.936H56.783V27.5879ZM56.783 6.66617V4.31805H54.4349V6.66617H56.783ZM60.6057 6.66617H62.9538V4.31805H60.6057V6.66617ZM60.6057 24.9533H58.2576V27.3014H60.6057V24.9533ZM65.6683 24.9533H68.0164V22.6052H65.6683V24.9533ZM65.6683 27.5879V29.936H68.0164V27.5879H65.6683ZM56.783 27.5879H59.1311V6.66617H56.783H54.4349V27.5879H56.783ZM56.783 6.66617V9.01428H60.6057V6.66617V4.31805H56.783V6.66617ZM60.6057 6.66617H58.2576V24.9533H60.6057H62.9538V6.66617H60.6057ZM60.6057 24.9533V27.3014H65.6683V24.9533V22.6052H60.6057V24.9533ZM65.6683 24.9533H63.3202V27.5879H65.6683H68.0164V24.9533H65.6683ZM65.6683 27.5879V25.2398H56.783V27.5879V29.936H65.6683V27.5879ZM68.5129 27.0455L69.7609 25.0565V25.0565L68.5129 27.0455ZM66.6274 9.55905L68.8229 10.3918L68.8275 10.3794L66.6274 9.55905ZM68.5129 7.23441L69.7326 9.24093V9.24093L68.5129 7.23441ZM75.616 7.23441L74.3787 9.23008L74.3875 9.23554L74.3963 9.24093L75.616 7.23441ZM77.5015 9.55905L75.3014 10.3794L75.3098 10.4021L75.3188 10.4246L77.5015 9.55905ZM77.5015 24.6692L75.309 23.8287L75.3051 23.8387L75.3014 23.8488L77.5015 24.6692ZM75.616 27.0455L76.8818 29.0233L76.8916 29.0169L75.616 27.0455ZM73.4463 24.6434L71.8863 22.8883L71.8613 22.9105L71.837 22.9335L73.4463 24.6434ZM74.0662 23.5069L76.3622 23.9989V23.9989L74.0662 23.5069ZM74.0662 10.7214L76.3584 10.212V10.212L74.0662 10.7214ZM73.4463 9.63653L71.837 11.3464L71.8886 11.395L71.9431 11.4404L73.4463 9.63653ZM70.6826 9.63653L72.1858 11.4404L72.2146 11.4164L72.2426 11.3915L70.6826 9.63653ZM70.0627 10.7214L67.7705 10.212L67.7705 10.212L70.0627 10.7214ZM70.0368 23.5069L67.7253 23.9196L67.7324 23.9594L67.7409 23.9989L70.0368 23.5069ZM70.6568 24.6434L72.2168 22.8883H72.2168L70.6568 24.6434ZM72.0515 27.872V25.5239C70.8324 25.5239 70.1376 25.2928 69.7609 25.0565L68.5129 27.0455L67.2649 29.0345C68.6447 29.9002 70.3089 30.2201 72.0515 30.2201V27.872ZM68.5129 27.0455L69.7609 25.0565C69.3518 24.7997 69.0434 24.4374 68.832 23.8608L66.6274 24.6692L64.4228 25.4775C64.969 26.9673 65.9177 28.1892 67.2649 29.0345L68.5129 27.0455ZM66.6274 24.6692L68.832 23.8608C68.5707 23.1482 68.4073 22.212 68.4073 21.0014H66.0591H63.711C63.711 22.6149 63.9264 24.1238 64.4228 25.4775L66.6274 24.6692ZM66.0591 21.0014H68.4073V13.1751H66.0591H63.711V21.0014H66.0591ZM66.0591 13.1751H68.4073C68.4073 11.9612 68.5716 11.0541 68.8229 10.3918L66.6274 9.55905L64.4319 8.72628C63.9255 10.0614 63.711 11.5651 63.711 13.1751H66.0591ZM66.6274 9.55905L68.8275 10.3794C69.0329 9.82854 69.3311 9.48495 69.7326 9.24093L68.5129 7.23441L67.2933 5.22789C65.9383 6.05149 64.9795 7.25765 64.4272 8.73866L66.6274 9.55905ZM68.5129 7.23441L69.7326 9.24093C70.1155 9.00819 70.8217 8.78182 72.0515 8.78182V6.4337V4.08558C70.3196 4.08558 68.6668 4.39302 67.2933 5.22789L68.5129 7.23441ZM72.0515 6.4337V8.78182C73.3318 8.78182 74.0301 9.01395 74.3787 9.23008L75.616 7.23441L76.8533 5.23874C75.4799 4.38725 73.8019 4.08558 72.0515 4.08558V6.4337ZM75.616 7.23441L74.3963 9.24093C74.7978 9.48495 75.096 9.82854 75.3014 10.3794L77.5015 9.55905L79.7017 8.73866C79.1494 7.25765 78.1906 6.05149 76.8356 5.22789L75.616 7.23441ZM77.5015 9.55905L75.3188 10.4246C75.5772 11.0762 75.7475 11.9713 75.7475 13.1751H78.0956H80.4437C80.4437 11.555 80.218 10.0393 79.6843 8.69347L77.5015 9.55905ZM78.0956 13.1751H75.7475V21.0273H78.0956H80.4437V13.1751H78.0956ZM78.0956 21.0273H75.7475C75.7475 22.2065 75.5793 23.1236 75.309 23.8287L77.5015 24.6692L79.6941 25.5097C80.2159 24.1484 80.4437 22.6375 80.4437 21.0273H78.0956ZM77.5015 24.6692L75.3014 23.8488C75.092 24.4102 74.7783 24.7907 74.3404 25.0741L75.616 27.0455L76.8916 29.0169C78.21 28.1638 79.1533 26.9601 79.7017 25.4896L77.5015 24.6692ZM75.616 27.0455L74.3502 25.0677C74.0079 25.2868 73.3214 25.5239 72.0515 25.5239V27.872V30.2201C73.8123 30.2201 75.5021 29.9062 76.8817 29.0232L75.616 27.0455ZM72.0515 25.0566V27.4047C72.9518 27.4047 74.1329 27.2217 75.0556 26.3533L73.4463 24.6434L71.837 22.9335C72.0077 22.7728 72.1632 22.7161 72.211 22.7019C72.2507 22.6902 72.2107 22.7085 72.0515 22.7085V25.0566ZM73.4463 24.6434L75.0063 26.3984C75.7563 25.7317 76.1746 24.8746 76.3622 23.9989L74.0662 23.5069L71.7702 23.0149C71.7593 23.0658 71.7533 23.0631 71.7724 23.0282C71.7933 22.9898 71.8309 22.9376 71.8863 22.8883L73.4463 24.6434ZM74.0662 23.5069L76.3622 23.9989C76.505 23.3327 76.5693 22.6404 76.5693 21.9313H74.2212H71.8731C71.8731 22.3586 71.8341 22.7167 71.7702 23.0149L74.0662 23.5069ZM74.2212 21.9313H76.5693V12.297H74.2212H71.8731V21.9313H74.2212ZM74.2212 12.297H76.5693C76.5693 11.5775 76.5062 10.8771 76.3584 10.212L74.0662 10.7214L71.774 11.2307C71.8329 11.4955 71.8731 11.8454 71.8731 12.297H74.2212ZM74.0662 10.7214L76.3584 10.212C76.1636 9.33507 75.7271 8.48063 74.9495 7.83266L73.4463 9.63653L71.9431 11.4404C71.8759 11.3845 71.8261 11.3209 71.795 11.2665C71.766 11.2157 71.7663 11.1959 71.774 11.2307L74.0662 10.7214ZM73.4463 9.63653L75.0556 7.92663C74.1329 7.05816 72.9518 6.87515 72.0515 6.87515V9.22327V11.5714C72.2107 11.5714 72.2507 11.5897 72.211 11.578C72.1632 11.5638 72.0077 11.5071 71.837 11.3464L73.4463 9.63653ZM72.0515 9.22327V6.87515C71.1301 6.87515 70.0216 7.0824 69.1226 7.88153L70.6826 9.63653L72.2426 11.3915C72.1076 11.5115 71.9852 11.5596 71.9359 11.5745C71.8948 11.5869 71.9223 11.5714 72.0515 11.5714V9.22327ZM70.6826 9.63653L69.1794 7.83266C68.4018 8.48063 67.9653 9.33507 67.7705 10.212L70.0627 10.7214L72.3549 11.2307C72.3626 11.1959 72.3629 11.2157 72.3339 11.2665C72.3028 11.3209 72.253 11.3845 72.1858 11.4404L70.6826 9.63653ZM70.0627 10.7214L67.7705 10.212C67.6227 10.8771 67.5596 11.5775 67.5596 12.297H69.9077H72.2558C72.2558 11.8454 72.296 11.4955 72.3549 11.2307L70.0627 10.7214ZM69.9077 12.297H67.5596V21.9313H69.9077H72.2558V12.297H69.9077ZM69.9077 21.9313H67.5596C67.5596 22.6165 67.6114 23.2817 67.7253 23.9196L70.0368 23.5069L72.3484 23.0941C72.2901 22.7678 72.2558 22.3825 72.2558 21.9313H69.9077ZM70.0368 23.5069L67.7409 23.9989C67.9285 24.8746 68.3467 25.7317 69.0968 26.3984L70.6568 24.6434L72.2168 22.8883C72.2721 22.9376 72.3098 22.9898 72.3307 23.0282C72.3498 23.0631 72.3438 23.0658 72.3328 23.0149L70.0368 23.5069ZM70.6568 24.6434L69.0967 26.3984C70.0061 27.2067 71.1334 27.4047 72.0515 27.4047V25.0566V22.7085C71.908 22.7085 71.8704 22.6917 71.905 22.7019C71.9474 22.7145 72.0741 22.7615 72.2168 22.8883L70.6568 24.6434ZM79.8901 27.5879H77.542V29.936H79.8901V27.5879ZM79.8901 6.66617V4.31805H77.542V6.66617H79.8901ZM87.5356 6.92446L87.0037 9.21157L87.0152 9.21419L87.5356 6.92446ZM89.4728 7.80265L88.0353 9.65937L88.0684 9.68496L88.1023 9.70936L89.4728 7.80265ZM90.7384 9.4299L92.8995 8.51146V8.51146L90.7384 9.4299ZM90.8159 14.2083L88.6357 13.3363L88.6249 13.3634L88.6147 13.3907L90.8159 14.2083ZM89.8086 15.6548L91.2402 17.5159L91.2623 17.499L91.284 17.4815L89.8086 15.6548ZM88.1297 16.3521L87.7148 14.041L87.7436 18.6683L88.1297 16.3521ZM90.1702 17.2303L88.6612 19.0295L88.6925 19.0556L88.7246 19.0807L90.1702 17.2303ZM91.3842 18.9351L89.179 19.7418L89.1876 19.7654L89.1967 19.7887L91.3842 18.9351ZM91.41 24.1526L89.1824 23.4101L89.1773 23.4253L89.1724 23.4406L91.41 24.1526ZM90.2993 26.064L88.611 24.432L88.6101 24.433L90.2993 26.064ZM88.4654 27.2005L87.692 24.9834L87.6838 24.9862L87.6757 24.9891L88.4654 27.2005ZM83.7129 24.9016H81.3647V27.2498H83.7129V24.9016ZM87.5098 24.0751L89.3883 25.484L89.3986 25.4702L89.4088 25.4562L87.5098 24.0751ZM87.8197 19.4258L85.6068 20.2111L85.6223 20.2548L85.6395 20.2979L87.8197 19.4258ZM86.8382 18.2377L85.6648 20.2716L85.6812 20.2811L85.6978 20.2903L86.8382 18.2377ZM83.7129 17.8502V15.5021H81.3647V17.8502H83.7129ZM83.7129 15.2157H81.3647V17.5638H83.7129V15.2157ZM86.7607 14.8799L87.8791 16.9446V16.9446L86.7607 14.8799ZM87.6131 13.8467L85.4111 13.0312L85.3977 13.0675L85.3855 13.1042L87.6131 13.8467ZM87.4839 10.3856L85.4557 11.5687L85.4852 11.6193L85.5171 11.6683L87.4839 10.3856ZM86.3733 9.55905L85.6773 11.8016L85.7129 11.8127L85.7488 11.8226L86.3733 9.55905ZM83.7129 9.32658V6.97847H81.3647V9.32658H83.7129ZM79.8901 27.5879H82.2382V6.66617H79.8901H77.542V27.5879H79.8901ZM79.8901 6.66617V9.01428H85.0301V6.66617V4.31805H79.8901V6.66617ZM85.0301 6.66617V9.01428C85.8191 9.01428 86.4712 9.08771 87.0037 9.21154L87.5356 6.92446L88.0675 4.63737C87.1191 4.41681 86.1009 4.31805 85.0301 4.31805V6.66617ZM87.5356 6.92446L87.0152 9.21419C87.4895 9.32198 87.81 9.48491 88.0353 9.65937L89.4728 7.80265L90.9102 5.94594C90.068 5.29387 89.097 4.87133 88.056 4.63473L87.5356 6.92446ZM89.4728 7.80265L88.1023 9.70936C88.2691 9.82922 88.4349 10.0132 88.5774 10.3483L90.7384 9.4299L92.8995 8.51146C92.4564 7.46907 91.7785 6.56819 90.8432 5.89595L89.4728 7.80265ZM90.7384 9.4299L88.5774 10.3483C88.7075 10.6546 88.8294 11.1855 88.8294 12.0387H91.1775H93.5256C93.5256 10.791 93.3548 9.58276 92.8995 8.51146L90.7384 9.4299ZM91.1775 12.0387H88.8294C88.8294 12.6689 88.7381 13.0804 88.6357 13.3363L90.8159 14.2083L92.9961 15.0804C93.3759 14.1309 93.5256 13.0959 93.5256 12.0387H91.1775ZM90.8159 14.2083L88.6147 13.3907C88.5201 13.6454 88.4154 13.7616 88.3332 13.8281L89.8086 15.6548L91.284 17.4815C92.0971 16.8247 92.664 15.9766 93.0171 15.0259L90.8159 14.2083ZM89.8086 15.6548L88.3769 13.7936C88.2831 13.8658 88.0925 13.9732 87.7148 14.041L88.1297 16.3521L88.5445 18.6633C89.5099 18.49 90.4387 18.1325 91.2402 17.5159L89.8086 15.6548ZM88.1297 16.3521L87.7436 18.6683C88.2405 18.7511 88.5084 18.9012 88.6612 19.0295L90.1702 17.2303L91.6791 15.4312C90.7644 14.664 89.6719 14.2287 88.5157 14.036L88.1297 16.3521ZM90.1702 17.2303L88.7246 19.0807C88.9038 19.2208 89.0596 19.4156 89.179 19.7418L91.3842 18.9351L93.5893 18.1283C93.1921 17.0425 92.5386 16.1009 91.6158 15.38L90.1702 17.2303ZM91.3842 18.9351L89.1967 19.7887C89.3382 20.1513 89.4493 20.6977 89.4493 21.4922H91.7974H94.1455C94.1455 20.2892 93.9811 19.1308 93.5716 18.0814L91.3842 18.9351ZM91.7974 21.4922H89.4493C89.4493 22.2927 89.3454 22.9211 89.1824 23.4101L91.41 24.1526L93.6376 24.8951C93.9912 23.8344 94.1455 22.6891 94.1455 21.4922H91.7974ZM91.41 24.1526L89.1724 23.4406C89.0292 23.8906 88.833 24.2024 88.6111 24.432L90.2993 26.064L91.9876 27.696C92.7644 26.8924 93.3086 25.9299 93.6476 24.8646L91.41 24.1526ZM90.2993 26.064L88.6101 24.433C88.4146 24.6355 88.1309 24.8303 87.692 24.9834L88.4654 27.2005L89.2388 29.4175C90.2808 29.0541 91.2198 28.4912 91.9886 27.695L90.2993 26.064ZM88.4654 27.2005L87.6757 24.9891C87.2653 25.1357 86.692 25.2398 85.9083 25.2398V27.5879V29.936C87.0877 29.936 88.2191 29.7818 89.2552 29.4118L88.4654 27.2005ZM85.9083 27.5879V25.2398H79.8901V27.5879V29.936H85.9083V27.5879ZM83.7129 24.9016V27.2498H85.1593V24.9016V22.5535H83.7129V24.9016ZM85.1593 24.9016V27.2498C86.5589 27.2498 88.3017 26.9328 89.3883 25.484L87.5098 24.0751L85.6313 22.6662C85.7563 22.4995 85.8782 22.4641 85.8332 22.4799C85.7683 22.5027 85.5663 22.5535 85.1593 22.5535V24.9016ZM87.5098 24.0751L89.4088 25.4562C90.2512 24.2978 90.4778 22.8335 90.4778 21.4663H88.1297H85.7815C85.7815 21.9219 85.7405 22.2419 85.6902 22.4539C85.6399 22.6655 85.5924 22.7193 85.6107 22.694L87.5098 24.0751ZM88.1297 21.4663H90.4778C90.4778 20.4627 90.3594 19.4526 89.9999 18.5538L87.8197 19.4258L85.6395 20.2979C85.6933 20.4322 85.7815 20.7825 85.7815 21.4663H88.1297ZM87.8197 19.4258L90.0326 18.6406C89.6655 17.6059 88.9777 16.7401 87.9785 16.1851L86.8382 18.2377L85.6978 20.2903C85.693 20.2876 85.6811 20.2804 85.6656 20.2675C85.6499 20.2546 85.6349 20.2396 85.622 20.2239C85.5939 20.1899 85.5944 20.1762 85.6068 20.2111L87.8197 19.4258ZM86.8382 18.2377L88.0116 16.2038C87.0786 15.6655 86.0205 15.5021 85.0301 15.5021V17.8502V20.1984C85.2797 20.1984 85.4506 20.22 85.5584 20.2431C85.665 20.266 85.6893 20.2857 85.6648 20.2716L86.8382 18.2377ZM85.0301 17.8502V15.5021H83.7129V17.8502V20.1984H85.0301V17.8502ZM83.7129 17.8502H81.3647V24.9016H83.7129H86.061V17.8502H83.7129ZM83.7129 15.2157V17.5638H85.0043V15.2157V12.8675H83.7129V15.2157ZM85.0043 15.2157V17.5638C85.9387 17.5638 86.9737 17.4349 87.8791 16.9446L86.7607 14.8799L85.6423 12.8152C85.6958 12.7862 85.687 12.8031 85.5707 12.8254C85.4562 12.8473 85.2729 12.8675 85.0043 12.8675V15.2157ZM86.7607 14.8799L87.8791 16.9446C88.8407 16.4237 89.5061 15.5931 89.8407 14.5892L87.6131 13.8467L85.3855 13.1042C85.3904 13.0894 85.4135 13.0308 85.4725 12.9594C85.5326 12.8865 85.5977 12.8394 85.6423 12.8152L86.7607 14.8799ZM87.6131 13.8467L89.815 14.6622C90.1155 13.851 90.2195 12.9663 90.2195 12.0903H87.8714H85.5233C85.5233 12.6263 85.4551 12.9126 85.4111 13.0312L87.6131 13.8467ZM87.8714 12.0903H90.2195C90.2195 11.1316 90.0617 10.0397 89.4507 9.10288L87.4839 10.3856L85.5171 11.6683C85.4636 11.5863 85.468 11.5555 85.4848 11.6292C85.5018 11.7039 85.5233 11.8506 85.5233 12.0903H87.8714ZM87.4839 10.3856L89.5122 9.20244C88.9352 8.21327 88.0344 7.58145 86.9977 7.29548L86.3733 9.55905L85.7488 11.8226C85.7523 11.8236 85.6987 11.8086 85.6236 11.7527C85.5455 11.6946 85.4886 11.6252 85.4557 11.5687L87.4839 10.3856ZM86.3733 9.55905L87.0692 7.31644C86.2641 7.06659 85.3705 6.97847 84.4619 6.97847V9.32658V11.6747C85.103 11.6747 85.4837 11.7416 85.6773 11.8016L86.3733 9.55905ZM84.4619 9.32658V6.97847H83.7129V9.32658V11.6747H84.4619V9.32658ZM83.7129 9.32658H81.3647V15.2157H83.7129H86.061V9.32658H83.7129ZM92.1251 27.5879L89.8226 27.1274L89.2609 29.936H92.1251V27.5879ZM96.3095 6.66617V4.31805H94.3845L94.007 6.20566L96.3095 6.66617ZM100.391 6.66617L102.693 6.20566L102.315 4.31805H100.391V6.66617ZM104.575 27.5879V29.936H107.439L106.877 27.1274L104.575 27.5879ZM101.036 27.5879L98.7218 27.9839L99.0558 29.936H101.036V27.5879ZM100.21 22.7578L102.524 22.3618L102.19 20.4097H100.21V22.7578ZM96.5678 22.7578V20.4097H94.5977L94.2554 22.3497L96.5678 22.7578ZM95.7154 27.5879V29.936H97.6854L98.0278 27.996L95.7154 27.5879ZM96.9552 20.3299L94.6372 19.9549L94.1967 22.678H96.9552V20.3299ZM99.7964 20.3299V22.678H102.555L102.114 19.9549L99.7964 20.3299ZM98.3758 11.5479L100.694 11.1729H96.0578L98.3758 11.5479ZM92.1251 27.5879L94.4276 28.0484L98.612 7.12667L96.3095 6.66617L94.007 6.20566L89.8226 27.1274L92.1251 27.5879ZM96.3095 6.66617V9.01428H100.391V6.66617V4.31805H96.3095V6.66617ZM100.391 6.66617L98.088 7.12667L102.272 28.0484L104.575 27.5879L106.877 27.1274L102.693 6.20566L100.391 6.66617ZM104.575 27.5879V25.2398H101.036V27.5879V29.936H104.575V27.5879ZM101.036 27.5879L103.351 27.1918L102.524 22.3618L100.21 22.7578L97.8952 23.1539L98.7218 27.9839L101.036 27.5879ZM100.21 22.7578V20.4097H96.5678V22.7578V25.1059H100.21V22.7578ZM96.5678 22.7578L94.2554 22.3497L93.403 27.1798L95.7154 27.5879L98.0278 27.996L98.8802 23.1659L96.5678 22.7578ZM95.7154 27.5879V25.2398H92.1251V27.5879V29.936H95.7154V27.5879ZM96.9552 20.3299V22.678H99.7964V20.3299V17.9817H96.9552V20.3299ZM99.7964 20.3299L102.114 19.9549L100.694 11.1729L98.3758 11.5479L96.0578 11.9229L97.4784 20.7048L99.7964 20.3299ZM98.3758 11.5479L96.0578 11.1729L94.6372 19.9549L96.9552 20.3299L99.2732 20.7048L100.694 11.9229L98.3758 11.5479ZM105.646 27.5879H103.298V29.936H105.646V27.5879ZM105.646 6.66617V4.31805H103.298V6.66617H105.646ZM109.468 6.66617H111.817V4.31805H109.468V6.66617ZM109.468 24.9533H107.12V27.3014H109.468V24.9533ZM114.531 24.9533H116.879V22.6052H114.531V24.9533ZM114.531 27.5879V29.936H116.879V27.5879H114.531ZM105.646 27.5879H107.994V6.66617H105.646H103.298V27.5879H105.646ZM105.646 6.66617V9.01428H109.468V6.66617V4.31805H105.646V6.66617ZM109.468 6.66617H107.12V24.9533H109.468H111.817V6.66617H109.468ZM109.468 24.9533V27.3014H114.531V24.9533V22.6052H109.468V24.9533ZM114.531 24.9533H112.183V27.5879H114.531H116.879V24.9533H114.531ZM114.531 27.5879V25.2398H105.646V27.5879V29.936H114.531V27.5879Z" fill="white" mask="url(#path-3-outside-1_402_3490)"/>
<mask id="path-5-outside-2_402_3490" maskUnits="userSpaceOnUse" x="54" y="28.2783" width="92" height="27" fill="black">
<rect fill="white" x="54" y="28.2783" width="92" height="27"/>
<path d="M56.5756 52.2783V31.3566H61.5865C62.9985 31.3566 64.1866 31.5288 65.1509 31.8732C66.1324 32.2004 66.8729 32.7686 67.3722 33.5779C67.8888 34.3872 68.1471 35.4893 68.1471 36.8841C68.1471 37.7278 68.0696 38.4855 67.9146 39.157C67.7597 39.8286 67.4928 40.4055 67.1139 40.8876C66.7523 41.3525 66.2444 41.7141 65.59 41.9724L68.5087 52.2783H64.686L62.1547 42.6957H60.3983V52.2783H56.5756ZM60.3983 40.2935H61.5865C62.3269 40.2935 62.9124 40.1902 63.3429 39.9836C63.7906 39.7597 64.1091 39.4153 64.2985 38.9504C64.488 38.4683 64.5827 37.857 64.5827 37.1165C64.5827 36.0661 64.3846 35.2826 63.9886 34.7661C63.6098 34.2323 62.8779 33.9654 61.7931 33.9654H60.3983V40.2935ZM70.0209 52.2783V31.3566H78.8029V34.0428H73.8437V40.0611H77.7439V42.7215H73.8437V49.6437H78.8546V52.2783H70.0209ZM85.305 52.5624C84.048 52.5624 82.9976 52.3214 82.1538 51.8392C81.3101 51.3399 80.673 50.6166 80.2425 49.6696C79.812 48.7225 79.5709 47.5602 79.5193 46.1826L82.7996 45.5369C82.834 46.3462 82.9287 47.0608 83.0837 47.6807C83.2559 48.3006 83.5056 48.7828 83.8328 49.1271C84.1771 49.4543 84.6248 49.6179 85.1759 49.6179C85.7958 49.6179 86.2349 49.4371 86.4932 49.0755C86.7515 48.6967 86.8806 48.2231 86.8806 47.6549C86.8806 46.7422 86.674 45.9932 86.2607 45.4077C85.8474 44.8223 85.2964 44.2368 84.6076 43.6513L81.973 41.3267C81.2326 40.6896 80.6385 39.9836 80.1908 39.2087C79.7603 38.4166 79.5451 37.4437 79.5451 36.29C79.5451 34.6369 80.0272 33.3627 80.9915 32.4673C81.9558 31.5718 83.2731 31.1241 84.9434 31.1241C85.9249 31.1241 86.7429 31.2791 87.3972 31.5891C88.0515 31.8818 88.5681 32.2951 88.947 32.8289C89.343 33.3627 89.6357 33.974 89.8251 34.6627C90.0146 35.3343 90.1351 36.0489 90.1868 36.8066L86.9323 37.3748C86.8978 36.7205 86.8203 36.135 86.6998 35.6184C86.5965 35.1018 86.3985 34.6972 86.1057 34.4045C85.8302 34.1117 85.4169 33.9654 84.8659 33.9654C84.2977 33.9654 83.8586 34.1548 83.5486 34.5336C83.2559 34.8952 83.1095 35.3515 83.1095 35.9026C83.1095 36.6086 83.2559 37.194 83.5486 37.6589C83.8414 38.1066 84.2632 38.5716 84.8143 39.0537L87.423 41.3525C88.284 42.0758 89.0158 42.9281 89.6185 43.9096C90.2384 44.8739 90.5484 46.0449 90.5484 47.4224C90.5484 48.4211 90.3245 49.308 89.8768 50.0828C89.4463 50.8577 88.835 51.469 88.0429 51.9167C87.268 52.3472 86.3554 52.5624 85.305 52.5624ZM91.8693 52.2783V31.3566H95.6404V52.2783H91.8693ZM97.8459 52.2783V31.3566H102.779C104.484 31.3566 105.81 31.5891 106.757 32.054C107.721 32.5189 108.402 33.2335 108.798 34.1978C109.211 35.1621 109.417 36.3847 109.417 37.8656V45.511C109.417 47.0264 109.211 48.292 108.798 49.308C108.402 50.3067 107.73 51.0557 106.783 51.5551C105.853 52.0372 104.57 52.2783 102.934 52.2783H97.8459ZM101.669 49.6179H102.831C103.709 49.6179 104.338 49.4629 104.717 49.153C105.095 48.843 105.328 48.3953 105.414 47.8099C105.5 47.2072 105.543 46.4753 105.543 45.6144V37.6073C105.543 36.7635 105.483 36.0834 105.362 35.5668C105.242 35.0502 104.992 34.6714 104.613 34.4303C104.234 34.1892 103.623 34.0687 102.779 34.0687H101.669V49.6179ZM111.19 52.2783V31.3566H119.972V34.0428H115.013V40.0611H118.913V42.7215H115.013V49.6437H120.024V52.2783H111.19ZM121.205 52.2783V31.3566H123.866L128.954 43.2897V31.3566H132.105V52.2783H129.574L124.46 39.7769V52.2783H121.205ZM136.339 52.2783V34.172H133.007V31.3566H143.442V34.172H140.162V52.2783H136.339Z"/>
</mask>
<path d="M56.5756 52.2783V31.3566H61.5865C62.9985 31.3566 64.1866 31.5288 65.1509 31.8732C66.1324 32.2004 66.8729 32.7686 67.3722 33.5779C67.8888 34.3872 68.1471 35.4893 68.1471 36.8841C68.1471 37.7278 68.0696 38.4855 67.9146 39.157C67.7597 39.8286 67.4928 40.4055 67.1139 40.8876C66.7523 41.3525 66.2444 41.7141 65.59 41.9724L68.5087 52.2783H64.686L62.1547 42.6957H60.3983V52.2783H56.5756ZM60.3983 40.2935H61.5865C62.3269 40.2935 62.9124 40.1902 63.3429 39.9836C63.7906 39.7597 64.1091 39.4153 64.2985 38.9504C64.488 38.4683 64.5827 37.857 64.5827 37.1165C64.5827 36.0661 64.3846 35.2826 63.9886 34.7661C63.6098 34.2323 62.8779 33.9654 61.7931 33.9654H60.3983V40.2935ZM70.0209 52.2783V31.3566H78.8029V34.0428H73.8437V40.0611H77.7439V42.7215H73.8437V49.6437H78.8546V52.2783H70.0209ZM85.305 52.5624C84.048 52.5624 82.9976 52.3214 82.1538 51.8392C81.3101 51.3399 80.673 50.6166 80.2425 49.6696C79.812 48.7225 79.5709 47.5602 79.5193 46.1826L82.7996 45.5369C82.834 46.3462 82.9287 47.0608 83.0837 47.6807C83.2559 48.3006 83.5056 48.7828 83.8328 49.1271C84.1771 49.4543 84.6248 49.6179 85.1759 49.6179C85.7958 49.6179 86.2349 49.4371 86.4932 49.0755C86.7515 48.6967 86.8806 48.2231 86.8806 47.6549C86.8806 46.7422 86.674 45.9932 86.2607 45.4077C85.8474 44.8223 85.2964 44.2368 84.6076 43.6513L81.973 41.3267C81.2326 40.6896 80.6385 39.9836 80.1908 39.2087C79.7603 38.4166 79.5451 37.4437 79.5451 36.29C79.5451 34.6369 80.0272 33.3627 80.9915 32.4673C81.9558 31.5718 83.2731 31.1241 84.9434 31.1241C85.9249 31.1241 86.7429 31.2791 87.3972 31.5891C88.0515 31.8818 88.5681 32.2951 88.947 32.8289C89.343 33.3627 89.6357 33.974 89.8251 34.6627C90.0146 35.3343 90.1351 36.0489 90.1868 36.8066L86.9323 37.3748C86.8978 36.7205 86.8203 36.135 86.6998 35.6184C86.5965 35.1018 86.3985 34.6972 86.1057 34.4045C85.8302 34.1117 85.4169 33.9654 84.8659 33.9654C84.2977 33.9654 83.8586 34.1548 83.5486 34.5336C83.2559 34.8952 83.1095 35.3515 83.1095 35.9026C83.1095 36.6086 83.2559 37.194 83.5486 37.6589C83.8414 38.1066 84.2632 38.5716 84.8143 39.0537L87.423 41.3525C88.284 42.0758 89.0158 42.9281 89.6185 43.9096C90.2384 44.8739 90.5484 46.0449 90.5484 47.4224C90.5484 48.4211 90.3245 49.308 89.8768 50.0828C89.4463 50.8577 88.835 51.469 88.0429 51.9167C87.268 52.3472 86.3554 52.5624 85.305 52.5624ZM91.8693 52.2783V31.3566H95.6404V52.2783H91.8693ZM97.8459 52.2783V31.3566H102.779C104.484 31.3566 105.81 31.5891 106.757 32.054C107.721 32.5189 108.402 33.2335 108.798 34.1978C109.211 35.1621 109.417 36.3847 109.417 37.8656V45.511C109.417 47.0264 109.211 48.292 108.798 49.308C108.402 50.3067 107.73 51.0557 106.783 51.5551C105.853 52.0372 104.57 52.2783 102.934 52.2783H97.8459ZM101.669 49.6179H102.831C103.709 49.6179 104.338 49.4629 104.717 49.153C105.095 48.843 105.328 48.3953 105.414 47.8099C105.5 47.2072 105.543 46.4753 105.543 45.6144V37.6073C105.543 36.7635 105.483 36.0834 105.362 35.5668C105.242 35.0502 104.992 34.6714 104.613 34.4303C104.234 34.1892 103.623 34.0687 102.779 34.0687H101.669V49.6179ZM111.19 52.2783V31.3566H119.972V34.0428H115.013V40.0611H118.913V42.7215H115.013V49.6437H120.024V52.2783H111.19ZM121.205 52.2783V31.3566H123.866L128.954 43.2897V31.3566H132.105V52.2783H129.574L124.46 39.7769V52.2783H121.205ZM136.339 52.2783V34.172H133.007V31.3566H143.442V34.172H140.162V52.2783H136.339Z" fill="#153276"/>
<path d="M56.5756 52.2783H54.2275V54.6264H56.5756V52.2783ZM56.5756 31.3566V29.0085H54.2275V31.3566H56.5756ZM65.1509 31.8732L64.3612 34.0845L64.3847 34.0929L64.4084 34.1008L65.1509 31.8732ZM67.3722 33.5779L65.3739 34.8109L65.3833 34.8262L65.3929 34.8413L67.3722 33.5779ZM67.9146 39.157L65.6267 38.629V38.629L67.9146 39.157ZM67.1139 40.8876L65.2675 39.4369L65.2604 39.446L67.1139 40.8876ZM65.59 41.9724L64.7279 39.7883L62.7519 40.5683L63.3307 42.6123L65.59 41.9724ZM68.5087 52.2783V54.6264H71.6142L70.768 51.6385L68.5087 52.2783ZM64.686 52.2783L62.4157 52.878L62.8776 54.6264H64.686V52.2783ZM62.1547 42.6957L64.425 42.096L63.9631 40.3475H62.1547V42.6957ZM60.3983 42.6957V40.3475H58.0502V42.6957H60.3983ZM60.3983 52.2783V54.6264H62.7464V52.2783H60.3983ZM60.3983 40.2935H58.0502V42.6416H60.3983V40.2935ZM63.3429 39.9836L64.359 42.1005L64.376 42.0923L64.393 42.0838L63.3429 39.9836ZM64.2985 38.9504L66.4731 39.8363L66.4787 39.8227L66.4841 39.809L64.2985 38.9504ZM63.9886 34.7661L62.0737 36.125L62.0988 36.1604L62.1251 36.1947L63.9886 34.7661ZM60.3983 33.9654V31.6172H58.0502V33.9654H60.3983ZM56.5756 52.2783H58.9237V31.3566H56.5756H54.2275V52.2783H56.5756ZM56.5756 31.3566V33.7047H61.5865V31.3566V29.0085H56.5756V31.3566ZM61.5865 31.3566V33.7047C62.8239 33.7047 63.7263 33.8578 64.3612 34.0845L65.1509 31.8732L65.9407 29.6619C64.6469 29.1998 63.173 29.0085 61.5865 29.0085V31.3566ZM65.1509 31.8732L64.4084 34.1008C64.9169 34.2703 65.1898 34.5125 65.3739 34.8109L67.3722 33.5779L69.3706 32.3449C68.556 31.0247 67.3479 30.1304 65.8934 29.6456L65.1509 31.8732ZM67.3722 33.5779L65.3929 34.8413C65.583 35.139 65.799 35.7453 65.799 36.8841H68.1471H70.4952C70.4952 35.2333 70.1947 33.6355 69.3515 32.3145L67.3722 33.5779ZM68.1471 36.8841H65.799C65.799 37.5881 65.734 38.1641 65.6267 38.629L67.9146 39.157L70.2026 39.685C70.4053 38.8068 70.4952 37.8675 70.4952 36.8841H68.1471ZM67.9146 39.157L65.6267 38.629C65.5396 39.0062 65.4081 39.258 65.2676 39.4369L67.1139 40.8876L68.9603 42.3383C69.5774 41.5529 69.9797 40.651 70.2026 39.685L67.9146 39.157ZM67.1139 40.8876L65.2604 39.446C65.203 39.5199 65.0676 39.6542 64.7279 39.7883L65.59 41.9724L66.4522 44.1565C67.4211 43.7741 68.3017 43.1852 68.9674 42.3292L67.1139 40.8876ZM65.59 41.9724L63.3307 42.6123L66.2495 52.9182L68.5087 52.2783L70.768 51.6385L67.8493 41.3326L65.59 41.9724ZM68.5087 52.2783V49.9302H64.686V52.2783V54.6264H68.5087V52.2783ZM64.686 52.2783L66.9562 51.6786L64.425 42.096L62.1547 42.6957L59.8845 43.2953L62.4157 52.878L64.686 52.2783ZM62.1547 42.6957V40.3475H60.3983V42.6957V45.0438H62.1547V42.6957ZM60.3983 42.6957H58.0502V52.2783H60.3983H62.7464V42.6957H60.3983ZM60.3983 52.2783V49.9302H56.5756V52.2783V54.6264H60.3983V52.2783ZM60.3983 40.2935V42.6416H61.5865V40.2935V37.9454H60.3983V40.2935ZM61.5865 40.2935V42.6416C62.5041 42.6416 63.4847 42.5201 64.359 42.1005L63.3429 39.9836L62.3268 37.8667C62.3447 37.8581 62.3041 37.8805 62.1728 37.9037C62.0428 37.9266 61.8516 37.9454 61.5865 37.9454V40.2935ZM63.3429 39.9836L64.393 42.0838C65.3521 41.6042 66.0694 40.8274 66.4731 39.8363L64.2985 38.9504L62.124 38.0645C62.1282 38.054 62.1484 38.012 62.1938 37.9629C62.2393 37.9137 62.2805 37.8895 62.2927 37.8834L63.3429 39.9836ZM64.2985 38.9504L66.4841 39.809C66.8165 38.9629 66.9308 38.0348 66.9308 37.1165H64.5827H62.2345C62.2345 37.6791 62.1595 37.9736 62.113 38.0918L64.2985 38.9504ZM64.5827 37.1165H66.9308C66.9308 35.8428 66.7034 34.4478 65.8521 33.3374L63.9886 34.7661L62.1251 36.1947C62.088 36.1464 62.1185 36.1618 62.1576 36.3165C62.1974 36.4738 62.2345 36.7309 62.2345 37.1165H64.5827ZM63.9886 34.7661L65.9035 33.4071C64.8577 31.9334 63.1371 31.6172 61.7931 31.6172V33.9654V36.3135C61.97 36.3135 62.1033 36.3245 62.1992 36.3386C62.2955 36.3527 62.3419 36.3682 62.3511 36.3715C62.3589 36.3744 62.3232 36.3624 62.2651 36.3205C62.2043 36.2766 62.1351 36.2116 62.0737 36.125L63.9886 34.7661ZM61.7931 33.9654V31.6172H60.3983V33.9654V36.3135H61.7931V33.9654ZM60.3983 33.9654H58.0502V40.2935H60.3983H62.7464V33.9654H60.3983ZM70.0209 52.2783H67.6728V54.6264H70.0209V52.2783ZM70.0209 31.3566V29.0085H67.6728V31.3566H70.0209ZM78.8029 31.3566H81.151V29.0085H78.8029V31.3566ZM78.8029 34.0428V36.391H81.151V34.0428H78.8029ZM73.8437 34.0428V31.6947H71.4956V34.0428H73.8437ZM73.8437 40.0611H71.4956V42.4092H73.8437V40.0611ZM77.7439 40.0611H80.092V37.7129H77.7439V40.0611ZM77.7439 42.7215V45.0696H80.092V42.7215H77.7439ZM73.8437 42.7215V40.3734H71.4956V42.7215H73.8437ZM73.8437 49.6437H71.4956V51.9918H73.8437V49.6437ZM78.8546 49.6437H81.2027V47.2956H78.8546V49.6437ZM78.8546 52.2783V54.6264H81.2027V52.2783H78.8546ZM70.0209 52.2783H72.3691V31.3566H70.0209H67.6728V52.2783H70.0209ZM70.0209 31.3566V33.7047H78.8029V31.3566V29.0085H70.0209V31.3566ZM78.8029 31.3566H76.4548V34.0428H78.8029H81.151V31.3566H78.8029ZM78.8029 34.0428V31.6947H73.8437V34.0428V36.391H78.8029V34.0428ZM73.8437 34.0428H71.4956V40.0611H73.8437H76.1918V34.0428H73.8437ZM73.8437 40.0611V42.4092H77.7439V40.0611V37.7129H73.8437V40.0611ZM77.7439 40.0611H75.3958V42.7215H77.7439H80.092V40.0611H77.7439ZM77.7439 42.7215V40.3734H73.8437V42.7215V45.0696H77.7439V42.7215ZM73.8437 42.7215H71.4956V49.6437H73.8437H76.1918V42.7215H73.8437ZM73.8437 49.6437V51.9918H78.8546V49.6437V47.2956H73.8437V49.6437ZM78.8546 49.6437H76.5064V52.2783H78.8546H81.2027V49.6437H78.8546ZM78.8546 52.2783V49.9302H70.0209V52.2783V54.6264H78.8546V52.2783ZM82.1538 51.8392L80.9579 53.86L80.9733 53.8691L80.9889 53.878L82.1538 51.8392ZM80.2425 49.6696L82.3801 48.6979V48.6979L80.2425 49.6696ZM79.5193 46.1826L79.0657 43.8787L77.0976 44.2661L77.1728 46.2706L79.5193 46.1826ZM82.7996 45.5369L85.1456 45.437L85.0293 42.7048L82.3461 43.233L82.7996 45.5369ZM83.0837 47.6807L80.8057 48.2502L80.8131 48.2798L80.8212 48.3092L83.0837 47.6807ZM83.8328 49.1271L82.1304 50.7444L82.1718 50.7881L82.2155 50.8295L83.8328 49.1271ZM86.4932 49.0755L88.4039 50.4403L88.4188 50.4194L88.4332 50.3983L86.4932 49.0755ZM86.2607 45.4077L84.3424 46.7618V46.7618L86.2607 45.4077ZM84.6076 43.6513L83.0541 45.412L83.0703 45.4264L83.0869 45.4405L84.6076 43.6513ZM81.973 41.3267L83.5266 39.566L83.5157 39.5563L83.5046 39.5468L81.973 41.3267ZM80.1908 39.2087L78.1277 40.33L78.1423 40.3569L78.1577 40.3834L80.1908 39.2087ZM80.9915 32.4673L82.5893 34.1879V34.1879L80.9915 32.4673ZM87.3972 31.5891L86.392 33.7111L86.415 33.7221L86.4383 33.7325L87.3972 31.5891ZM88.9469 32.8289L87.032 34.1878L87.0464 34.2081L87.0612 34.228L88.9469 32.8289ZM89.8251 34.6627L87.5611 35.2854L87.5631 35.2928L87.5652 35.3002L89.8251 34.6627ZM90.1868 36.8066L90.5906 39.1197L92.6732 38.7561L92.5294 36.6468L90.1868 36.8066ZM86.9323 37.3748L84.5874 37.4982L84.7266 40.1436L87.3361 39.6879L86.9323 37.3748ZM86.6998 35.6184L84.3973 36.0789L84.4046 36.1156L84.4131 36.152L86.6998 35.6184ZM86.1057 34.4045L84.3958 36.0138L84.4202 36.0397L84.4454 36.0648L86.1057 34.4045ZM83.5486 34.5336L81.7313 33.0467L81.7236 33.0562L83.5486 34.5336ZM83.5486 37.6589L81.5616 38.91L81.5723 38.9271L81.5833 38.9439L83.5486 37.6589ZM84.8143 39.0537L86.3667 37.292L86.3605 37.2866L84.8143 39.0537ZM87.423 41.3525L85.8706 43.1143L85.8915 43.1326L85.9127 43.1505L87.423 41.3525ZM89.6185 43.9096L87.6175 45.1383L87.6302 45.159L87.6433 45.1794L89.6185 43.9096ZM89.8768 50.0828L87.8437 48.9081L87.8338 48.9252L87.8242 48.9425L89.8768 50.0828ZM88.0429 51.9167L89.1833 53.9693L89.1908 53.9651L89.1983 53.9609L88.0429 51.9167ZM85.305 52.5624V50.2143C84.3396 50.2143 83.7184 50.0288 83.3188 49.8005L82.1538 51.8392L80.9889 53.878C82.2768 54.6139 83.7564 54.9106 85.305 54.9106V52.5624ZM82.1538 51.8392L83.3498 49.8185C82.9459 49.5795 82.6244 49.2354 82.3801 48.6979L80.2425 49.6696L78.1048 50.6412C78.7215 51.9979 79.6743 53.1003 80.9579 53.86L82.1538 51.8392ZM80.2425 49.6696L82.3801 48.6979C82.1099 48.1034 81.9095 47.2608 81.8657 46.0946L79.5193 46.1826L77.1728 46.2706C77.2324 47.8595 77.5141 49.3416 78.1048 50.6412L80.2425 49.6696ZM79.5193 46.1826L79.9728 48.4865L83.2531 47.8408L82.7996 45.5369L82.3461 43.233L79.0657 43.8787L79.5193 46.1826ZM82.7996 45.5369L80.4536 45.6367C80.4931 46.5646 80.6036 47.442 80.8057 48.2502L83.0837 47.6807L85.3617 47.1112C85.2538 46.6796 85.175 46.1278 85.1456 45.437L82.7996 45.5369ZM83.0837 47.6807L80.8212 48.3092C81.0615 49.1741 81.4613 50.0401 82.1304 50.7444L83.8328 49.1271L85.5351 47.5099C85.5499 47.5254 85.4503 47.4271 85.3462 47.0522L83.0837 47.6807ZM83.8328 49.1271L82.2155 50.8295C83.0659 51.6374 84.1263 51.966 85.1759 51.966V49.6179V47.2698C85.1331 47.2698 85.1615 47.2637 85.2327 47.2897C85.3098 47.3179 85.3882 47.3661 85.45 47.4248L83.8328 49.1271ZM85.1759 49.6179V51.966C86.2318 51.966 87.546 51.6413 88.4039 50.4403L86.4932 49.0755L84.5824 47.7107C84.7274 47.5076 84.9169 47.3766 85.0761 47.311C85.2123 47.2549 85.2683 47.2698 85.1759 47.2698V49.6179ZM86.4932 49.0755L88.4332 50.3983C89.015 49.5451 89.2287 48.5813 89.2287 47.6549H86.8806H84.5325C84.5325 47.7623 84.5202 47.8117 84.5184 47.8184C84.5175 47.8214 84.519 47.8151 84.525 47.802C84.5311 47.7886 84.5403 47.7715 84.5531 47.7527L86.4932 49.0755ZM86.8806 47.6549H89.2287C89.2287 46.3902 88.9399 45.1315 88.179 44.0536L86.2607 45.4077L84.3424 46.7618C84.4081 46.8549 84.5325 47.0943 84.5325 47.6549H86.8806ZM86.2607 45.4077L88.179 44.0536C87.627 43.2715 86.9302 42.5438 86.1284 41.8622L84.6076 43.6513L83.0869 45.4405C83.6626 45.9298 84.0679 46.373 84.3424 46.7618L86.2607 45.4077ZM84.6076 43.6513L86.1612 41.8906L83.5266 39.566L81.973 41.3267L80.4195 43.0874L83.0541 45.412L84.6076 43.6513ZM81.973 41.3267L83.5046 39.5468C82.9459 39.0661 82.5281 38.5604 82.224 38.034L80.1908 39.2087L78.1577 40.3834C78.7489 41.4067 79.5193 42.3131 80.4415 43.1066L81.973 41.3267ZM80.1908 39.2087L82.2539 38.0874C82.0556 37.7225 81.8932 37.1589 81.8932 36.29H79.5451H77.197C77.197 37.7285 77.4651 39.1107 78.1277 40.33L80.1908 39.2087ZM79.5451 36.29H81.8932C81.8932 35.1113 82.2203 34.5306 82.5893 34.1879L80.9915 32.4673L79.3938 30.7466C77.8342 32.1947 77.197 34.1625 77.197 36.29H79.5451ZM80.9915 32.4673L82.5893 34.1879C83.0113 33.796 83.6999 33.4722 84.9434 33.4722V31.1241V28.776C82.8463 28.776 80.9003 29.3476 79.3937 30.7466L80.9915 32.4673ZM84.9434 31.1241V33.4722C85.6943 33.4722 86.1428 33.5931 86.392 33.7111L87.3972 31.5891L88.4024 29.467C87.3429 28.9651 86.1555 28.776 84.9434 28.776V31.1241ZM87.3972 31.5891L86.4383 33.7325C86.7472 33.8706 86.9188 34.0283 87.032 34.1878L88.9469 32.8289L90.8619 31.4699C90.2174 30.5618 89.3559 29.893 88.3561 29.4457L87.3972 31.5891ZM88.9469 32.8289L87.0612 34.228C87.2716 34.5116 87.4429 34.8555 87.5611 35.2854L89.8251 34.6627L92.0892 34.0401C91.8286 33.0924 91.4144 32.2137 90.8327 31.4297L88.9469 32.8289ZM89.8251 34.6627L87.5652 35.3002C87.707 35.8028 87.8025 36.3562 87.8441 36.9663L90.1868 36.8066L92.5294 36.6468C92.4677 35.7416 92.3222 34.8659 92.0851 34.0253L89.8251 34.6627ZM90.1868 36.8066L89.7829 34.4935L86.5284 35.0617L86.9323 37.3748L87.3361 39.6879L90.5906 39.1197L90.1868 36.8066ZM86.9323 37.3748L89.2771 37.2514C89.237 36.4897 89.1448 35.7632 88.9865 35.0849L86.6998 35.6184L84.4131 36.152C84.4959 36.5068 84.5586 36.9513 84.5874 37.4982L86.9323 37.3748ZM86.6998 35.6184L89.0023 35.1579C88.8328 34.3101 88.4655 33.4435 87.7661 32.7441L86.1057 34.4045L84.4454 36.0648C84.4204 36.0398 84.4012 36.0161 84.3872 35.9963C84.3734 35.9767 84.3665 35.9634 84.3647 35.9596C84.3614 35.953 84.3787 35.9862 84.3973 36.0789L86.6998 35.6184ZM86.1057 34.4045L87.8156 32.7951C86.9511 31.8766 85.8165 31.6172 84.8659 31.6172V33.9654V36.3135C84.94 36.3135 84.9056 36.3241 84.8052 36.2885C84.6921 36.2485 84.5369 36.1637 84.3958 36.0138L86.1057 34.4045ZM84.8659 33.9654V31.6172C83.7201 31.6172 82.5617 32.0317 81.7313 33.0467L83.5486 34.5336L85.366 36.0205C85.2888 36.1148 85.1743 36.2058 85.0405 36.2635C84.9164 36.317 84.8424 36.3135 84.8659 36.3135V33.9654ZM83.5486 34.5336L81.7236 33.0562C81.0326 33.9097 80.7614 34.9171 80.7614 35.9026H83.1095H85.4576C85.4576 35.8347 85.4666 35.8288 85.4552 35.8642C85.4496 35.8817 85.4402 35.9056 85.4254 35.9332C85.4105 35.9609 85.3929 35.9873 85.3737 36.011L83.5486 34.5336ZM83.1095 35.9026H80.7614C80.7614 36.9268 80.9744 37.9775 81.5616 38.91L83.5486 37.6589L85.5357 36.4078C85.5341 36.4054 85.5161 36.3768 85.4973 36.3016C85.4778 36.2235 85.4576 36.0952 85.4576 35.9026H83.1095ZM83.5486 37.6589L81.5833 38.9439C82.0272 39.6228 82.6108 40.2458 83.268 40.8209L84.8143 39.0537L86.3605 37.2866C85.9157 36.8974 85.6555 36.5905 85.5139 36.3739L83.5486 37.6589ZM84.8143 39.0537L83.2619 40.8154L85.8706 43.1143L87.423 41.3525L88.9754 39.5908L86.3667 37.292L84.8143 39.0537ZM87.423 41.3525L85.9127 43.1505C86.5759 43.7076 87.1435 44.3664 87.6175 45.1383L89.6185 43.9096L91.6195 42.6809C90.8881 41.4899 89.9921 40.4439 88.9333 39.5546L87.423 41.3525ZM89.6185 43.9096L87.6433 45.1794C87.9745 45.6945 88.2002 46.4033 88.2002 47.4224H90.5484H92.8965C92.8965 45.6864 92.5024 44.0533 91.5937 42.6399L89.6185 43.9096ZM90.5484 47.4224H88.2002C88.2002 48.0577 88.0618 48.5305 87.8437 48.9081L89.8768 50.0828L91.91 51.2575C92.5872 50.0854 92.8965 48.7846 92.8965 47.4224H90.5484ZM89.8768 50.0828L87.8242 48.9425C87.6096 49.3288 87.3135 49.6318 86.8875 49.8725L88.0429 51.9167L89.1983 53.9609C90.3566 53.3062 91.2831 52.3866 91.9294 51.2232L89.8768 50.0828ZM88.0429 51.9167L86.9026 49.8641C86.5359 50.0678 86.0303 50.2143 85.305 50.2143V52.5624V54.9106C86.6805 54.9106 88.0002 54.6266 89.1833 53.9693L88.0429 51.9167ZM91.8693 52.2783H89.5212V54.6264H91.8693V52.2783ZM91.8693 31.3566V29.0085H89.5212V31.3566H91.8693ZM95.6404 31.3566H97.9885V29.0085H95.6404V31.3566ZM95.6404 52.2783V54.6264H97.9885V52.2783H95.6404ZM91.8693 52.2783H94.2174V31.3566H91.8693H89.5212V52.2783H91.8693ZM91.8693 31.3566V33.7047H95.6404V31.3566V29.0085H91.8693V31.3566ZM95.6404 31.3566H93.2923V52.2783H95.6404H97.9885V31.3566H95.6404ZM95.6404 52.2783V49.9302H91.8693V52.2783V54.6264H95.6404V52.2783ZM97.8459 52.2783H95.4978V54.6264H97.8459V52.2783ZM97.8459 31.3566V29.0085H95.4978V31.3566H97.8459ZM106.757 32.054L105.722 34.1618L105.73 34.1655L105.737 34.1691L106.757 32.054ZM108.798 34.1978L106.626 35.0899L106.632 35.1064L106.639 35.1228L108.798 34.1978ZM108.798 49.308L106.623 48.4232L106.619 48.4328L106.615 48.4424L108.798 49.308ZM106.783 51.5551L107.864 53.6397L107.871 53.6359L107.878 53.6322L106.783 51.5551ZM101.669 49.6179H99.3206V51.966H101.669V49.6179ZM104.717 49.153L106.203 50.9703V50.9703L104.717 49.153ZM105.414 47.8099L107.737 48.1515L107.738 48.1419L105.414 47.8099ZM105.362 35.5668L103.076 36.1003V36.1003L105.362 35.5668ZM104.613 34.4303L103.353 36.4113V36.4113L104.613 34.4303ZM101.669 34.0687V31.7206H99.3206V34.0687H101.669ZM97.8459 52.2783H100.194V31.3566H97.8459H95.4978V52.2783H97.8459ZM97.8459 31.3566V33.7047H102.779V31.3566V29.0085H97.8459V31.3566ZM102.779 31.3566V33.7047C104.321 33.7047 105.236 33.9232 105.722 34.1618L106.757 32.054L107.792 29.9462C106.384 29.2549 104.647 29.0085 102.779 29.0085V31.3566ZM106.757 32.054L105.737 34.1691C106.195 34.3899 106.456 34.6771 106.626 35.0899L108.798 34.1978L110.97 33.3057C110.347 31.7899 109.247 30.6479 107.777 29.9389L106.757 32.054ZM108.798 34.1978L106.639 35.1228C106.887 35.7007 107.069 36.5813 107.069 37.8656H109.417H111.766C111.766 36.1881 111.535 34.6235 110.956 33.2728L108.798 34.1978ZM109.417 37.8656H107.069V45.511H109.417H111.766V37.8656H109.417ZM109.417 45.511H107.069C107.069 46.831 106.887 47.7734 106.623 48.4232L108.798 49.308L110.973 50.1927C111.535 48.8106 111.766 47.2218 111.766 45.511H109.417ZM108.798 49.308L106.615 48.4424C106.424 48.9225 106.137 49.2409 105.688 49.478L106.783 51.5551L107.878 53.6322C109.322 52.8706 110.379 51.6909 110.98 50.1735L108.798 49.308ZM106.783 51.5551L105.702 49.4705C105.242 49.709 104.385 49.9302 102.934 49.9302V52.2783V54.6264C104.755 54.6264 106.464 54.3655 107.864 53.6397L106.783 51.5551ZM102.934 52.2783V49.9302H97.8459V52.2783V54.6264H102.934V52.2783ZM101.669 49.6179V51.966H102.831V49.6179V47.2698H101.669V49.6179ZM102.831 49.6179V51.966C103.868 51.966 105.182 51.8059 106.203 50.9703L104.717 49.153L103.23 47.3356C103.383 47.2104 103.479 47.2021 103.399 47.2218C103.321 47.2411 103.143 47.2698 102.831 47.2698V49.6179ZM104.717 49.153L106.203 50.9703C107.126 50.2157 107.585 49.1885 107.737 48.1515L105.414 47.8099L103.091 47.4682C103.079 47.5463 103.068 47.5468 103.091 47.5027C103.103 47.4806 103.12 47.4518 103.146 47.4202C103.171 47.3885 103.2 47.3599 103.23 47.3356L104.717 49.153ZM105.414 47.8099L107.738 48.1419C107.845 47.3946 107.891 46.5449 107.891 45.6144H105.543H103.195C103.195 46.4058 103.155 47.0197 103.089 47.4778L105.414 47.8099ZM105.543 45.6144H107.891V37.6073H105.543H103.195V45.6144H105.543ZM105.543 37.6073H107.891C107.891 36.676 107.827 35.7961 107.649 35.0332L105.362 35.5668L103.076 36.1003C103.139 36.3707 103.195 36.851 103.195 37.6073H105.543ZM105.362 35.5668L107.649 35.0332C107.416 34.0348 106.864 33.0791 105.874 32.4493L104.613 34.4303L103.353 36.4113C103.26 36.3522 103.179 36.2714 103.124 36.1874C103.073 36.1096 103.068 36.0674 103.076 36.1003L105.362 35.5668ZM104.613 34.4303L105.874 32.4493C104.912 31.837 103.737 31.7206 102.779 31.7206V34.0687V36.4168C103.098 36.4168 103.302 36.4403 103.416 36.4628C103.539 36.4869 103.485 36.4955 103.353 36.4113L104.613 34.4303ZM102.779 34.0687V31.7206H101.669V34.0687V36.4168H102.779V34.0687ZM101.669 34.0687H99.3206V49.6179H101.669H104.017V34.0687H101.669ZM111.19 52.2783H108.842V54.6264H111.19V52.2783ZM111.19 31.3566V29.0085H108.842V31.3566H111.19ZM119.972 31.3566H122.32V29.0085H119.972V31.3566ZM119.972 34.0428V36.391H122.32V34.0428H119.972ZM115.013 34.0428V31.6947H112.665V34.0428H115.013ZM115.013 40.0611H112.665V42.4092H115.013V40.0611ZM118.913 40.0611H121.261V37.7129H118.913V40.0611ZM118.913 42.7215V45.0696H121.261V42.7215H118.913ZM115.013 42.7215V40.3734H112.665V42.7215H115.013ZM115.013 49.6437H112.665V51.9918H115.013V49.6437ZM120.024 49.6437H122.372V47.2956H120.024V49.6437ZM120.024 52.2783V54.6264H122.372V52.2783H120.024ZM111.19 52.2783H113.539V31.3566H111.19H108.842V52.2783H111.19ZM111.19 31.3566V33.7047H119.972V31.3566V29.0085H111.19V31.3566ZM119.972 31.3566H117.624V34.0428H119.972H122.32V31.3566H119.972ZM119.972 34.0428V31.6947H115.013V34.0428V36.391H119.972V34.0428ZM115.013 34.0428H112.665V40.0611H115.013H117.361V34.0428H115.013ZM115.013 40.0611V42.4092H118.913V40.0611V37.7129H115.013V40.0611ZM118.913 40.0611H116.565V42.7215H118.913H121.261V40.0611H118.913ZM118.913 42.7215V40.3734H115.013V42.7215V45.0696H118.913V42.7215ZM115.013 42.7215H112.665V49.6437H115.013H117.361V42.7215H115.013ZM115.013 49.6437V51.9918H120.024V49.6437V47.2956H115.013V49.6437ZM120.024 49.6437H117.676V52.2783H120.024H122.372V49.6437H120.024ZM120.024 52.2783V49.9302H111.19V52.2783V54.6264H120.024V52.2783ZM121.205 52.2783H118.857V54.6264H121.205V52.2783ZM121.205 31.3566V29.0085H118.857V31.3566H121.205ZM123.866 31.3566L126.026 30.4356L125.417 29.0085H123.866V31.3566ZM128.954 43.2897L126.794 44.2107L131.302 43.2897H128.954ZM128.954 31.3566V29.0085H126.606V31.3566H128.954ZM132.105 31.3566H134.453V29.0085H132.105V31.3566ZM132.105 52.2783V54.6264H134.453V52.2783H132.105ZM129.574 52.2783L127.401 53.1674L127.998 54.6264H129.574V52.2783ZM124.46 39.7769L126.633 38.8879L122.112 39.7769H124.46ZM124.46 52.2783V54.6264H126.808V52.2783H124.46ZM121.205 52.2783H123.553V31.3566H121.205H118.857V52.2783H121.205ZM121.205 31.3566V33.7047H123.866V31.3566V29.0085H121.205V31.3566ZM123.866 31.3566L121.706 32.2776L126.794 44.2107L128.954 43.2897L131.114 42.3687L126.026 30.4356L123.866 31.3566ZM128.954 43.2897H131.302V31.3566H128.954H126.606V43.2897H128.954ZM128.954 31.3566V33.7047H132.105V31.3566V29.0085H128.954V31.3566ZM132.105 31.3566H129.757V52.2783H132.105H134.453V31.3566H132.105ZM132.105 52.2783V49.9302H129.574V52.2783V54.6264H132.105V52.2783ZM129.574 52.2783L131.747 51.3892L126.633 38.8879L124.46 39.7769L122.287 40.666L127.401 53.1674L129.574 52.2783ZM124.46 39.7769H122.112V52.2783H124.46H126.808V39.7769H124.46ZM124.46 52.2783V49.9302H121.205V52.2783V54.6264H124.46V52.2783ZM136.339 52.2783H133.991V54.6264H136.339V52.2783ZM136.339 34.172H138.687V31.8239H136.339V34.172ZM133.007 34.172H130.659V36.5201H133.007V34.172ZM133.007 31.3566V29.0085H130.659V31.3566H133.007ZM143.442 31.3566H145.79V29.0085H143.442V31.3566ZM143.442 34.172V36.5201H145.79V34.172H143.442ZM140.162 34.172V31.8239H137.814V34.172H140.162ZM140.162 52.2783V54.6264H142.51V52.2783H140.162ZM136.339 52.2783H138.687V34.172H136.339H133.991V52.2783H136.339ZM136.339 34.172V31.8239H133.007V34.172V36.5201H136.339V34.172ZM133.007 34.172H135.355V31.3566H133.007H130.659V34.172H133.007ZM133.007 31.3566V33.7047H143.442V31.3566V29.0085H133.007V31.3566ZM143.442 31.3566H141.094V34.172H143.442H145.79V31.3566H143.442ZM143.442 34.172V31.8239H140.162V34.172V36.5201H143.442V34.172ZM140.162 34.172H137.814V52.2783H140.162H142.51V34.172H140.162ZM140.162 52.2783V49.9302H136.339V52.2783V54.6264H140.162V52.2783Z" fill="white" mask="url(#path-5-outside-2_402_3490)"/>
</svg>
