<svg width="199" height="78" viewBox="0 0 199 78" fill="none" xmlns="http://www.w3.org/2000/svg">
<path d="M46.0847 20.2804C37.6334 8.97057 28.9935 12.6937 25.73 15.9691C26.2981 5.38163 15.5989 1.11732 10.1783 0.308594C14.4492 2.15653 17.9524 5.78796 19.1702 7.37268C18.463 7.12703 16.6436 6.83338 15.8222 6.71727C18.5751 9.15304 21.3629 13.8918 22.4127 15.9568C10.4072 7.8538 2.46862 12.2219 0 15.4188C2.60019 14.7943 4.6751 15.1036 5.38753 15.3363C7.82284 14.1937 11.1135 14.0231 12.4544 14.0807C10.6615 14.6343 9.57104 15.7341 9.24993 16.2148C11.6938 16.403 17.193 17.6326 19.6372 18.2238C11.3652 16.8231 6.79042 23.4667 5.537 26.9635C6.33698 25.9296 7.90993 25.5357 8.59642 25.468C9.48189 24.0576 11.8457 22.048 12.9169 21.2195C11.8042 22.6348 11.2676 23.9194 11.1383 24.3849C12.9202 23.0088 15.6903 22.4865 16.8525 22.3974C17.8919 20.6828 19.2072 20.3763 19.7349 20.4374C19.1572 21.2392 18.7776 22.1637 18.6601 22.5258C22.4535 22.3706 24.8491 24.3575 25.5727 25.3704C25.7266 24.444 25.8862 23.3681 25.9468 22.946C26.6038 24.283 26.8281 26.1154 26.8581 26.8645C27.928 28.1258 29.2162 30.5819 29.7266 31.6523C30.1651 30.5927 30.231 29.069 30.2091 28.4396C31.2337 29.7754 31.154 33.1433 30.9861 34.6603L32.3111 38.779C34.8711 30.9915 31.0371 24.0684 28.8001 21.5803C29.9151 22.1449 31.5047 23.6681 32.1602 24.3592C35.0132 25.2342 37.8983 26.9838 38.9842 27.7492C38.6411 26.3987 37.7584 24.4896 37.3599 23.7038C39.3262 24.9993 41.3251 27.8103 42.0787 29.0538L46.2418 32.6516C44.0607 20.732 32.3984 18.5932 26.8399 19.0137C27.1843 18.8658 29.7232 18.3971 30.9496 18.1812C30.8263 17.729 29.8062 16.684 29.3116 16.2181C31.1179 16.6006 32.4987 17.6852 32.9633 18.1797C34.2285 17.9585 37.76 18.4695 39.3675 18.7527C38.6873 17.8911 37.0119 16.32 36.2593 15.6422C39.4848 16.7434 41.5186 18.6646 42.1323 19.4875L46.0847 20.2804Z" fill="#153276"/>
<path d="M23.8416 26.6189C22.4288 25.0717 20.2984 24.6627 19.4099 24.6516C12.4131 37.4892 13.7453 58.9295 28.7732 69.8331C51.3325 86.2011 79.4553 72.7007 86.1535 51.9272L53.8982 34.0214L24.7418 49.1596C25.1417 50.4601 26.2746 52.8609 27.2076 54.0946L53.8982 40.3234L77.8559 54.0613C74.194 60.6242 69.2482 64.6927 64.2279 67.1494C57.0306 70.6715 48.736 70.4696 40.6358 67.9658C25.9269 63.4193 16.3781 44.5248 23.8416 26.6189Z" fill="#153276"/>
<path d="M34.6384 62.6974V46.7589L40.9361 43.7579V65.7317C38.8369 65.0982 35.9379 63.6311 34.6384 62.6974Z" fill="#153276"/>
<path d="M86.6866 49.7931L80.8554 46.592C82.5881 34.9217 78.7228 23.123 68.3265 15.0151C56.9705 6.15889 43.8351 9.61336 39.3034 11.5473C39.3034 11.5473 36.7709 10.9471 34.4718 10.9471C32.1726 10.9471 30.0733 11.5473 30.0733 11.5473C41.4026 2.04426 62.5618 0.743661 77.3566 15.3818C89.1924 27.0923 88.5082 43.1353 86.6866 49.7931Z" fill="#153276"/>
<path d="M47.8337 49.7598H53.1651V55.0949H47.8337V49.7598Z" fill="#153276"/>
<path d="M54.7646 49.7598H60.096V55.0949H54.7646V49.7598Z" fill="#153276"/>
<path d="M47.8337 56.6954H53.1651V62.0305H47.8337V56.6954Z" fill="#153276"/>
<path d="M54.7646 56.6954H60.096V62.0305H54.7646V56.6954Z" fill="#153276"/>
<path d="M71.9375 40.8823L84.4402 0L105.08 35.3254L89.6001 55.568L77.4942 48.2251L71.9375 40.8823Z" fill="#F1F5F6"/>
<mask id="path-3-outside-1_448_4056" maskUnits="userSpaceOnUse" x="54.9102" y="4.52539" width="105" height="36" fill="black">
<rect fill="white" x="54.9102" y="4.52539" width="105" height="36"/>
<path d="M66.191 36.9121C64.3161 36.9121 62.8279 36.5137 61.7264 35.7168C60.6248 34.92 59.828 33.795 59.3358 32.342C58.8671 30.8655 58.6327 29.1312 58.6327 27.1391V17.577C58.6327 15.538 58.8671 13.7802 59.3358 12.3037C59.8046 10.8272 60.6248 9.70229 61.7967 8.92888C62.9919 8.13204 64.6325 7.73362 66.7183 7.73362C68.6636 7.73362 70.2104 8.06173 71.3588 8.71796C72.5072 9.37418 73.3274 10.3234 73.8196 11.5655C74.3352 12.7842 74.593 14.2724 74.593 16.0302V17.5067H69.6362V15.8895C69.6362 14.9755 69.5659 14.1904 69.4253 13.5342C69.3081 12.8779 69.0503 12.3858 68.6519 12.0577C68.2769 11.7061 67.6558 11.5303 66.7887 11.5303C65.8746 11.5303 65.2067 11.753 64.7848 12.1983C64.3864 12.6436 64.1286 13.2295 64.0114 13.956C63.9177 14.6826 63.8708 15.4794 63.8708 16.3465V28.264C63.8708 29.2483 63.9528 30.1038 64.1169 30.8303C64.2809 31.5568 64.5856 32.1193 65.0309 32.5177C65.4762 32.8927 66.109 33.0802 66.9293 33.0802C67.773 33.0802 68.4175 32.8693 68.8628 32.4474C69.3081 32.0256 69.6128 31.4397 69.7768 30.6897C69.9643 29.9397 70.058 29.0491 70.058 28.0179V25.3462H66.9996V22.0768H74.7336V36.5254H71.3939L71.0072 33.713C70.6322 34.6505 70.058 35.4239 69.2846 36.0332C68.5347 36.6191 67.5035 36.9121 66.191 36.9121ZM77.2857 36.5254V8.05001H82.4886V32.9396H89.3789V36.5254H77.2857ZM98.0668 36.9121C96.0513 36.9121 94.4459 36.5371 93.2506 35.7871C92.0553 35.0372 91.1999 33.9591 90.6843 32.5529C90.1687 31.1467 89.9109 29.4827 89.9109 27.5609V16.909C89.9109 14.9872 90.1687 13.3467 90.6843 11.9874C91.1999 10.6046 92.0553 9.54995 93.2506 8.82342C94.4459 8.09689 96.0513 7.73362 98.0668 7.73362C100.129 7.73362 101.746 8.09689 102.918 8.82342C104.113 9.54995 104.969 10.6046 105.484 11.9874C106.023 13.3467 106.293 14.9872 106.293 16.909V27.5961C106.293 29.4944 106.023 31.1467 105.484 32.5529C104.969 33.9357 104.113 35.0137 102.918 35.7871C101.746 36.5371 100.129 36.9121 98.0668 36.9121ZM98.0668 33.0802C98.9339 33.0802 99.5667 32.8927 99.9652 32.5177C100.387 32.1428 100.668 31.6272 100.809 30.9709C100.949 30.3147 101.02 29.5999 101.02 28.8265V15.7138C101.02 14.9169 100.949 14.2021 100.809 13.5693C100.668 12.9365 100.387 12.4444 99.9652 12.0928C99.5667 11.7178 98.9339 11.5303 98.0668 11.5303C97.2465 11.5303 96.6254 11.7178 96.2036 12.0928C95.7817 12.4444 95.5005 12.9365 95.3599 13.5693C95.2193 14.2021 95.1489 14.9169 95.1489 15.7138V28.8265C95.1489 29.5999 95.2075 30.3147 95.3247 30.9709C95.4653 31.6272 95.7466 32.1428 96.1684 32.5177C96.5903 32.8927 97.2231 33.0802 98.0668 33.0802ZM108.735 36.5254V8.05001H115.731C116.997 8.05001 118.133 8.1672 119.141 8.40156C120.172 8.63593 121.051 9.03435 121.778 9.59682C122.528 10.1359 123.102 10.8741 123.5 11.8116C123.899 12.749 124.098 13.9326 124.098 15.3622C124.098 16.5106 123.934 17.4949 123.606 18.3152C123.301 19.1355 122.844 19.7917 122.235 20.2839C121.626 20.7526 120.864 21.069 119.95 21.2331C121.075 21.4206 122.001 21.819 122.727 22.4283C123.477 23.0142 124.028 23.7876 124.379 24.7485C124.754 25.7094 124.942 26.8695 124.942 28.2289C124.942 29.5882 124.766 30.7952 124.414 31.8498C124.086 32.881 123.582 33.7482 122.903 34.4513C122.247 35.1309 121.415 35.6465 120.407 35.9981C119.423 36.3496 118.262 36.5254 116.927 36.5254H108.735ZM113.938 32.8693H115.907C117.477 32.8693 118.544 32.4943 119.106 31.7443C119.669 30.9709 119.95 29.7874 119.95 28.1937C119.95 27.0453 119.809 26.1196 119.528 25.4165C119.27 24.6899 118.825 24.1509 118.192 23.7994C117.583 23.4478 116.762 23.272 115.731 23.272H113.938V32.8693ZM113.938 19.6862H115.696C116.727 19.6862 117.524 19.5339 118.087 19.2292C118.649 18.9246 119.036 18.4558 119.247 17.823C119.481 17.1903 119.598 16.3934 119.598 15.4325C119.598 14.4247 119.423 13.6513 119.071 13.1123C118.743 12.5498 118.239 12.1748 117.559 11.9874C116.88 11.7764 116.012 11.671 114.958 11.671H113.938V19.6862ZM125.388 36.5254L131.083 8.05001H136.637L142.332 36.5254H137.516L136.391 29.9514H131.434L130.274 36.5254H125.388ZM131.962 26.6469H135.829L133.895 14.6943L131.962 26.6469ZM143.79 36.5254V8.05001H148.993V32.9396H155.883V36.5254H143.79Z"/>
</mask>
<path d="M66.191 36.9121C64.3161 36.9121 62.8279 36.5137 61.7264 35.7168C60.6248 34.92 59.828 33.795 59.3358 32.342C58.8671 30.8655 58.6327 29.1312 58.6327 27.1391V17.577C58.6327 15.538 58.8671 13.7802 59.3358 12.3037C59.8046 10.8272 60.6248 9.70229 61.7967 8.92888C62.9919 8.13204 64.6325 7.73362 66.7183 7.73362C68.6636 7.73362 70.2104 8.06173 71.3588 8.71796C72.5072 9.37418 73.3274 10.3234 73.8196 11.5655C74.3352 12.7842 74.593 14.2724 74.593 16.0302V17.5067H69.6362V15.8895C69.6362 14.9755 69.5659 14.1904 69.4253 13.5342C69.3081 12.8779 69.0503 12.3858 68.6519 12.0577C68.2769 11.7061 67.6558 11.5303 66.7887 11.5303C65.8746 11.5303 65.2067 11.753 64.7848 12.1983C64.3864 12.6436 64.1286 13.2295 64.0114 13.956C63.9177 14.6826 63.8708 15.4794 63.8708 16.3465V28.264C63.8708 29.2483 63.9528 30.1038 64.1169 30.8303C64.2809 31.5568 64.5856 32.1193 65.0309 32.5177C65.4762 32.8927 66.109 33.0802 66.9293 33.0802C67.773 33.0802 68.4175 32.8693 68.8628 32.4474C69.3081 32.0256 69.6128 31.4397 69.7768 30.6897C69.9643 29.9397 70.058 29.0491 70.058 28.0179V25.3462H66.9996V22.0768H74.7336V36.5254H71.3939L71.0072 33.713C70.6322 34.6505 70.058 35.4239 69.2846 36.0332C68.5347 36.6191 67.5035 36.9121 66.191 36.9121ZM77.2857 36.5254V8.05001H82.4886V32.9396H89.3789V36.5254H77.2857ZM98.0668 36.9121C96.0513 36.9121 94.4459 36.5371 93.2506 35.7871C92.0553 35.0372 91.1999 33.9591 90.6843 32.5529C90.1687 31.1467 89.9109 29.4827 89.9109 27.5609V16.909C89.9109 14.9872 90.1687 13.3467 90.6843 11.9874C91.1999 10.6046 92.0553 9.54995 93.2506 8.82342C94.4459 8.09689 96.0513 7.73362 98.0668 7.73362C100.129 7.73362 101.746 8.09689 102.918 8.82342C104.113 9.54995 104.969 10.6046 105.484 11.9874C106.023 13.3467 106.293 14.9872 106.293 16.909V27.5961C106.293 29.4944 106.023 31.1467 105.484 32.5529C104.969 33.9357 104.113 35.0137 102.918 35.7871C101.746 36.5371 100.129 36.9121 98.0668 36.9121ZM98.0668 33.0802C98.9339 33.0802 99.5667 32.8927 99.9652 32.5177C100.387 32.1428 100.668 31.6272 100.809 30.9709C100.949 30.3147 101.02 29.5999 101.02 28.8265V15.7138C101.02 14.9169 100.949 14.2021 100.809 13.5693C100.668 12.9365 100.387 12.4444 99.9652 12.0928C99.5667 11.7178 98.9339 11.5303 98.0668 11.5303C97.2465 11.5303 96.6254 11.7178 96.2036 12.0928C95.7817 12.4444 95.5005 12.9365 95.3599 13.5693C95.2193 14.2021 95.1489 14.9169 95.1489 15.7138V28.8265C95.1489 29.5999 95.2075 30.3147 95.3247 30.9709C95.4653 31.6272 95.7466 32.1428 96.1684 32.5177C96.5903 32.8927 97.2231 33.0802 98.0668 33.0802ZM108.735 36.5254V8.05001H115.731C116.997 8.05001 118.133 8.1672 119.141 8.40156C120.172 8.63593 121.051 9.03435 121.778 9.59682C122.528 10.1359 123.102 10.8741 123.5 11.8116C123.899 12.749 124.098 13.9326 124.098 15.3622C124.098 16.5106 123.934 17.4949 123.606 18.3152C123.301 19.1355 122.844 19.7917 122.235 20.2839C121.626 20.7526 120.864 21.069 119.95 21.2331C121.075 21.4206 122.001 21.819 122.727 22.4283C123.477 23.0142 124.028 23.7876 124.379 24.7485C124.754 25.7094 124.942 26.8695 124.942 28.2289C124.942 29.5882 124.766 30.7952 124.414 31.8498C124.086 32.881 123.582 33.7482 122.903 34.4513C122.247 35.1309 121.415 35.6465 120.407 35.9981C119.423 36.3496 118.262 36.5254 116.927 36.5254H108.735ZM113.938 32.8693H115.907C117.477 32.8693 118.544 32.4943 119.106 31.7443C119.669 30.9709 119.95 29.7874 119.95 28.1937C119.95 27.0453 119.809 26.1196 119.528 25.4165C119.27 24.6899 118.825 24.1509 118.192 23.7994C117.583 23.4478 116.762 23.272 115.731 23.272H113.938V32.8693ZM113.938 19.6862H115.696C116.727 19.6862 117.524 19.5339 118.087 19.2292C118.649 18.9246 119.036 18.4558 119.247 17.823C119.481 17.1903 119.598 16.3934 119.598 15.4325C119.598 14.4247 119.423 13.6513 119.071 13.1123C118.743 12.5498 118.239 12.1748 117.559 11.9874C116.88 11.7764 116.012 11.671 114.958 11.671H113.938V19.6862ZM125.388 36.5254L131.083 8.05001H136.637L142.332 36.5254H137.516L136.391 29.9514H131.434L130.274 36.5254H125.388ZM131.962 26.6469H135.829L133.895 14.6943L131.962 26.6469ZM143.79 36.5254V8.05001H148.993V32.9396H155.883V36.5254H143.79Z" fill="#153276"/>
<path d="M61.7264 35.7168L63.5995 33.1274L61.7264 35.7168ZM59.3358 32.342L56.2898 33.309L56.299 33.3382L56.3089 33.3672L59.3358 32.342ZM59.3358 12.3037L62.3819 13.2708L62.3819 13.2708L59.3358 12.3037ZM61.7967 8.92888L63.5571 11.5962L63.5633 11.5921L63.5694 11.588L61.7967 8.92888ZM71.3588 8.71795L69.7732 11.4928H69.7732L71.3588 8.71795ZM73.8196 11.5655L70.8485 12.7427L70.862 12.7769L70.8763 12.8107L73.8196 11.5655ZM74.593 17.5067V20.7025H77.7889V17.5067H74.593ZM69.6362 17.5067H66.4403V20.7025H69.6362V17.5067ZM69.4253 13.5342L66.2791 14.096L66.2888 14.1501L66.3003 14.2038L69.4253 13.5342ZM68.6519 12.0577L66.4661 14.3892L66.541 14.4594L66.6202 14.5247L68.6519 12.0577ZM64.7848 12.1983L62.4648 10.0003L62.4335 10.0334L62.4031 10.0673L64.7848 12.1983ZM64.0114 13.956L60.8563 13.4471L60.8483 13.497L60.8418 13.547L64.0114 13.956ZM64.1169 30.8303L60.9995 31.5342V31.5342L64.1169 30.8303ZM65.0309 32.5177L62.8999 34.8995L62.9356 34.9314L62.9723 34.9623L65.0309 32.5177ZM68.8628 32.4474L66.6648 30.1274L66.6648 30.1274L68.8628 32.4474ZM69.7768 30.6897L66.6763 29.9146L66.6649 29.9605L66.6547 30.0067L69.7768 30.6897ZM70.058 25.3462H73.2539V22.1503H70.058V25.3462ZM66.9996 25.3462H63.8037V28.5421H66.9996V25.3462ZM66.9996 22.0768V18.8809H63.8037V22.0768H66.9996ZM74.7336 22.0768H77.9295V18.8809H74.7336V22.0768ZM74.7336 36.5254V39.7213H77.9295V36.5254H74.7336ZM71.3939 36.5254L68.2278 36.9607L68.6074 39.7213H71.3939V36.5254ZM71.0072 33.713L74.1733 33.2777L72.5274 21.3074L68.0399 32.5261L71.0072 33.713ZM69.2846 36.0332L71.2522 38.5517L71.2625 38.5436L69.2846 36.0332ZM66.191 36.9121V33.7162C64.7396 33.7162 63.984 33.4055 63.5995 33.1274L61.7264 35.7168L59.8532 38.3062C61.6718 39.6218 63.8926 40.108 66.191 40.108V36.9121ZM61.7264 35.7168L63.5995 33.1274C63.1034 32.7685 62.6706 32.2253 62.3628 31.3167L59.3358 32.342L56.3089 33.3672C56.9854 35.3648 58.1463 37.0715 59.8532 38.3062L61.7264 35.7168ZM59.3358 32.342L62.3819 31.375C62.0362 30.2858 61.8286 28.8918 61.8286 27.1391H58.6327H55.4369C55.4369 29.3705 55.698 31.4451 56.2898 33.309L59.3358 32.342ZM58.6327 27.1391H61.8286V17.577H58.6327H55.4369V27.1391H58.6327ZM58.6327 17.577H61.8286C61.8286 15.7687 62.0382 14.3535 62.3819 13.2708L59.3358 12.3037L56.2898 11.3367C55.696 13.2069 55.4369 15.3073 55.4369 17.577H58.6327ZM59.3358 12.3037L62.3819 13.2708C62.6537 12.4148 63.0597 11.9245 63.5571 11.5962L61.7967 8.92888L60.0362 6.26156C58.19 7.4801 56.9555 9.23973 56.2898 11.3367L59.3358 12.3037ZM61.7967 8.92888L63.5694 11.588C64.0523 11.2661 64.9925 10.9295 66.7183 10.9295V7.73362V4.53773C64.2725 4.53773 61.9316 4.99796 60.0239 6.26974L61.7967 8.92888ZM66.7183 7.73362V10.9295C68.3514 10.9295 69.2827 11.2125 69.7732 11.4928L71.3588 8.71795L72.9444 5.94315C71.1381 4.91098 68.9758 4.53773 66.7183 4.53773V7.73362ZM71.3588 8.71795L69.7732 11.4928C70.2849 11.7852 70.6205 12.1675 70.8485 12.7427L73.8196 11.5655L76.7908 10.3882C76.0344 8.47924 74.7294 6.96319 72.9444 5.94315L71.3588 8.71795ZM73.8196 11.5655L70.8763 12.8107C71.1802 13.529 71.3971 14.5671 71.3971 16.0302H74.593H77.7889C77.7889 13.9777 77.4902 12.0394 76.7629 10.3202L73.8196 11.5655ZM74.593 16.0302H71.3971V17.5067H74.593H77.7889V16.0302H74.593ZM74.593 17.5067V14.3108H69.6362V17.5067V20.7025H74.593V17.5067ZM69.6362 17.5067H72.8321V15.8895H69.6362H66.4403V17.5067H69.6362ZM69.6362 15.8895H72.8321C72.8321 14.8253 72.7514 13.8036 72.5502 12.8645L69.4253 13.5342L66.3003 14.2038C66.3803 14.5771 66.4403 15.1257 66.4403 15.8895H69.6362ZM69.4253 13.5342L72.5714 12.9724C72.3605 11.7912 71.8214 10.5277 70.6835 9.59066L68.6519 12.0577L66.6202 14.5247C66.4654 14.3971 66.3669 14.2586 66.313 14.1558C66.2637 14.0617 66.2668 14.0271 66.2791 14.096L69.4253 13.5342ZM68.6519 12.0577L70.8377 9.72614C69.5769 8.54419 67.948 8.33445 66.7887 8.33445V11.5303V14.7262C67.0218 14.7262 67.0851 14.7516 67.0345 14.7373C66.9764 14.7208 66.7345 14.6409 66.4661 14.3892L68.6519 12.0577ZM66.7887 11.5303V8.33445C65.4268 8.33445 63.7328 8.66179 62.4648 10.0003L64.7848 12.1983L67.1049 14.3962C66.9043 14.608 66.7029 14.6992 66.6128 14.7292C66.5403 14.7534 66.5784 14.7262 66.7887 14.7262V11.5303ZM64.7848 12.1983L62.4031 10.0673C61.5117 11.0635 61.0482 12.2572 60.8563 13.4471L64.0114 13.956L67.1665 14.4649C67.1882 14.3307 67.2133 14.2693 67.2179 14.2588C67.2209 14.252 67.2073 14.2837 67.1665 14.3293L64.7848 12.1983ZM64.0114 13.956L60.8418 13.547C60.7277 14.4311 60.6749 15.3667 60.6749 16.3465H63.8708H67.0667C67.0667 15.5921 67.1076 14.934 67.181 14.365L64.0114 13.956ZM63.8708 16.3465H60.6749V28.264H63.8708H67.0667V16.3465H63.8708ZM63.8708 28.264H60.6749C60.6749 29.4144 60.7697 30.5166 60.9995 31.5342L64.1169 30.8303L67.2343 30.1264C67.136 29.691 67.0667 29.0823 67.0667 28.264H63.8708ZM64.1169 30.8303L60.9995 31.5342C61.2735 32.7476 61.8489 33.9591 62.8999 34.8995L65.0309 32.5177L67.1619 30.136C67.1949 30.1656 67.2219 30.1952 67.2427 30.2218C67.2632 30.2482 67.2745 30.2673 67.2786 30.2749C67.2863 30.2892 67.2622 30.2498 67.2343 30.1264L64.1169 30.8303ZM65.0309 32.5177L62.9723 34.9623C64.1902 35.9879 65.6601 36.2761 66.9293 36.2761V33.0802V29.8843C66.7552 29.8843 66.7077 29.8636 66.7474 29.8754C66.7968 29.89 66.9332 29.9415 67.0895 30.0732L65.0309 32.5177ZM66.9293 33.0802V36.2761C68.2796 36.2761 69.829 35.9344 71.0607 34.7675L68.8628 32.4474L66.6648 30.1274C66.8203 29.9801 66.9721 29.9106 67.0514 29.8847C67.1173 29.8631 67.0924 29.8843 66.9293 29.8843V33.0802ZM68.8628 32.4474L71.0607 34.7675C72.0762 33.8055 72.6324 32.5906 72.8989 31.3726L69.7768 30.6897L66.6547 30.0067C66.6234 30.1499 66.5931 30.2109 66.5898 30.2172C66.5884 30.2198 66.5932 30.2102 66.6065 30.1923C66.62 30.1742 66.6394 30.1515 66.6648 30.1274L68.8628 32.4474ZM69.7768 30.6897L72.8773 31.4648C73.1452 30.3932 73.2539 29.2294 73.2539 28.0179H70.058H66.8622C66.8622 28.8689 66.7834 29.4862 66.6763 29.9146L69.7768 30.6897ZM70.058 28.0179H73.2539V25.3462H70.058H66.8622V28.0179H70.058ZM70.058 25.3462V22.1503H66.9996V25.3462V28.5421H70.058V25.3462ZM66.9996 25.3462H70.1955V22.0768H66.9996H63.8037V25.3462H66.9996ZM66.9996 22.0768V25.2727H74.7336V22.0768V18.8809H66.9996V22.0768ZM74.7336 22.0768H71.5377V36.5254H74.7336H77.9295V22.0768H74.7336ZM74.7336 36.5254V33.3295H71.3939V36.5254V39.7213H74.7336V36.5254ZM71.3939 36.5254L74.56 36.09L74.1733 33.2777L71.0072 33.713L67.8411 34.1483L68.2278 36.9607L71.3939 36.5254ZM71.0072 33.713L68.0399 32.5261C67.8675 32.9572 67.6285 33.2694 67.3068 33.5229L69.2846 36.0332L71.2625 38.5436C72.4876 37.5783 73.397 36.3438 73.9745 34.8999L71.0072 33.713ZM69.2846 36.0332L67.3171 33.5148C67.3081 33.5218 67.0569 33.7162 66.191 33.7162V36.9121V40.108C67.95 40.108 69.7613 39.7164 71.2522 38.5517L69.2846 36.0332ZM77.2857 36.5254H74.0898V39.7213H77.2857V36.5254ZM77.2857 8.05001V4.85412H74.0898V8.05001H77.2857ZM82.4886 8.05001H85.6844V4.85412H82.4886V8.05001ZM82.4886 32.9396H79.2927V36.1355H82.4886V32.9396ZM89.3789 32.9396H92.5748V29.7437H89.3789V32.9396ZM89.3789 36.5254V39.7213H92.5748V36.5254H89.3789ZM77.2857 36.5254H80.4815V8.05001H77.2857H74.0898V36.5254H77.2857ZM77.2857 8.05001V11.2459H82.4886V8.05001V4.85412H77.2857V8.05001ZM82.4886 8.05001H79.2927V32.9396H82.4886H85.6844V8.05001H82.4886ZM82.4886 32.9396V36.1355H89.3789V32.9396V29.7437H82.4886V32.9396ZM89.3789 32.9396H86.183V36.5254H89.3789H92.5748V32.9396H89.3789ZM89.3789 36.5254V33.3295H77.2857V36.5254V39.7213H89.3789V36.5254ZM93.2506 35.7871L94.9492 33.08V33.08L93.2506 35.7871ZM90.6843 11.9874L93.6724 13.1208L93.6756 13.1124L93.6788 13.1039L90.6843 11.9874ZM93.2506 8.82342L94.9106 11.5544V11.5544L93.2506 8.82342ZM102.918 8.82342L101.234 11.5396L101.246 11.547L101.258 11.5544L102.918 8.82342ZM105.484 11.9874L102.49 13.1039L102.501 13.1348L102.514 13.1654L105.484 11.9874ZM105.484 32.5529L102.5 31.409L102.495 31.4226L102.49 31.4363L105.484 32.5529ZM102.918 35.7871L104.641 38.4789L104.648 38.4746L104.654 38.4703L102.918 35.7871ZM99.9652 32.5177L97.8419 30.1291L97.8079 30.1593L97.7748 30.1905L99.9652 32.5177ZM100.809 30.9709L103.934 31.6406V31.6406L100.809 30.9709ZM100.809 13.5693L103.929 12.876V12.876L100.809 13.5693ZM99.9652 12.0928L97.7748 14.4201L97.8451 14.4862L97.9192 14.548L99.9652 12.0928ZM96.2036 12.0928L98.2496 14.548L98.2887 14.5153L98.3268 14.4815L96.2036 12.0928ZM95.3599 13.5693L92.2401 12.876V12.876L95.3599 13.5693ZM95.3247 30.9709L92.1786 31.5327L92.1883 31.5868L92.1998 31.6406L95.3247 30.9709ZM96.1684 32.5177L98.2917 30.1291V30.1291L96.1684 32.5177ZM98.0668 36.9121V33.7162C96.4075 33.7162 95.4618 33.4017 94.9492 33.08L93.2506 35.7871L91.552 38.4943C93.4299 39.6725 95.695 40.108 98.0668 40.108V36.9121ZM93.2506 35.7871L94.9492 33.08C94.3923 32.7306 93.9726 32.2375 93.6848 31.4527L90.6843 32.5529L87.6837 33.6531C88.4272 35.6807 89.7184 37.3437 91.552 38.4943L93.2506 35.7871ZM90.6843 32.5529L93.6848 31.4527C93.3292 30.4828 93.1068 29.2085 93.1068 27.5609H89.9109H86.715C86.715 29.7569 87.0082 31.8106 87.6837 33.6531L90.6843 32.5529ZM89.9109 27.5609H93.1068V16.909H89.9109H86.715V27.5609H89.9109ZM89.9109 16.909H93.1068C93.1068 15.2568 93.3305 14.0222 93.6724 13.1208L90.6843 11.9874L87.6961 10.8539C87.0069 12.6711 86.715 14.7176 86.715 16.909H89.9109ZM90.6843 11.9874L93.6788 13.1039C93.9584 12.3541 94.3642 11.8865 94.9106 11.5544L93.2506 8.82342L91.5906 6.09246C89.7465 7.21341 88.4414 8.85505 87.6898 10.8708L90.6843 11.9874ZM93.2506 8.82342L94.9106 11.5544C95.4317 11.2376 96.3929 10.9295 98.0668 10.9295V7.73362V4.53773C95.7096 4.53773 93.46 4.95616 91.5906 6.09246L93.2506 8.82342ZM98.0668 7.73362V10.9295C99.8093 10.9295 100.76 11.2455 101.234 11.5396L102.918 8.82342L104.602 6.10722C102.733 4.94832 100.449 4.53773 98.0668 4.53773V7.73362ZM102.918 8.82342L101.258 11.5544C101.805 11.8865 102.21 12.3541 102.49 13.1039L105.484 11.9874L108.479 10.8708C107.727 8.85505 106.422 7.21341 104.578 6.09246L102.918 8.82342ZM105.484 11.9874L102.514 13.1654C102.865 14.0523 103.097 15.2705 103.097 16.909H106.293H109.489C109.489 14.704 109.182 12.641 108.455 10.8093L105.484 11.9874ZM106.293 16.909H103.097V27.5961H106.293H109.489V16.909H106.293ZM106.293 27.5961H103.097C103.097 29.2011 102.868 30.4493 102.5 31.409L105.484 32.5529L108.469 33.6968C109.179 31.8442 109.489 29.7877 109.489 27.5961H106.293ZM105.484 32.5529L102.49 31.4363C102.205 32.2004 101.778 32.7183 101.182 33.104L102.918 35.7871L104.654 38.4703C106.449 37.3092 107.733 35.6709 108.479 33.6695L105.484 32.5529ZM102.918 35.7871L101.195 33.0953C100.73 33.3935 99.7951 33.7162 98.0668 33.7162V36.9121V40.108C100.463 40.108 102.763 39.6807 104.641 38.4789L102.918 35.7871ZM98.0668 33.0802V36.2761C99.2921 36.2761 100.9 36.027 102.156 34.845L99.9652 32.5177L97.7748 30.1905C98.0072 29.9718 98.2187 29.8947 98.2838 29.8754C98.3379 29.8594 98.2834 29.8843 98.0668 29.8843V33.0802ZM99.9652 32.5177L102.088 34.9064C103.109 33.999 103.678 32.8325 103.934 31.6406L100.809 30.9709L97.6839 30.3013C97.6691 30.3707 97.6609 30.367 97.6868 30.3194C97.7153 30.2672 97.7666 30.1961 97.8419 30.1291L99.9652 32.5177ZM100.809 30.9709L103.934 31.6406C104.128 30.7339 104.216 29.7917 104.216 28.8265H101.02H97.8239C97.8239 29.4081 97.7709 29.8955 97.6839 30.3013L100.809 30.9709ZM101.02 28.8265H104.216V15.7138H101.02H97.8239V28.8265H101.02ZM101.02 15.7138H104.216C104.216 14.7346 104.13 13.7813 103.929 12.876L100.809 13.5693L97.6891 14.2626C97.7692 14.6229 97.8239 15.0992 97.8239 15.7138H101.02ZM100.809 13.5693L103.929 12.876C103.663 11.6825 103.069 10.5196 102.011 9.63766L99.9652 12.0928L97.9192 14.548C97.8278 14.4718 97.76 14.3853 97.7177 14.3112C97.6782 14.2422 97.6786 14.2152 97.6891 14.2626L100.809 13.5693ZM99.9652 12.0928L102.156 9.76557C100.9 8.58353 99.2921 8.33445 98.0668 8.33445V11.5303V14.7262C98.2834 14.7262 98.3379 14.7512 98.2838 14.7352C98.2187 14.7159 98.0072 14.6387 97.7748 14.4201L99.9652 12.0928ZM98.0668 11.5303V8.33445C96.8127 8.33445 95.304 8.61652 94.0804 9.70417L96.2036 12.0928L98.3268 14.4815C98.1431 14.6448 97.9765 14.7102 97.9094 14.7305C97.8535 14.7474 97.891 14.7262 98.0668 14.7262V11.5303ZM96.2036 12.0928L94.1576 9.63766C93.0993 10.5196 92.5053 11.6825 92.2401 12.876L95.3599 13.5693L98.4797 14.2626C98.4902 14.2152 98.4905 14.2422 98.4511 14.3112C98.4088 14.3853 98.3409 14.4718 98.2496 14.548L96.2036 12.0928ZM95.3599 13.5693L92.2401 12.876C92.0389 13.7813 91.9531 14.7346 91.9531 15.7138H95.1489H98.3448C98.3448 15.0992 98.3996 14.6229 98.4797 14.2626L95.3599 13.5693ZM95.1489 15.7138H91.9531V28.8265H95.1489H98.3448V15.7138H95.1489ZM95.1489 28.8265H91.9531C91.9531 29.7591 92.0235 30.6644 92.1786 31.5327L95.3247 30.9709L98.4708 30.4091C98.3915 29.965 98.3448 29.4407 98.3448 28.8265H95.1489ZM95.3247 30.9709L92.1998 31.6406C92.4552 32.8325 93.0244 33.999 94.0452 34.9064L96.1684 32.5177L98.2917 30.1291C98.367 30.1961 98.4183 30.2672 98.4468 30.3194C98.4727 30.367 98.4645 30.3707 98.4497 30.3013L95.3247 30.9709ZM96.1684 32.5177L94.0452 34.9064C95.2829 36.0066 96.8171 36.2761 98.0668 36.2761V33.0802V29.8843C97.8714 29.8843 97.8203 29.8615 97.8673 29.8754C97.9251 29.8925 98.0975 29.9565 98.2917 30.1291L96.1684 32.5177ZM108.735 36.5254H105.54V39.7213H108.735V36.5254ZM108.735 8.05001V4.85412H105.54V8.05001H108.735ZM119.141 8.40156L118.417 11.5144L118.425 11.5162L118.433 11.518L119.141 8.40156ZM121.778 9.59682L119.821 12.1239L119.866 12.1587L119.913 12.1919L121.778 9.59682ZM123.5 11.8116L126.442 10.5615V10.5615L123.5 11.8116ZM123.606 18.3152L120.639 17.1283L120.624 17.1652L120.61 17.2024L123.606 18.3152ZM122.235 20.2839L124.183 22.817L124.214 22.7939L124.243 22.7701L122.235 20.2839ZM119.95 21.2331L119.385 18.0874L119.424 24.3855L119.95 21.2331ZM122.727 22.4283L120.673 24.877L120.716 24.9126L120.76 24.9468L122.727 22.4283ZM124.379 24.7485L121.378 25.8466L121.39 25.8786L121.402 25.9104L124.379 24.7485ZM124.414 31.8498L121.383 30.8392L121.376 30.8599L121.369 30.8808L124.414 31.8498ZM122.903 34.4513L120.605 32.23L120.604 32.2314L122.903 34.4513ZM120.407 35.9981L119.354 32.9805L119.343 32.9844L119.332 32.9884L120.407 35.9981ZM113.938 32.8693H110.742V36.0652H113.938V32.8693ZM119.106 31.7443L121.663 33.6619L121.677 33.6431L121.691 33.6241L119.106 31.7443ZM119.528 25.4165L116.516 26.4852L116.537 26.5448L116.561 26.6034L119.528 25.4165ZM118.192 23.7994L116.595 26.5676L116.617 26.5805L116.64 26.5931L118.192 23.7994ZM113.938 23.272V20.0761H110.742V23.272H113.938ZM113.938 19.6862H110.742V22.8821H113.938V19.6862ZM118.087 19.2292L119.609 22.0394H119.609L118.087 19.2292ZM119.247 17.823L116.25 16.7131L116.231 16.7625L116.215 16.8124L119.247 17.823ZM119.071 13.1123L116.31 14.7226L116.351 14.7914L116.394 14.8581L119.071 13.1123ZM117.559 11.9874L116.612 15.0396L116.661 15.0547L116.709 15.0682L117.559 11.9874ZM113.938 11.671V8.47507H110.742V11.671H113.938ZM108.735 36.5254H111.931V8.05001H108.735H105.54V36.5254H108.735ZM108.735 8.05001V11.2459H115.731V8.05001V4.85412H108.735V8.05001ZM115.731 8.05001V11.2459C116.805 11.2459 117.693 11.3458 118.417 11.5144L119.141 8.40156L119.865 5.28874C118.574 4.98855 117.189 4.85412 115.731 4.85412V8.05001ZM119.141 8.40156L118.433 11.518C119.079 11.6647 119.515 11.8864 119.821 12.1239L121.778 9.59682L123.734 7.06976C122.588 6.18225 121.266 5.60716 119.85 5.28514L119.141 8.40156ZM121.778 9.59682L119.913 12.1919C120.14 12.3551 120.365 12.6054 120.559 13.0616L123.5 11.8116L126.442 10.5615C125.839 9.1428 124.916 7.91667 123.643 7.00171L121.778 9.59682ZM123.5 11.8116L120.559 13.0616C120.736 13.4784 120.902 14.2011 120.902 15.3622H124.098H127.294C127.294 13.6641 127.061 12.0196 126.442 10.5615L123.5 11.8116ZM124.098 15.3622H120.902C120.902 16.22 120.778 16.7801 120.639 17.1283L123.606 18.3152L126.573 19.5021C127.09 18.2098 127.294 16.8011 127.294 15.3622H124.098ZM123.606 18.3152L120.61 17.2024C120.481 17.5491 120.339 17.7073 120.227 17.7977L122.235 20.2839L124.243 22.7701C125.35 21.8762 126.121 20.7219 126.602 19.428L123.606 18.3152ZM122.235 20.2839L120.286 17.7507C120.159 17.849 119.899 17.9952 119.385 18.0874L119.95 21.2331L120.514 24.3787C121.828 24.1428 123.092 23.6562 124.183 22.817L122.235 20.2839ZM119.95 21.2331L119.424 24.3855C120.101 24.4982 120.465 24.7025 120.673 24.877L122.727 22.4283L124.781 19.9797C123.536 18.9354 122.049 18.3429 120.475 18.0807L119.95 21.2331ZM122.727 22.4283L120.76 24.9468C121.003 25.1374 121.216 25.4026 121.378 25.8466L124.379 24.7485L127.381 23.6505C126.84 22.1727 125.951 20.8911 124.695 19.9099L122.727 22.4283ZM124.379 24.7485L121.402 25.9104C121.595 26.4039 121.746 27.1475 121.746 28.2289H124.942H128.138C128.138 26.5916 127.914 25.015 127.357 23.5867L124.379 24.7485ZM124.942 28.2289H121.746C121.746 29.3184 121.604 30.1737 121.383 30.8392L124.414 31.8498L127.446 32.8604C127.928 31.4167 128.138 29.858 128.138 28.2289H124.942ZM124.414 31.8498L121.369 30.8808C121.174 31.4933 120.907 31.9175 120.605 32.23L122.903 34.4513L125.201 36.6725C126.258 35.5788 126.999 34.2688 127.46 32.8188L124.414 31.8498ZM122.903 34.4513L120.604 32.2314C120.338 32.507 119.952 32.7721 119.354 32.9805L120.407 35.9981L121.459 39.0156C122.878 38.5209 124.156 37.7548 125.202 36.6711L122.903 34.4513ZM120.407 35.9981L119.332 32.9884C118.773 33.1878 117.993 33.3295 116.927 33.3295V36.5254V39.7213C118.532 39.7213 120.072 39.5114 121.482 39.0078L120.407 35.9981ZM116.927 36.5254V33.3295H108.735V36.5254V39.7213H116.927V36.5254ZM113.938 32.8693V36.0652H115.907V32.8693V29.6734H113.938V32.8693ZM115.907 32.8693V36.0652C117.812 36.0652 120.184 35.6337 121.663 33.6619L119.106 31.7443L116.549 29.8268C116.72 29.5999 116.885 29.5516 116.824 29.5731C116.736 29.6042 116.461 29.6734 115.907 29.6734V32.8693ZM119.106 31.7443L121.691 33.6241C122.837 32.0475 123.146 30.0545 123.146 28.1937H119.95H116.754C116.754 28.8137 116.698 29.2493 116.63 29.5378C116.561 29.8258 116.496 29.899 116.521 29.8646L119.106 31.7443ZM119.95 28.1937H123.146C123.146 26.8277 122.985 25.453 122.495 24.2296L119.528 25.4165L116.561 26.6034C116.634 26.7862 116.754 27.2629 116.754 28.1937H119.95ZM119.528 25.4165L122.54 24.3477C122.04 22.9395 121.104 21.7611 119.744 21.0056L118.192 23.7994L116.64 26.5931C116.633 26.5894 116.617 26.5796 116.596 26.5621C116.575 26.5445 116.554 26.524 116.537 26.5027C116.499 26.4564 116.499 26.4377 116.516 26.4852L119.528 25.4165ZM118.192 23.7994L119.789 21.0311C118.519 20.2985 117.079 20.0761 115.731 20.0761V23.272V26.4679C116.071 26.4679 116.303 26.4974 116.45 26.5288C116.595 26.5599 116.628 26.5868 116.595 26.5676L118.192 23.7994ZM115.731 23.272V20.0761H113.938V23.272V26.4679H115.731V23.272ZM113.938 23.272H110.742V32.8693H113.938H117.134V23.272H113.938ZM113.938 19.6862V22.8821H115.696V19.6862V16.4904H113.938V19.6862ZM115.696 19.6862V22.8821C116.968 22.8821 118.377 22.7068 119.609 22.0394L118.087 19.2292L116.564 16.4191C116.637 16.3797 116.625 16.4027 116.467 16.433C116.311 16.4628 116.062 16.4904 115.696 16.4904V19.6862ZM118.087 19.2292L119.609 22.0394C120.918 21.3304 121.823 20.1999 122.279 18.8337L119.247 17.823L116.215 16.8124C116.222 16.7923 116.253 16.7126 116.333 16.6154C116.415 16.5162 116.504 16.452 116.564 16.4191L118.087 19.2292ZM119.247 17.823L122.244 18.933C122.653 17.8289 122.794 16.6248 122.794 15.4325H119.598H116.402C116.402 16.1621 116.31 16.5516 116.25 16.7131L119.247 17.823ZM119.598 15.4325H122.794C122.794 14.1277 122.579 12.6416 121.748 11.3665L119.071 13.1123L116.394 14.8581C116.321 14.7465 116.327 14.7046 116.35 14.8049C116.373 14.9066 116.402 15.1062 116.402 15.4325H119.598ZM119.071 13.1123L121.831 11.502C121.046 10.1557 119.82 9.29576 118.409 8.90653L117.559 11.9874L116.709 15.0682C116.714 15.0695 116.641 15.0491 116.539 14.9731C116.433 14.8939 116.355 14.7995 116.31 14.7226L119.071 13.1123ZM117.559 11.9874L118.507 8.93507C117.411 8.595 116.195 8.47507 114.958 8.47507V11.671V14.8668C115.83 14.8668 116.348 14.9578 116.612 15.0396L117.559 11.9874ZM114.958 11.671V8.47507H113.938V11.671V14.8668H114.958V11.671ZM113.938 11.671H110.742V19.6862H113.938H117.134V11.671H113.938ZM125.388 36.5254L122.254 35.8986L121.489 39.7213H125.388V36.5254ZM131.083 8.05001V4.85412H128.463L127.949 7.42325L131.083 8.05001ZM136.637 8.05001L139.771 7.42325L139.257 4.85412H136.637V8.05001ZM142.332 36.5254V39.7213H146.231L145.466 35.8986L142.332 36.5254ZM137.516 36.5254L134.366 37.0644L134.821 39.7213H137.516V36.5254ZM136.391 29.9514L139.541 29.4124L139.087 26.7556H136.391V29.9514ZM131.434 29.9514V26.7556H128.753L128.287 29.396L131.434 29.9514ZM130.274 36.5254V39.7213H132.956L133.422 37.0808L130.274 36.5254ZM131.962 26.6469L128.807 26.1365L128.207 29.8428H131.962V26.6469ZM135.829 26.6469V29.8428H139.583L138.984 26.1365L135.829 26.6469ZM133.895 14.6943L137.05 14.1839H130.74L133.895 14.6943ZM125.388 36.5254L128.522 37.1522L134.217 8.67678L131.083 8.05001L127.949 7.42325L122.254 35.8986L125.388 36.5254ZM131.083 8.05001V11.2459H136.637V8.05001V4.85412H131.083V8.05001ZM136.637 8.05001L133.504 8.67678L139.199 37.1522L142.332 36.5254L145.466 35.8986L139.771 7.42325L136.637 8.05001ZM142.332 36.5254V33.3295H137.516V36.5254V39.7213H142.332V36.5254ZM137.516 36.5254L140.666 35.9863L139.541 29.4124L136.391 29.9514L133.241 30.4905L134.366 37.0644L137.516 36.5254ZM136.391 29.9514V26.7556H131.434V29.9514V33.1473H136.391V29.9514ZM131.434 29.9514L128.287 29.396L127.127 35.97L130.274 36.5254L133.422 37.0808L134.582 30.5068L131.434 29.9514ZM130.274 36.5254V33.3295H125.388V36.5254V39.7213H130.274V36.5254ZM131.962 26.6469V29.8428H135.829V26.6469V23.451H131.962V26.6469ZM135.829 26.6469L138.984 26.1365L137.05 14.1839L133.895 14.6943L130.74 15.2046L132.674 27.1572L135.829 26.6469ZM133.895 14.6943L130.74 14.1839L128.807 26.1365L131.962 26.6469L135.117 27.1572L137.05 15.2046L133.895 14.6943ZM143.79 36.5254H140.594V39.7213H143.79V36.5254ZM143.79 8.05001V4.85412H140.594V8.05001H143.79ZM148.993 8.05001H152.189V4.85412H148.993V8.05001ZM148.993 32.9396H145.797V36.1355H148.993V32.9396ZM155.883 32.9396H159.079V29.7437H155.883V32.9396ZM155.883 36.5254V39.7213H159.079V36.5254H155.883ZM143.79 36.5254H146.986V8.05001H143.79H140.594V36.5254H143.79ZM143.79 8.05001V11.2459H148.993V8.05001V4.85412H143.79V8.05001ZM148.993 8.05001H145.797V32.9396H148.993H152.189V8.05001H148.993ZM148.993 32.9396V36.1355H155.883V32.9396V29.7437H148.993V32.9396ZM155.883 32.9396H152.687V36.5254H155.883H159.079V32.9396H155.883ZM155.883 36.5254V33.3295H143.79V36.5254V39.7213H155.883V36.5254Z" fill="#F1F5F6" mask="url(#path-3-outside-1_448_4056)"/>
<mask id="path-5-outside-2_448_4056" maskUnits="userSpaceOnUse" x="72.8574" y="38.1289" width="126" height="36" fill="black">
<rect fill="white" x="72.8574" y="38.1289" width="126" height="36"/>
<path d="M77.0019 70.1289V41.6535H83.8219C85.7437 41.6535 87.3608 41.8879 88.6733 42.3566C90.0091 42.8019 91.0169 43.5753 91.6966 44.6768C92.3997 45.7784 92.7512 47.2783 92.7512 49.1767C92.7512 50.325 92.6457 51.3562 92.4348 52.2703C92.2239 53.1843 91.8606 53.9694 91.345 54.6256C90.8528 55.2584 90.1615 55.7506 89.2709 56.1021L93.2434 70.1289H88.0405L84.5953 57.0865H82.2048V70.1289H77.0019ZM82.2048 53.8171H83.8219C84.8297 53.8171 85.6265 53.6765 86.2124 53.3952C86.8218 53.0906 87.2553 52.6218 87.5131 51.989C87.7709 51.3328 87.8998 50.5008 87.8998 49.493C87.8998 48.0634 87.6303 46.9971 87.0913 46.294C86.5757 45.5674 85.5796 45.2042 84.1031 45.2042H82.2048V53.8171ZM95.3016 70.1289V41.6535H107.254V45.3096H100.504V53.5007H105.813V57.1216H100.504V66.5431H107.325V70.1289H95.3016ZM116.104 70.5156C114.393 70.5156 112.963 70.1875 111.815 69.5313C110.667 68.8516 109.799 67.8673 109.214 66.5783C108.628 65.2893 108.3 63.7073 108.229 61.8324L112.694 60.9535C112.741 62.055 112.87 63.0276 113.081 63.8714C113.315 64.7151 113.655 65.3713 114.1 65.84C114.569 66.2853 115.178 66.508 115.928 66.508C116.772 66.508 117.369 66.2619 117.721 65.7697C118.073 65.2541 118.248 64.6096 118.248 63.8362C118.248 62.5941 117.967 61.5746 117.405 60.7777C116.842 59.9809 116.092 59.184 115.155 58.3872L111.569 55.2233C110.561 54.3561 109.753 53.3952 109.143 52.3406C108.557 51.2625 108.264 49.9383 108.264 48.3681C108.264 46.1182 108.921 44.3839 110.233 43.1652C111.545 41.9465 113.338 41.3371 115.612 41.3371C116.948 41.3371 118.061 41.5481 118.951 41.9699C119.842 42.3683 120.545 42.9308 121.061 43.6574C121.6 44.3839 121.998 45.2159 122.256 46.1533C122.514 47.0674 122.678 48.04 122.748 49.0712L118.319 49.8446C118.272 48.954 118.166 48.1572 118.002 47.4541C117.862 46.751 117.592 46.2002 117.194 45.8018C116.819 45.4034 116.256 45.2042 115.506 45.2042C114.733 45.2042 114.135 45.462 113.713 45.9776C113.315 46.4697 113.116 47.0908 113.116 47.8408C113.116 48.8017 113.315 49.5985 113.713 50.2313C114.112 50.8406 114.686 51.4734 115.436 52.1297L118.987 55.2584C120.158 56.2428 121.154 57.4029 121.975 58.7388C122.818 60.0512 123.24 61.6449 123.24 63.5198C123.24 64.8791 122.936 66.0861 122.326 67.1407C121.74 68.1954 120.908 69.0274 119.83 69.6367C118.776 70.2227 117.534 70.5156 116.104 70.5156ZM125.038 70.1289V41.6535H130.171V70.1289H125.038ZM133.173 70.1289V41.6535H139.887C142.207 41.6535 144.012 41.9699 145.301 42.6027C146.613 43.2355 147.539 44.2081 148.078 45.5206C148.641 46.833 148.922 48.497 148.922 50.5125V60.9184C148.922 62.9808 148.641 64.7034 148.078 66.0861C147.539 67.4454 146.625 68.4649 145.336 69.1446C144.071 69.8008 142.325 70.1289 140.098 70.1289H133.173ZM138.376 66.508H139.957C141.153 66.508 142.008 66.297 142.524 65.8752C143.039 65.4533 143.356 64.844 143.473 64.0471C143.59 63.2268 143.649 62.2308 143.649 61.059V50.161C143.649 49.0126 143.567 48.0869 143.403 47.3838C143.239 46.6807 142.899 46.1651 142.383 45.8369C141.868 45.5088 141.036 45.3448 139.887 45.3448H138.376V66.508ZM151.335 70.1289V41.6535H163.288V45.3096H156.538V53.5007H161.846V57.1216H156.538V66.5431H163.358V70.1289H151.335ZM164.966 70.1289V41.6535H168.587L175.512 57.895V41.6535H179.801V70.1289H176.356L169.395 53.114V70.1289H164.966ZM185.564 70.1289V45.4854H181.029V41.6535H195.231V45.4854H190.767V70.1289H185.564Z"/>
</mask>
<path d="M77.0019 70.1289V41.6535H83.8219C85.7437 41.6535 87.3608 41.8879 88.6733 42.3566C90.0091 42.8019 91.0169 43.5753 91.6966 44.6768C92.3997 45.7784 92.7512 47.2783 92.7512 49.1767C92.7512 50.325 92.6457 51.3562 92.4348 52.2703C92.2239 53.1843 91.8606 53.9694 91.345 54.6256C90.8528 55.2584 90.1615 55.7506 89.2709 56.1021L93.2434 70.1289H88.0405L84.5953 57.0865H82.2048V70.1289H77.0019ZM82.2048 53.8171H83.8219C84.8297 53.8171 85.6265 53.6765 86.2124 53.3952C86.8218 53.0906 87.2553 52.6218 87.5131 51.989C87.7709 51.3328 87.8998 50.5008 87.8998 49.493C87.8998 48.0634 87.6303 46.9971 87.0913 46.294C86.5757 45.5674 85.5796 45.2042 84.1031 45.2042H82.2048V53.8171ZM95.3016 70.1289V41.6535H107.254V45.3096H100.504V53.5007H105.813V57.1216H100.504V66.5431H107.325V70.1289H95.3016ZM116.104 70.5156C114.393 70.5156 112.963 70.1875 111.815 69.5313C110.667 68.8516 109.799 67.8673 109.214 66.5783C108.628 65.2893 108.3 63.7073 108.229 61.8324L112.694 60.9535C112.741 62.055 112.87 63.0276 113.081 63.8714C113.315 64.7151 113.655 65.3713 114.1 65.84C114.569 66.2853 115.178 66.508 115.928 66.508C116.772 66.508 117.369 66.2619 117.721 65.7697C118.073 65.2541 118.248 64.6096 118.248 63.8362C118.248 62.5941 117.967 61.5746 117.405 60.7777C116.842 59.9809 116.092 59.184 115.155 58.3872L111.569 55.2233C110.561 54.3561 109.753 53.3952 109.143 52.3406C108.557 51.2625 108.264 49.9383 108.264 48.3681C108.264 46.1182 108.921 44.3839 110.233 43.1652C111.545 41.9465 113.338 41.3371 115.612 41.3371C116.948 41.3371 118.061 41.5481 118.951 41.9699C119.842 42.3683 120.545 42.9308 121.061 43.6574C121.6 44.3839 121.998 45.2159 122.256 46.1533C122.514 47.0674 122.678 48.04 122.748 49.0712L118.319 49.8446C118.272 48.954 118.166 48.1572 118.002 47.4541C117.862 46.751 117.592 46.2002 117.194 45.8018C116.819 45.4034 116.256 45.2042 115.506 45.2042C114.733 45.2042 114.135 45.462 113.713 45.9776C113.315 46.4697 113.116 47.0908 113.116 47.8408C113.116 48.8017 113.315 49.5985 113.713 50.2313C114.112 50.8406 114.686 51.4734 115.436 52.1297L118.987 55.2584C120.158 56.2428 121.154 57.4029 121.975 58.7388C122.818 60.0512 123.24 61.6449 123.24 63.5198C123.24 64.8791 122.936 66.0861 122.326 67.1407C121.74 68.1954 120.908 69.0274 119.83 69.6367C118.776 70.2227 117.534 70.5156 116.104 70.5156ZM125.038 70.1289V41.6535H130.171V70.1289H125.038ZM133.173 70.1289V41.6535H139.887C142.207 41.6535 144.012 41.9699 145.301 42.6027C146.613 43.2355 147.539 44.2081 148.078 45.5206C148.641 46.833 148.922 48.497 148.922 50.5125V60.9184C148.922 62.9808 148.641 64.7034 148.078 66.0861C147.539 67.4454 146.625 68.4649 145.336 69.1446C144.071 69.8008 142.325 70.1289 140.098 70.1289H133.173ZM138.376 66.508H139.957C141.153 66.508 142.008 66.297 142.524 65.8752C143.039 65.4533 143.356 64.844 143.473 64.0471C143.59 63.2268 143.649 62.2308 143.649 61.059V50.161C143.649 49.0126 143.567 48.0869 143.403 47.3838C143.239 46.6807 142.899 46.1651 142.383 45.8369C141.868 45.5088 141.036 45.3448 139.887 45.3448H138.376V66.508ZM151.335 70.1289V41.6535H163.288V45.3096H156.538V53.5007H161.846V57.1216H156.538V66.5431H163.358V70.1289H151.335ZM164.966 70.1289V41.6535H168.587L175.512 57.895V41.6535H179.801V70.1289H176.356L169.395 53.114V70.1289H164.966ZM185.564 70.1289V45.4854H181.029V41.6535H195.231V45.4854H190.767V70.1289H185.564Z" fill="#153276"/>
<path d="M77.0019 70.1289H73.806V73.3248H77.0019V70.1289ZM77.0019 41.6535V38.4576H73.806V41.6535H77.0019ZM88.6733 42.3566L87.5984 45.3663L87.6304 45.3778L87.6626 45.3885L88.6733 42.3566ZM91.6966 44.6768L88.9767 46.355L88.9896 46.3758L89.0027 46.3963L91.6966 44.6768ZM92.4348 52.2703L89.3208 51.5516V51.5517L92.4348 52.2703ZM91.345 54.6256L88.832 52.6512L88.8272 52.6573L88.8223 52.6636L91.345 54.6256ZM89.2709 56.1021L88.0975 53.1295L85.4081 54.1911L86.1959 56.973L89.2709 56.1021ZM93.2434 70.1289V73.3248H97.4701L96.3183 69.2581L93.2434 70.1289ZM88.0405 70.1289L84.9506 70.9451L85.5792 73.3248H88.0405V70.1289ZM84.5953 57.0865L87.6852 56.2703L87.0566 53.8906H84.5953V57.0865ZM82.2048 57.0865V53.8906H79.0089V57.0865H82.2048ZM82.2048 70.1289V73.3248H85.4007V70.1289H82.2048ZM82.2048 53.8171H79.0089V57.013H82.2048V53.8171ZM86.2124 53.3952L87.5954 56.2764L87.6186 56.2652L87.6417 56.2537L86.2124 53.3952ZM87.5131 51.989L90.4728 53.1948L90.4804 53.1763L90.4877 53.1576L87.5131 51.989ZM87.0913 46.294L84.485 48.1436L84.5191 48.1917L84.555 48.2384L87.0913 46.294ZM82.2048 45.2042V42.0083H79.0089V45.2042H82.2048ZM77.0019 70.1289H80.1978V41.6535H77.0019H73.806V70.1289H77.0019ZM77.0019 41.6535V44.8494H83.8219V41.6535V38.4576H77.0019V41.6535ZM83.8219 41.6535V44.8494C85.5062 44.8494 86.7343 45.0577 87.5984 45.3663L88.6733 42.3566L89.7481 39.3469C87.9873 38.7181 85.9812 38.4576 83.8219 38.4576V41.6535ZM88.6733 42.3566L87.6626 45.3885C88.3548 45.6192 88.7261 45.9489 88.9767 46.355L91.6966 44.6768L94.4164 42.9987C93.3077 41.2018 91.6635 39.9846 89.6839 39.3247L88.6733 42.3566ZM91.6966 44.6768L89.0027 46.3963C89.2613 46.8015 89.5553 47.6267 89.5553 49.1767H92.7512H95.9471C95.9471 46.9299 95.538 44.7552 94.3905 42.9573L91.6966 44.6768ZM92.7512 49.1767H89.5553C89.5553 50.1349 89.4668 50.9189 89.3208 51.5516L92.4348 52.2703L95.5489 52.9889C95.8247 51.7936 95.9471 50.5152 95.9471 49.1767H92.7512ZM92.4348 52.2703L89.3208 51.5517C89.2023 52.065 89.0233 52.4077 88.832 52.6512L91.345 54.6256L93.858 56.6001C94.6979 55.5311 95.2455 54.3036 95.5489 52.9889L92.4348 52.2703ZM91.345 54.6256L88.8223 52.6636C88.7441 52.7641 88.5598 52.947 88.0975 53.1295L89.2709 56.1021L90.4443 59.0748C91.7631 58.5542 92.9616 57.7527 93.8677 56.5877L91.345 54.6256ZM89.2709 56.1021L86.1959 56.973L90.1684 70.9998L93.2434 70.1289L96.3183 69.2581L92.3458 55.2313L89.2709 56.1021ZM93.2434 70.1289V66.933H88.0405V70.1289V73.3248H93.2434V70.1289ZM88.0405 70.1289L91.1304 69.3127L87.6852 56.2703L84.5953 57.0865L81.5054 57.9027L84.9506 70.9451L88.0405 70.1289ZM84.5953 57.0865V53.8906H82.2048V57.0865V60.2824H84.5953V57.0865ZM82.2048 57.0865H79.0089V70.1289H82.2048H85.4007V57.0865H82.2048ZM82.2048 70.1289V66.933H77.0019V70.1289V73.3248H82.2048V70.1289ZM82.2048 53.8171V57.013H83.8219V53.8171V50.6212H82.2048V53.8171ZM83.8219 53.8171V57.013C85.0708 57.013 86.4054 56.8476 87.5954 56.2764L86.2124 53.3952L84.8295 50.5141C84.8539 50.5023 84.7986 50.5328 84.62 50.5644C84.443 50.5956 84.1828 50.6212 83.8219 50.6212V53.8171ZM86.2124 53.3952L87.6417 56.2537C88.9471 55.601 89.9233 54.5437 90.4728 53.1948L87.5131 51.989L84.5535 50.7832C84.5592 50.769 84.5867 50.7119 84.6485 50.645C84.7104 50.5781 84.7665 50.5451 84.7832 50.5367L86.2124 53.3952ZM87.5131 51.989L90.4877 53.1576C90.9401 52.006 91.0957 50.7429 91.0957 49.493H87.8998H84.704C84.704 50.2588 84.6018 50.6596 84.5386 50.8204L87.5131 51.989ZM87.8998 49.493H91.0957C91.0957 47.7595 90.7863 45.8608 89.6276 44.3495L87.0913 46.294L84.555 48.2384C84.5045 48.1726 84.546 48.1936 84.5993 48.4042C84.6534 48.6182 84.704 48.9681 84.704 49.493H87.8998ZM87.0913 46.294L89.6976 44.4443C88.2741 42.4386 85.9324 42.0083 84.1031 42.0083V45.2042V48.4001C84.3439 48.4001 84.5253 48.415 84.6559 48.4342C84.7869 48.4535 84.8501 48.4745 84.8625 48.4791C84.8732 48.4829 84.8247 48.4666 84.7455 48.4096C84.6628 48.3499 84.5686 48.2613 84.485 48.1436L87.0913 46.294ZM84.1031 45.2042V42.0083H82.2048V45.2042V48.4001H84.1031V45.2042ZM82.2048 45.2042H79.0089V53.8171H82.2048H85.4007V45.2042H82.2048ZM95.3016 70.1289H92.1057V73.3248H95.3016V70.1289ZM95.3016 41.6535V38.4576H92.1057V41.6535H95.3016ZM107.254 41.6535H110.45V38.4576H107.254V41.6535ZM107.254 45.3096V48.5055H110.45V45.3096H107.254ZM100.504 45.3096V42.1137H97.3086V45.3096H100.504ZM100.504 53.5007H97.3086V56.6966H100.504V53.5007ZM105.813 53.5007H109.009V50.3048H105.813V53.5007ZM105.813 57.1216V60.3175H109.009V57.1216H105.813ZM100.504 57.1216V53.9257H97.3086V57.1216H100.504ZM100.504 66.5431H97.3086V69.739H100.504V66.5431ZM107.325 66.5431H110.52V63.3472H107.325V66.5431ZM107.325 70.1289V73.3248H110.52V70.1289H107.325ZM95.3016 70.1289H98.4975V41.6535H95.3016H92.1057V70.1289H95.3016ZM95.3016 41.6535V44.8494H107.254V41.6535V38.4576H95.3016V41.6535ZM107.254 41.6535H104.058V45.3096H107.254H110.45V41.6535H107.254ZM107.254 45.3096V42.1137H100.504V45.3096V48.5055H107.254V45.3096ZM100.504 45.3096H97.3086V53.5007H100.504H103.7V45.3096H100.504ZM100.504 53.5007V56.6966H105.813V53.5007V50.3048H100.504V53.5007ZM105.813 53.5007H102.617V57.1216H105.813H109.009V53.5007H105.813ZM105.813 57.1216V53.9257H100.504V57.1216V60.3175H105.813V57.1216ZM100.504 57.1216H97.3086V66.5431H100.504H103.7V57.1216H100.504ZM100.504 66.5431V69.739H107.325V66.5431V63.3472H100.504V66.5431ZM107.325 66.5431H104.129V70.1289H107.325H110.52V66.5431H107.325ZM107.325 70.1289V66.933H95.3016V70.1289V73.3248H107.325V70.1289ZM111.815 69.5313L110.187 72.2816L110.208 72.294L110.229 72.3061L111.815 69.5313ZM109.214 66.5783L112.123 65.2558V65.2558L109.214 66.5783ZM108.229 61.8324L107.612 58.6967L104.933 59.224L105.036 61.9521L108.229 61.8324ZM112.694 60.9535L115.887 60.8176L115.729 57.0989L112.077 57.8178L112.694 60.9535ZM113.081 63.8714L109.98 64.6465L109.99 64.6867L110.001 64.7267L113.081 63.8714ZM114.1 65.84L111.783 68.0412L111.839 68.1006L111.899 68.157L114.1 65.84ZM117.721 65.7697L120.322 67.6273L120.342 67.5989L120.362 67.5701L117.721 65.7697ZM117.405 60.7777L114.794 62.6207V62.6207L117.405 60.7777ZM115.155 58.3872L113.04 60.7836L113.062 60.8032L113.085 60.8223L115.155 58.3872ZM111.569 55.2233L113.683 52.8269L113.668 52.8137L113.653 52.8008L111.569 55.2233ZM109.143 52.3406L106.335 53.8667L106.355 53.9033L106.376 53.9394L109.143 52.3406ZM110.233 43.1652L112.408 45.5071H112.408L110.233 43.1652ZM118.951 41.9699L117.583 44.8582L117.615 44.873L117.646 44.8872L118.951 41.9699ZM121.061 43.6574L118.454 45.507L118.474 45.5345L118.494 45.5616L121.061 43.6574ZM122.256 46.1533L119.174 47.0008L119.177 47.0108L119.18 47.0209L122.256 46.1533ZM122.748 49.0712L123.298 52.2194L126.132 51.7245L125.937 48.8538L122.748 49.0712ZM118.319 49.8446L115.127 50.0126L115.317 53.613L118.868 52.9929L118.319 49.8446ZM118.002 47.4541L114.868 48.0808L114.878 48.1307L114.89 48.1803L118.002 47.4541ZM117.194 45.8018L114.866 47.9921L114.9 48.0274L114.934 48.0616L117.194 45.8018ZM113.713 45.9776L111.24 43.9538L111.235 43.9603L111.229 43.9667L113.713 45.9776ZM113.713 50.2313L111.009 51.9341L111.023 51.9573L111.038 51.9802L113.713 50.2313ZM115.436 52.1297L117.549 49.7319L117.54 49.7245L115.436 52.1297ZM118.987 55.2584L116.874 57.6562L116.902 57.6812L116.931 57.7055L118.987 55.2584ZM121.975 58.7388L119.251 60.411L119.269 60.4392L119.286 60.467L121.975 58.7388ZM122.326 67.1407L119.559 65.5419L119.546 65.5652L119.533 65.5887L122.326 67.1407ZM119.83 69.6367L121.382 72.4305L121.393 72.4247L121.403 72.419L119.83 69.6367ZM116.104 70.5156V67.3197C114.79 67.3197 113.944 67.0672 113.401 66.7565L111.815 69.5313L110.229 72.3061C111.982 73.3078 113.996 73.7115 116.104 73.7115V70.5156ZM111.815 69.5313L113.443 66.781C112.893 66.4556 112.455 65.9873 112.123 65.2558L109.214 66.5783L106.304 67.9007C107.143 69.7473 108.44 71.2476 110.187 72.2816L111.815 69.5313ZM109.214 66.5783L112.123 65.2558C111.755 64.4467 111.482 63.2999 111.423 61.7126L108.229 61.8324L105.036 61.9521C105.117 64.1147 105.5 66.1318 106.304 67.9007L109.214 66.5783ZM108.229 61.8324L108.846 64.9681L113.311 64.0892L112.694 60.9535L112.077 57.8178L107.612 58.6967L108.229 61.8324ZM112.694 60.9535L109.501 61.0894C109.555 62.3522 109.705 63.5465 109.98 64.6465L113.081 63.8714L116.181 63.0962C116.034 62.5088 115.927 61.7578 115.887 60.8176L112.694 60.9535ZM113.081 63.8714L110.001 64.7267C110.328 65.904 110.872 67.0826 111.783 68.0412L114.1 65.84L116.417 63.6389C116.437 63.66 116.302 63.5261 116.16 63.016L113.081 63.8714ZM114.1 65.84L111.899 68.157C113.056 69.2566 114.5 69.7039 115.928 69.7039V66.508V63.3121C115.87 63.3121 115.909 63.3038 116.005 63.3392C116.11 63.3776 116.217 63.4431 116.301 63.523L114.1 65.84ZM115.928 66.508V69.7039C117.365 69.7039 119.154 69.262 120.322 67.6273L117.721 65.7697L115.12 63.9121C115.318 63.6358 115.576 63.4574 115.792 63.3682C115.978 63.2919 116.054 63.3121 115.928 63.3121V66.508ZM117.721 65.7697L120.362 67.5701C121.153 66.4089 121.444 65.0971 121.444 63.8362H118.248H115.052C115.052 63.9825 115.036 64.0496 115.033 64.0587C115.032 64.0629 115.034 64.0543 115.042 64.0364C115.051 64.0182 115.063 63.9949 115.08 63.9694L117.721 65.7697ZM118.248 63.8362H121.444C121.444 62.1149 121.051 60.4017 120.016 58.9347L117.405 60.7777L114.794 62.6207C114.883 62.7474 115.052 63.0732 115.052 63.8362H118.248ZM117.405 60.7777L120.016 58.9347C119.264 57.8702 118.316 56.8798 117.225 55.9521L115.155 58.3872L113.085 60.8223C113.868 61.4883 114.42 62.0915 114.794 62.6207L117.405 60.7777ZM115.155 58.3872L117.269 55.9908L113.683 52.8269L111.569 55.2233L109.454 57.6197L113.04 60.7836L115.155 58.3872ZM111.569 55.2233L113.653 52.8008C112.893 52.1465 112.324 51.4582 111.91 50.7418L109.143 52.3406L106.376 53.9394C107.181 55.3322 108.229 56.5658 109.484 57.6458L111.569 55.2233ZM109.143 52.3406L111.951 50.8145C111.681 50.3178 111.46 49.5507 111.46 48.3681H108.264H105.068C105.068 50.326 105.433 52.2072 106.335 53.8667L109.143 52.3406ZM108.264 48.3681H111.46C111.46 46.7639 111.905 45.9735 112.408 45.5071L110.233 43.1652L108.058 40.8233C105.936 42.7942 105.068 45.4725 105.068 48.3681H108.264ZM110.233 43.1652L112.408 45.5071C112.982 44.9737 113.919 44.533 115.612 44.533V41.3371V38.1412C112.757 38.1412 110.109 38.9192 108.058 40.8233L110.233 43.1652ZM115.612 41.3371V44.533C116.634 44.533 117.244 44.6975 117.583 44.8582L118.951 41.9699L120.32 39.0817C118.877 38.3986 117.261 38.1412 115.612 38.1412V41.3371ZM118.951 41.9699L117.646 44.8872C118.067 45.0752 118.3 45.2898 118.454 45.507L121.061 43.6574L123.667 41.8077C122.79 40.5718 121.617 39.6614 120.257 39.0527L118.951 41.9699ZM121.061 43.6574L118.494 45.5616C118.781 45.9477 119.014 46.4157 119.174 47.0008L122.256 46.1533L125.337 45.3059C124.983 44.0161 124.419 42.8201 123.627 41.7531L121.061 43.6574ZM122.256 46.1533L119.18 47.0209C119.373 47.7049 119.503 48.4582 119.56 49.2886L122.748 49.0712L125.937 48.8538C125.853 47.6217 125.655 46.4298 125.332 45.2858L122.256 46.1533ZM122.748 49.0712L122.198 45.9229L117.769 46.6963L118.319 49.8446L118.868 52.9929L123.298 52.2194L122.748 49.0712ZM118.319 49.8446L121.51 49.6766C121.456 48.6399 121.33 47.6511 121.115 46.7279L118.002 47.4541L114.89 48.1803C115.003 48.6632 115.088 49.2681 115.127 50.0126L118.319 49.8446ZM118.002 47.4541L121.136 46.8273C120.905 45.6734 120.405 44.4939 119.454 43.542L117.194 45.8018L114.934 48.0616C114.9 48.0276 114.874 47.9954 114.855 47.9684C114.836 47.9417 114.827 47.9236 114.824 47.9184C114.82 47.9094 114.843 47.9546 114.868 48.0808L118.002 47.4541ZM117.194 45.8018L119.521 43.6114C118.344 42.3613 116.8 42.0083 115.506 42.0083V45.2042V48.4001C115.607 48.4001 115.56 48.4145 115.424 48.3661C115.27 48.3116 115.058 48.1962 114.866 47.9921L117.194 45.8018ZM115.506 45.2042V42.0083C113.947 42.0083 112.37 42.5724 111.24 43.9538L113.713 45.9776L116.187 48.0013C116.082 48.1297 115.926 48.2534 115.744 48.332C115.575 48.4049 115.474 48.4001 115.506 48.4001V45.2042ZM113.713 45.9776L111.229 43.9667C110.289 45.1284 109.92 46.4995 109.92 47.8408H113.116H116.312C116.312 47.7484 116.324 47.7404 116.308 47.7886C116.301 47.8124 116.288 47.845 116.268 47.8825C116.247 47.9202 116.223 47.9562 116.197 47.9884L113.713 45.9776ZM113.116 47.8408H109.92C109.92 49.2348 110.21 50.6648 111.009 51.9341L113.713 50.2313L116.418 48.5285C116.416 48.5251 116.391 48.4862 116.366 48.384C116.339 48.2776 116.312 48.1029 116.312 47.8408H113.116ZM113.713 50.2313L111.038 51.9802C111.643 52.9042 112.437 53.7521 113.331 54.5348L115.436 52.1297L117.54 49.7245C116.935 49.1948 116.581 48.7771 116.388 48.4823L113.713 50.2313ZM115.436 52.1297L113.323 54.5274L116.874 57.6562L118.987 55.2584L121.099 52.8606L117.549 49.7319L115.436 52.1297ZM118.987 55.2584L116.931 57.7055C117.834 58.4638 118.606 59.3604 119.251 60.411L121.975 58.7388L124.698 57.0665C123.703 55.4453 122.483 54.0218 121.042 52.8113L118.987 55.2584ZM121.975 58.7388L119.286 60.467C119.737 61.168 120.044 62.1328 120.044 63.5198H123.24H126.436C126.436 61.157 125.9 58.9344 124.663 57.0106L121.975 58.7388ZM123.24 63.5198H120.044C120.044 64.3844 119.856 65.0279 119.559 65.5419L122.326 67.1407L125.093 68.7396C126.015 67.1443 126.436 65.3738 126.436 63.5198H123.24ZM122.326 67.1407L119.533 65.5887C119.24 66.1145 118.837 66.5268 118.258 66.8545L119.83 69.6367L121.403 72.419C122.979 71.5279 124.24 70.2763 125.12 68.6928L122.326 67.1407ZM119.83 69.6367L118.278 66.843C117.779 67.1203 117.091 67.3197 116.104 67.3197V70.5156V73.7115C117.976 73.7115 119.772 73.325 121.382 72.4305L119.83 69.6367ZM125.038 70.1289H121.842V73.3248H125.038V70.1289ZM125.038 41.6535V38.4576H121.842V41.6535H125.038ZM130.171 41.6535H133.367V38.4576H130.171V41.6535ZM130.171 70.1289V73.3248H133.367V70.1289H130.171ZM125.038 70.1289H128.234V41.6535H125.038H121.842V70.1289H125.038ZM125.038 41.6535V44.8494H130.171V41.6535V38.4576H125.038V41.6535ZM130.171 41.6535H126.975V70.1289H130.171H133.367V41.6535H130.171ZM130.171 70.1289V66.933H125.038V70.1289V73.3248H130.171V70.1289ZM133.173 70.1289H129.977V73.3248H133.173V70.1289ZM133.173 41.6535V38.4576H129.977V41.6535H133.173ZM145.301 42.6027L143.893 45.4716L143.903 45.4765L143.913 45.4815L145.301 42.6027ZM148.078 45.5206L145.122 46.7347L145.131 46.7572L145.141 46.7795L148.078 45.5206ZM148.078 66.0861L145.118 64.8819L145.113 64.8949L145.107 64.908L148.078 66.0861ZM145.336 69.1446L146.807 71.9817L146.817 71.9767L146.827 71.9716L145.336 69.1446ZM138.376 66.508H135.18V69.7039H138.376V66.508ZM142.524 65.8752L144.548 68.3487V68.3487L142.524 65.8752ZM143.473 64.0471L146.635 64.5121L146.637 64.4991L143.473 64.0471ZM143.403 47.3838L140.29 48.11V48.11L143.403 47.3838ZM142.383 45.8369L140.667 48.5332V48.5332L142.383 45.8369ZM138.376 45.3448V42.1489H135.18V45.3448H138.376ZM133.173 70.1289H136.369V41.6535H133.173H129.977V70.1289H133.173ZM133.173 41.6535V44.8494H139.887V41.6535V38.4576H133.173V41.6535ZM139.887 41.6535V44.8494C141.986 44.8494 143.231 45.1468 143.893 45.4716L145.301 42.6027L146.709 39.7339C144.793 38.7931 142.429 38.4576 139.887 38.4576V41.6535ZM145.301 42.6027L143.913 45.4815C144.536 45.782 144.891 46.1729 145.122 46.7347L148.078 45.5206L151.035 44.3064C150.187 42.2433 148.691 40.689 146.689 39.724L145.301 42.6027ZM148.078 45.5206L145.141 46.7795C145.478 47.5661 145.726 48.7645 145.726 50.5125H148.922H152.118C152.118 48.2295 151.804 46.0999 151.016 44.2616L148.078 45.5206ZM148.922 50.5125H145.726V60.9184H148.922H152.118V50.5125H148.922ZM148.922 60.9184H145.726C145.726 62.7148 145.478 63.9975 145.118 64.8819L148.078 66.0861L151.039 67.2903C151.804 65.4092 152.118 63.2467 152.118 60.9184H148.922ZM148.078 66.0861L145.107 64.908C144.848 65.5615 144.458 65.9948 143.846 66.3176L145.336 69.1446L146.827 71.9716C148.793 70.935 150.23 69.3294 151.049 67.2642L148.078 66.0861ZM145.336 69.1446L143.865 66.3074C143.239 66.6319 142.072 66.933 140.098 66.933V70.1289V73.3248C142.577 73.3248 144.902 72.9697 146.807 71.9817L145.336 69.1446ZM140.098 70.1289V66.933H133.173V70.1289V73.3248H140.098V70.1289ZM138.376 66.508V69.7039H139.957V66.508V63.3121H138.376V66.508ZM139.957 66.508V69.7039C141.369 69.7039 143.158 69.4859 144.548 68.3487L142.524 65.8752L140.5 63.4017C140.708 63.2312 140.839 63.22 140.73 63.2468C140.624 63.2731 140.382 63.3121 139.957 63.3121V66.508ZM142.524 65.8752L144.548 68.3487C145.803 67.3215 146.427 65.9235 146.635 64.5121L143.473 64.0471L140.311 63.5821C140.295 63.6884 140.28 63.6891 140.311 63.6291C140.327 63.599 140.351 63.5598 140.386 63.5168C140.421 63.4737 140.46 63.4347 140.5 63.4017L142.524 65.8752ZM143.473 64.0471L146.637 64.4991C146.782 63.482 146.845 62.3255 146.845 61.059H143.649H140.453C140.453 62.1361 140.398 62.9717 140.309 63.5952L143.473 64.0471ZM143.649 61.059H146.845V50.161H143.649H140.453V61.059H143.649ZM143.649 50.161H146.845C146.845 48.8935 146.757 47.6958 146.515 46.6576L143.403 47.3838L140.29 48.11C140.376 48.4779 140.453 49.1317 140.453 50.161H143.649ZM143.403 47.3838L146.515 46.6576C146.198 45.2987 145.446 43.9979 144.099 43.1407L142.383 45.8369L140.667 48.5332C140.541 48.4528 140.432 48.3428 140.356 48.2285C140.287 48.1226 140.28 48.0651 140.29 48.11L143.403 47.3838ZM142.383 45.8369L144.099 43.1407C142.789 42.3074 141.19 42.1489 139.887 42.1489V45.3448V48.5407C140.321 48.5407 140.599 48.5727 140.754 48.6033C140.921 48.6362 140.848 48.6479 140.667 48.5332L142.383 45.8369ZM139.887 45.3448V42.1489H138.376V45.3448V48.5407H139.887V45.3448ZM138.376 45.3448H135.18V66.508H138.376H141.571V45.3448H138.376ZM151.335 70.1289H148.139V73.3248H151.335V70.1289ZM151.335 41.6535V38.4576H148.139V41.6535H151.335ZM163.288 41.6535H166.484V38.4576H163.288V41.6535ZM163.288 45.3096V48.5055H166.484V45.3096H163.288ZM156.538 45.3096V42.1137H153.342V45.3096H156.538ZM156.538 53.5007H153.342V56.6966H156.538V53.5007ZM161.846 53.5007H165.042V50.3048H161.846V53.5007ZM161.846 57.1216V60.3175H165.042V57.1216H161.846ZM156.538 57.1216V53.9257H153.342V57.1216H156.538ZM156.538 66.5431H153.342V69.739H156.538V66.5431ZM163.358 66.5431H166.554V63.3472H163.358V66.5431ZM163.358 70.1289V73.3248H166.554V70.1289H163.358ZM151.335 70.1289H154.531V41.6535H151.335H148.139V70.1289H151.335ZM151.335 41.6535V44.8494H163.288V41.6535V38.4576H151.335V41.6535ZM163.288 41.6535H160.092V45.3096H163.288H166.484V41.6535H163.288ZM163.288 45.3096V42.1137H156.538V45.3096V48.5055H163.288V45.3096ZM156.538 45.3096H153.342V53.5007H156.538H159.734V45.3096H156.538ZM156.538 53.5007V56.6966H161.846V53.5007V50.3048H156.538V53.5007ZM161.846 53.5007H158.65V57.1216H161.846H165.042V53.5007H161.846ZM161.846 57.1216V53.9257H156.538V57.1216V60.3175H161.846V57.1216ZM156.538 57.1216H153.342V66.5431H156.538H159.734V57.1216H156.538ZM156.538 66.5431V69.739H163.358V66.5431V63.3472H156.538V66.5431ZM163.358 66.5431H160.162V70.1289H163.358H166.554V66.5431H163.358ZM163.358 70.1289V66.933H151.335V70.1289V73.3248H163.358V70.1289ZM164.966 70.1289H161.77V73.3248H164.966V70.1289ZM164.966 41.6535V38.4576H161.77V41.6535H164.966ZM168.587 41.6535L171.526 40.4L170.698 38.4576H168.587V41.6535ZM175.512 57.895L172.572 59.1486L178.708 57.895H175.512ZM175.512 41.6535V38.4576H172.316V41.6535H175.512ZM179.801 41.6535H182.997V38.4576H179.801V41.6535ZM179.801 70.1289V73.3248H182.997V70.1289H179.801ZM176.356 70.1289L173.398 71.339L174.21 73.3248H176.356V70.1289ZM169.395 53.114L172.353 51.9039L166.199 53.114H169.395ZM169.395 70.1289V73.3248H172.591V70.1289H169.395ZM164.966 70.1289H168.162V41.6535H164.966H161.77V70.1289H164.966ZM164.966 41.6535V44.8494H168.587V41.6535V38.4576H164.966V41.6535ZM168.587 41.6535L165.647 42.9071L172.572 59.1486L175.512 57.895L178.452 56.6415L171.526 40.4L168.587 41.6535ZM175.512 57.895H178.708V41.6535H175.512H172.316V57.895H175.512ZM175.512 41.6535V44.8494H179.801V41.6535V38.4576H175.512V41.6535ZM179.801 41.6535H176.605V70.1289H179.801H182.997V41.6535H179.801ZM179.801 70.1289V66.933H176.356V70.1289V73.3248H179.801V70.1289ZM176.356 70.1289L179.314 68.9188L172.353 51.9039L169.395 53.114L166.437 54.3241L173.398 71.339L176.356 70.1289ZM169.395 53.114H166.199V70.1289H169.395H172.591V53.114H169.395ZM169.395 70.1289V66.933H164.966V70.1289V73.3248H169.395V70.1289ZM185.564 70.1289H182.368V73.3248H185.564V70.1289ZM185.564 45.4854H188.76V42.2895H185.564V45.4854ZM181.029 45.4854H177.833V48.6813H181.029V45.4854ZM181.029 41.6535V38.4576H177.833V41.6535H181.029ZM195.231 41.6535H198.427V38.4576H195.231V41.6535ZM195.231 45.4854V48.6813H198.427V45.4854H195.231ZM190.767 45.4854V42.2895H187.571V45.4854H190.767ZM190.767 70.1289V73.3248H193.962V70.1289H190.767ZM185.564 70.1289H188.76V45.4854H185.564H182.368V70.1289H185.564ZM185.564 45.4854V42.2895H181.029V45.4854V48.6813H185.564V45.4854ZM181.029 45.4854H184.225V41.6535H181.029H177.833V45.4854H181.029ZM181.029 41.6535V44.8494H195.231V41.6535V38.4576H181.029V41.6535ZM195.231 41.6535H192.035V45.4854H195.231H198.427V41.6535H195.231ZM195.231 45.4854V42.2895H190.767V45.4854V48.6813H195.231V45.4854ZM190.767 45.4854H187.571V70.1289H190.767H193.962V45.4854H190.767ZM190.767 70.1289V66.933H185.564V70.1289V73.3248H190.767V70.1289Z" fill="#F1F5F6" mask="url(#path-5-outside-2_448_4056)"/>
</svg>
